<svg class="icon"
     viewBox="0 0 1024 1024"
     version="1.1"
     xmlns="http://www.w3.org/2000/svg"
     width="200"
     height="200">
    <path d="M511.96825391 62.03174609c-248.47619062 0-449.90476172 201.46031719-449.90476172 450.0317461 0 248.38095234 201.42857109 449.90476172 449.90476172 449.90476172 248.50793672 0 450-201.52380938 450-449.90476172C961.96825391 263.52380938 760.47619062 62.03174609 511.96825391 62.03174609zM512 922.92063506c-226.88888906 0-410.82539678-183.96825381-410.82539678-410.85714287 0-226.92063516 183.93650771-410.85714287 410.82539678-410.85714287 226.85714297 0 410.82539678 183.93650771 410.82539678 410.85714287C922.82539678 738.95238125 738.88888906 922.92063506 512 922.92063506zM628.85714258 209.61904766L285.65079365 512.34920615 534.22222256 554.06349248 411.55555537 811.71428575 735.17460313 474.95238067 505.11111084 442.95238057Z"></path>
</svg>
