<?xml version="1.0" encoding="utf-8"?>
<!-- Generator: Adobe Illustrator 23.0.0, SVG Export Plug-In . SVG Version: 6.00 Build 0)  -->
<svg version="1.1" id="图层_1" xmlns="http://www.w3.org/2000/svg" xmlns:xlink="http://www.w3.org/1999/xlink" x="0px" y="0px"
	 viewBox="0 0 50 50" style="enable-background:new 0 0 50 50;" xml:space="preserve">
<style type="text/css">
	.st0{fill:#FE8D6A;}
	.st1{fill:#FFFFFF;}
</style>
<title>Group</title>
<desc>Created with Sketch.</desc>
<g id="Page-1">
	<g id="Group">
		<g id="icon_deployment-config">
			<rect id="Rectangle" class="st0" width="50" height="50"/>
		</g>
		<g>
			<path class="st1" d="M26.8,33.7v2.3c-0.1,0.6-0.6,1-1.1,1c0,0,0,0-0.1,0C25,37,24.5,36.6,24.4,36c0,0,0,0,0-0.1v-2.3
				c-1.4-0.7-2-2.3-1.3-3.7c0.7-1.4,2.3-2,3.7-1.3s2,2.3,1.3,3.7C27.8,32.9,27.4,33.4,26.8,33.7L26.8,33.7z M39.4,27.8v-3.4
				c-0.1-1.9-1.6-3.3-3.5-3.3H15.2c-1.9,0-3.4,1.4-3.5,3.3v15c0.1,1.9,1.6,3.3,3.4,3.3c0,0,0,0,0,0H36c1.9,0,3.4-1.4,3.5-3.3v-1.1
				h-4.5v-1.8h4.5v-2.4h-4.5v-1.8h4.5v-2.7h-4.5v-1.8H39.4z"/>
			<path class="st1" d="M18.4,16.6c0-3,2.4-5.4,5.4-5.4h3.5c3,0,5.4,2.4,5.4,5.4v3.8h3.9v-5c0-4.1-3.3-7.4-7.4-7.4H22
				c-4.1,0-7.4,3.3-7.4,7.4v5h3.8V16.6z"/>
		</g>
	</g>
</g>
</svg>
