<?xml version="1.0" encoding="utf-8"?>
<!-- Generator: Adobe Illustrator 23.0.0, SVG Export Plug-In . SVG Version: 6.00 Build 0)  -->
<svg version="1.1" id="图层_1" xmlns="http://www.w3.org/2000/svg" xmlns:xlink="http://www.w3.org/1999/xlink" x="0px" y="0px"
	 viewBox="0 0 200 200" style="enable-background:new 0 0 200 200;" xml:space="preserve">
<path d="M25.3,150h20c3.3,0,5,1.7,5,5v20c0,3.3-1.7,5-5,5h-20c-3.3,0-5-1.7-5-5v-20C20.3,151.7,22,150,25.3,150z"/>
<path d="M25.3,90.6h20c3.3,0,5,1.7,5,5v20c0,3.3-1.7,5-5,5h-20c-3.3,0-5-1.7-5-5v-20C20.3,92.3,22,90.6,25.3,90.6z"/>
<path d="M25.3,30.6h20c3.3,0,5,1.7,5,5v20c0,3.3-1.7,5-5,5h-20c-3.3,0-5-1.7-5-5v-20C20.3,32.3,22,30.6,25.3,30.6z"/>
<path d="M84.7,30.6h90c3.3,0,5,1.7,5,5v20c0,3.3-1.7,5-5,5h-90c-3.3,0-5-1.7-5-5v-20C79.7,32.3,81.4,30.6,84.7,30.6z"/>
<path d="M84.7,90.6h90c3.3,0,5,1.7,5,5v20c0,3.3-1.7,5-5,5h-90c-3.3,0-5-1.7-5-5v-20C79.7,92.3,81.4,90.6,84.7,90.6z"/>
<path d="M84.7,150h90c3.3,0,5,1.7,5,5v20c0,3.3-1.7,5-5,5h-90c-3.3,0-5-1.7-5-5v-20C79.7,151.7,81.4,150,84.7,150z"/>
</svg>
