<svg xmlns="http://www.w3.org/2000/svg" xmlns:xlink="http://www.w3.org/1999/xlink" viewBox="0 0 22 22">
  <defs>
    <style>
      .a {
        fill: #fff;
      }

      .b {
        mask: url(#a);
      }

      .c {
        mask: url(#b);
      }
    </style>
    <mask id="a" x="0" y="0" width="22" height="22" maskUnits="userSpaceOnUse">
      <path class="a" d="M11,0A11,11,0,1,0,22,11,11,11,0,0,0,11,0Z"/>
    </mask>
    <mask id="b" x="5" y="5" width="12" height="12" maskUnits="userSpaceOnUse">
      <path class="a" d="M16.25,7.275v.648l-.724.724L13.353,6.474l.725-.724h.647a.5.5,0,0,1,.167.028,2.191,2.191,0,0,1,1.33,1.33A.5.5,0,0,1,16.25,7.275ZM12.657,7.17,14.83,9.343,9.009,15.164,5.75,16.25l1.086-3.259Z"/>
    </mask>
  </defs>
  <title>画板 1</title>
  <g>
    <path d="M11,0A11,11,0,1,0,22,11,11,11,0,0,0,11,0Z"/>
    <g class="b">
      <g>
        <path d="M16.25,7.275v.648l-.724.724L13.353,6.474l.725-.724h.647a.5.5,0,0,1,.167.028,2.191,2.191,0,0,1,1.33,1.33A.5.5,0,0,1,16.25,7.275ZM12.657,7.17,14.83,9.343,9.009,15.164,5.75,16.25l1.086-3.259Z"/>
        <g class="c">
          <rect class="a" x="5" y="5" width="12" height="12"/>
        </g>
      </g>
    </g>
  </g>
</svg>
