<?xml version="1.0" encoding="utf-8"?>
<!-- Generator: Adobe Illustrator 23.0.0, SVG Export Plug-In . SVG Version: 6.00 Build 0)  -->
<svg version="1.1" id="图层_1" xmlns="http://www.w3.org/2000/svg" xmlns:xlink="http://www.w3.org/1999/xlink" x="0px" y="0px"
	 viewBox="0 0 200 200" style="enable-background:new 0 0 200 200;" xml:space="preserve">
<path d="M0,150V20c0-5.5,4.5-10,10-10h180c5.5,0,10,4.5,10,10c0,0,0,0,0,0v130H0z M50,45c0-2.8-2.2-5-5-5c-2.8,0-5,2.2-5,5v70
	c0,2.8,2.2,5,5,5c2.8,0,5-2.2,5-5V45z M90,65c0-2.8-2.2-5-5-5c-2.8,0-5,2.2-5,5v50c0,2.8,2.2,5,5,5c2.8,0,5-2.2,5-5V65z M120,95
	c0-2.8-2.2-5-5-5c-2.8,0-5,2.2-5,5v20c0,2.8,2.2,5,5,5c2.8,0,5-2.2,5-5V95z M160,65c0-2.8-2.2-5-5-5s-5,2.2-5,5v50c0,2.8,2.2,5,5,5
	s5-2.2,5-5V65z M30,170h140c5.5,0,10,4.5,10,10c0,5.5-4.5,10-10,10H30c-5.5,0-10-4.5-10-10C20,174.5,24.5,170,30,170z"/>
</svg>
