<?xml version="1.0" encoding="utf-8"?>
<!-- Generator: Adobe Illustrator 23.0.0, SVG Export Plug-In . SVG Version: 6.00 Build 0)  -->
<svg version="1.1" id="图层_1" xmlns="http://www.w3.org/2000/svg" xmlns:xlink="http://www.w3.org/1999/xlink" x="0px" y="0px"
	 viewBox="0 0 50 50" style="enable-background:new 0 0 50 50;" xml:space="preserve">
<style type="text/css">
	.st0{fill:#30C5D8;}
	.st1{fill:#FFFFFF;}
	.st2{opacity:0.3;fill:#30C5D8;enable-background:new    ;}
</style>
<title>Group 2</title>
<desc>Created with Sketch.</desc>
<g id="Page-1">
	<g id="Group-2">
		<g id="deployment-config">
			<g id="icon_deployment-config">
				<rect id="Rectangle" y="0" class="st0" width="50" height="50"/>
			</g>
		</g>
		<g id="Group" transform="translate(13.000000, 11.000000)">
			<polygon id="Path" class="st1" points="8.7,5.2 5.2,5.2 5.2,0 3.5,0 3.5,5.2 0,5.2 0,12.2 3.5,12.2 3.5,28 5.2,28 5.2,12.2 
				8.7,12.2 			"/>
			<polygon class="st2" points="6.9,10.5 1.7,10.5 1.7,7 6.9,7 			"/>
			<polygon class="st1" points="22.5,5.2 22.5,0 20.8,0 20.8,5.2 17.3,5.2 17.3,12.2 20.8,12.2 20.8,28 22.5,28 22.5,12.2 26,12.2 
				26,5.2 			"/>
			<polygon class="st2" points="24.3,10.5 19.1,10.5 19.1,7 24.3,7 			"/>
			<polygon class="st1" points="13.9,0 12.1,0 12.1,15.7 8.7,15.7 8.7,22.7 12.1,22.7 12.1,28 13.9,28 13.9,22.7 17.3,22.7 
				17.3,15.7 13.9,15.7 			"/>
			<polygon class="st2" points="15.6,17.5 15.6,21 10.4,21 10.4,17.5 			"/>
		</g>
	</g>
</g>
</svg>
