<svg xmlns="http://www.w3.org/2000/svg" viewBox="0 0 60 21">
  <defs>
    <style>
      .a {
        fill: #fff;
      }

      .b {
        fill: #77ade8;
      }

      .c {
        fill: #a9d2ff;
      }

      .d {
        fill: #426a9d;
      }
    </style>
  </defs>
  <title>DSP</title>
  <path class="a" d="M37.193,13.651a6.374,6.374,0,0,0,3.919,1.429c1.444,0,2.2-.6,2.2-1.5,0-.866-.658-1.358-2.325-1.954-2.309-.8-3.807-2.078-3.807-4.094,0-2.368,1.976-4.178,5.248-4.178a8.492,8.492,0,0,1,3.539.7l-.7,2.527a6.576,6.576,0,0,0-2.9-.658c-1.359,0-2.021.617-2.021,1.336,0,.886.782,1.276,2.572,1.956,2.448.905,3.6,2.18,3.6,4.138,0,2.326-1.791,4.3-5.6,4.3a10.807,10.807,0,0,1-4.277-.88Z"/>
  <path class="a" d="M56.947,4.605A6.649,6.649,0,0,0,52.708,3.5a25.591,25.591,0,0,0-4.239.288V17.311h3.107v-4.8a7.817,7.817,0,0,0,1.07.061,6.43,6.43,0,0,0,4.506-1.461,4.426,4.426,0,0,0,1.275-3.292A4.058,4.058,0,0,0,56.947,4.605Zm-4.322,5.557a4.8,4.8,0,0,1-1.049-.083v-4.1a5.384,5.384,0,0,1,1.3-.123c1.562,0,2.448.761,2.448,2.036C55.321,9.317,54.292,10.162,52.625,10.162Z"/>
  <g>
    <polygon class="b" points="17.31 15.26 17.28 15.28 8.79 10.34 17.28 5.44 17.31 15.26"/>
    <polygon class="c" points="8.73 10.38 0.27 15.26 0.24 5.44 8.73 10.38"/>
    <polygon class="d" points="17.28 5.44 8.79 10.34 8.73 10.38 0.24 5.44 8.79 0.51 17.28 5.44"/>
    <polygon class="d" points="17.28 15.28 8.76 20.19 0.27 15.26 8.73 10.38 8.79 10.34 17.28 15.28"/>
  </g>
  <path class="a" d="M24.1,3.936a26.8,26.8,0,0,1,4.085-.287c2.542,0,4.2.468,5.487,1.437a5.917,5.917,0,0,1,2.266,5.042,6.794,6.794,0,0,1-2.216,5.429,9.619,9.619,0,0,1-6.18,1.736,25.3,25.3,0,0,1-3.442-.2Zm3.026,10.936a6.849,6.849,0,0,0,1.056.053c2.744.023,4.548-1.493,4.548-4.7A3.854,3.854,0,0,0,28.5,5.98a6.547,6.547,0,0,0-1.375.116Z"/>
</svg>
