<?xml version="1.0" standalone="no"?><!DOCTYPE svg PUBLIC "-//W3C//DTD SVG 1.1//EN" "http://www.w3.org/Graphics/SVG/1.1/DTD/svg11.dtd"><svg t="1565242245096" class="icon" viewBox="0 0 1024 1024" version="1.1" xmlns="http://www.w3.org/2000/svg" p-id="1759" xmlns:xlink="http://www.w3.org/1999/xlink" width="200" height="200"><defs><style type="text/css"></style></defs><path d="M906.976198 131.213564L528.80513 2.337137C524.242148 0.779046 518.121074 0 512 0s-12.242148 0.779046-16.80513 2.337137L117.023802 131.213564c-9.237257 3.116183-16.80513 13.800239-16.80513 23.593957v536.873818c0 9.793718 6.343658 22.703619 14.022823 28.824693L497.865884 1019.437018c3.895229 3.004891 8.90338 4.562982 14.022824 4.562982s10.238887-1.558092 14.022823-4.562982l383.624389-298.930986c7.679165-6.009782 14.022824-18.919683 14.022824-28.824693V154.807521c0.222585-9.793718-7.345289-20.366482-16.582546-23.593957zM843.650908 670.313227L512 928.733833 180.349092 670.313227V194.427562l331.650908-113.072927 331.650908 113.072927v475.885665z m-451.623954-223.697424c-3.338768-4.562982-8.680796-7.345289-14.467993-7.345289H316.125639c-7.233996 0-11.463102 8.235627-7.233997 14.134116l140.673405 193.648516a17.918052 17.918052 0 0 0 28.935985 0l236.607326-325.752418c4.229106-5.898489 0-14.134116-7.233997-14.134116h-61.433322c-5.675905 0-11.129225 2.782306-14.467993 7.345289L464.03304 545.777198l-72.006086-99.161395z" p-id="1760" fill="#bfbfbf"></path></svg>