<?xml version="1.0" encoding="utf-8"?>
<!-- Generator: Adobe Illustrator 23.0.0, SVG Export Plug-In . SVG Version: 6.00 Build 0)  -->
<svg version="1.1" id="图层_1" xmlns="http://www.w3.org/2000/svg" xmlns:xlink="http://www.w3.org/1999/xlink" x="0px" y="0px"
	 viewBox="0 0 50 50" style="enable-background:new 0 0 50 50;" xml:space="preserve">
<style type="text/css">
	.st0{fill:#7A85C9;}
	.st1{fill:#FFFFFF;}
</style>
<title>Group</title>
<desc>Created with Sketch.</desc>
<rect id="Rectangle" class="st0" width="50" height="50"/>
<path class="st1" d="M9.8,32.6V12.9c0-0.8,0.7-1.5,1.5-1.5h27.3c0.8,0,1.5,0.7,1.5,1.5c0,0,0,0,0,0v19.7H9.8z M17.4,16.7
	c0-0.4-0.3-0.8-0.8-0.8c-0.4,0-0.8,0.3-0.8,0.8v10.6c0,0.4,0.3,0.8,0.8,0.8c0.4,0,0.8-0.3,0.8-0.8V16.7z M23.5,19.7
	c0-0.4-0.3-0.8-0.8-0.8c-0.4,0-0.8,0.3-0.8,0.8v7.6c0,0.4,0.3,0.8,0.8,0.8c0.4,0,0.8-0.3,0.8-0.8V19.7z M28,24.2
	c0-0.4-0.3-0.8-0.8-0.8s-0.8,0.3-0.8,0.8v3c0,0.4,0.3,0.8,0.8,0.8s0.8-0.3,0.8-0.8V24.2z M34.1,19.7c0-0.4-0.3-0.8-0.8-0.8
	s-0.8,0.3-0.8,0.8v7.6c0,0.4,0.3,0.8,0.8,0.8s0.8-0.3,0.8-0.8V19.7z M14.4,35.6h21.2c0.8,0,1.5,0.7,1.5,1.5c0,0.8-0.7,1.5-1.5,1.5
	H14.4c-0.8,0-1.5-0.7-1.5-1.5C12.9,36.3,13.5,35.6,14.4,35.6z"/>
</svg>
