<?xml version="1.0" encoding="utf-8"?>
<!-- Generator: Adobe Illustrator 21.0.0, SVG Export Plug-In . SVG Version: 6.00 Build 0)  -->
<svg version="1.1" xmlns="http://www.w3.org/2000/svg" xmlns:xlink="http://www.w3.org/1999/xlink" x="0px" y="0px"
	 viewBox="0 0 17.8 16" style="enable-background:new 0 0 17.8 16;" xml:space="preserve">
<title>持续发布</title>
<path d="M17.6,7.2c-0.2-1.5-1.2-2.8-2.7-3.3c-1.4-0.4-2.8-0.1-3.8,0.9l-5.4,5.2c-0.6,0.6-1.5,0.8-2.3,0.6c-0.9-0.3-1.5-1.1-1.7-2.1
	c0-0.2-0.1-0.5-0.1-0.7c0-1.1,0.6-2.1,1.6-2.5c0.6-0.2,1.2-0.2,1.8,0.1L3.3,7.2h4.4V2.9L6.1,4.4C5.2,3.7,3.9,3.6,2.8,4
	C1.2,4.6,0.1,6.2,0.2,7.9c0,0.3,0,0.6,0.1,0.9c0.2,1.5,1.2,2.8,2.7,3.3c0.4,0.1,0.8,0.2,1.2,0.2c1,0,1.9-0.4,2.6-1.1l5.4-5.2
	c0.6-0.6,1.5-0.8,2.3-0.6c0.9,0.3,1.5,1.1,1.7,2.1c0,0.2,0.1,0.5,0,0.7c0,1.1-0.6,2.1-1.6,2.5c-0.9,0.3-1.8,0.1-2.4-0.6l-1.2-1.4
	l-1.1,1L11,11c1,1.2,2.6,1.6,4.1,1.1c1.6-0.6,2.6-2.2,2.6-4C17.7,7.8,17.7,7.5,17.6,7.2z"/>
</svg>
