<svg xmlns="http://www.w3.org/2000/svg" viewBox="0 0 17 17">
  <title>war-pkg</title>
  <g stroke="none" stroke-width="1" fill="none" fill-rule="evenodd">
    <g id="上传" transform="translate(-105.000000, -564.000000)" fill="#262626" fill-rule="nonzero">
      <g transform="translate(105.000000, 564.000000)">
        <path
          d="M16.5432667,3.95478098 L8.89213333,0.0932192256 C8.64748577,-0.0302939108 8.3560839,-0.0311118619 8.1107,0.0910257796 L0.461833333,3.89281613 C0.178284505,4.03352373 -3.27485304e-05,4.31596678 0,4.62433038 L0,12.4867377 C0,12.7987554 0.182466667,13.0839034 0.4709,13.2231872 L8.1209,16.9136602 C8.35963428,17.0287799 8.64036572,17.0287799 8.8791,16.9136602 L16.5291,13.2231872 C16.8175328,13.0841024 16.9998819,12.7991355 17,12.4872861 L17,4.68465015 C17,4.3775677 16.8237667,4.09680661 16.5432667,3.95478098 Z M8.43596667,7.67212365 L5.5641,6.30451005 L12.0694333,2.93373185 L14.8744333,4.34960126 L8.43596667,7.67212365 L8.43596667,7.67212365 Z M8.49773333,1.13126756 L10.8528,2.32011532 L4.3129,5.70898945 L1.74703333,4.48669164 L8.49773333,1.13126756 Z M1.13333333,5.41726112 L3.84653333,6.70920084 L3.84653333,9.59248566 C3.84653333,9.89533736 4.10023864,10.1408472 4.4132,10.1408472 C4.72616136,10.1408472 4.97986667,9.89533736 4.97986667,9.59248566 L4.97986667,7.24933693 L7.93333333,8.65478748 L7.93333333,15.5981409 L1.13333333,12.317294 L1.13333333,5.41726112 Z M9.06666667,15.5981409 L9.06666667,8.5889841 L15.8666667,5.08056716 L15.8666667,12.317294 L9.06666667,15.5981409 Z"
          id="Shape"></path>
      </g>
    </g>
  </g>
</svg>
