<svg xmlns="http://www.w3.org/2000/svg" viewBox="0 0 16 16">
  <title> node</title>
  <path d="M14.5,1H1.5a.5.5,0,0,0-.5.5v3a.5.5,0,0,0,.5.5h13a.5.5,0,0,0,.5-.5v-3A.5.5,0,0,0,14.5,1ZM3.5,3.5h-1v-1h1Zm4.75.25h-.5v-.5h.5Zm0-1h-.5v-.5h.5Zm1,1h-.5v-.5h.5Zm0-1h-.5v-.5h.5Zm1,1h-.5v-.5h.5Zm0-1h-.5v-.5h.5Zm1,1h-.5v-.5h.5Zm0-1h-.5v-.5h.5Zm1,1h-.5v-.5h.5Zm0-1h-.5v-.5h.5Zm1,1h-.5v-.5h.5ZM14.5,11a.5.5,0,0,1,.5.5h0v3a.5.5,0,0,1-.5.5H1.5a.5.5,0,0,1-.5-.5H1v-3a.5.5,0,0,1,.5-.5h13ZM8.25,13.25h-.5v.5h.5Zm1,0h-.5v.5h.5Zm1,0h-.5v.5h.5Zm1,0h-.5v.5h.5Zm1,0h-.5v.5h.5Zm1,0h-.5v.5h.5ZM3.5,12.5h-1v1h1Zm4.75-.25h-.5v.5h.5Zm1,0h-.5v.5h.5Zm1,0h-.5v.5h.5Zm1,0h-.5v.5h.5Zm1,0h-.5v.5h.5Zm1,0h-.5v.5h.5ZM14.5,6a.5.5,0,0,1,.5.5h0v3a.5.5,0,0,1-.5.5H1.5A.5.5,0,0,1,1,9.5H1v-3A.5.5,0,0,1,1.5,6h13ZM8.25,8.25h-.5v.5h.5Zm1,0h-.5v.5h.5Zm1,0h-.5v.5h.5Zm1,0h-.5v.5h.5Zm1,0h-.5v.5h.5Zm1,0h-.5v.5h.5ZM3.5,7.5h-1v1h1Zm4.75-.25h-.5v.5h.5Zm1,0h-.5v.5h.5Zm1,0h-.5v.5h.5Zm1,0h-.5v.5h.5Zm1,0h-.5v.5h.5Zm1,0h-.5v.5h.5Zm0-5v.5h-.5v-.5Z"/>
</svg>
