<?xml version="1.0" encoding="utf-8"?>
<!-- Generator: Adobe Illustrator 23.0.0, SVG Export Plug-In . SVG Version: 6.00 Build 0)  -->
<svg version="1.1" id="图层_1" xmlns="http://www.w3.org/2000/svg" xmlns:xlink="http://www.w3.org/1999/xlink" x="0px" y="0px"
	 viewBox="0 0 200 200" style="enable-background:new 0 0 200 200;" xml:space="preserve">
<g>
	<path d="M106.5,144v12.2c-0.3,3.1-3.1,5.5-6.2,5.2c-0.1,0-0.2,0-0.3,0c-3.1,0.5-6-1.7-6.5-4.8c0-0.1,0-0.2,0-0.3V144
		c-7.5-3.6-10.7-12.6-7.1-20.1c3.6-7.5,12.6-10.7,20.1-7.1c7.5,3.6,10.7,12.6,7.1,20.1C112.1,140,109.6,142.5,106.5,144L106.5,144z
		 M174.6,112.3V94.1c-0.3-10-8.6-17.9-18.6-17.6H44c-10-0.3-18.3,7.6-18.6,17.6v81c0.3,10,8.6,17.9,18.6,17.6c0,0,0,0,0,0h112
		c10,0.3,18.3-7.6,18.6-17.6v-5.7h-24.4v-9.8h24.4v-13.2h-24.4v-9.7h24.4v-14.6h-24.4v-9.8H174.6z"/>
	<path d="M61.1,51.6c0.1-16.2,13.2-29.2,29.3-29.3h19c16.2,0,29.4,13.2,29.4,29.4v20.6h20.8V45.2c0-22.1-17.9-40-40-40H80.5
		c-22.1,0-40,17.9-40,40v26.8h20.7L61.1,51.6z"/>
</g>
</svg>
