<svg xmlns="http://www.w3.org/2000/svg" xmlns:xlink="http://www.w3.org/1999/xlink" viewBox="0 0 200 200">
  <defs>
    <linearGradient id="a" y1="200" x2="200" gradientUnits="userSpaceOnUse">
      <stop offset="0" stop-color="#3890ff"/>
      <stop offset="1" stop-color="#7354e2"/>
    </linearGradient>
  </defs>
  <title>icon</title>
  <rect width="200" height="200" fill="url(#a)"/>
  <path d="M93,114.071L93,171a2,2,0,0,1-2,2H29a2,2,0,0,1-2-2V109a2,2,0,0,1,2-2H85.929l4-4H27a4,4,0,0,0-4,4v66a4,4,0,0,0,4,4H93a4,4,0,0,0,4-4V110.071Z" fill="#fff"/>
  <polygon points="47 132.372 47 147.628 60 155.211 73 147.628 73 132.372 60 124.789 47 132.372" fill="#fff" opacity="0.3"/>
  <path d="M60,163a2,2,0,0,1-1.008-.272l-18-10.5A2,2,0,0,1,40,150.5v-21a2,2,0,0,1,.992-1.728l18-10.5a2,2,0,0,1,2.016,0l18,10.5A2,2,0,0,1,80,129.5v21a2,2,0,0,1-.992,1.728l-18,10.5A2,2,0,0,1,60,163ZM44,149.351l16,9.333,16-9.333v-18.7l-16-9.333-16,9.333v18.7Z" fill="#fff"/>
  <polygon points="127 52.372 127 67.628 140 75.211 153 67.628 153 52.372 140 44.789 127 52.372" fill="#fff" opacity="0.3"/>
  <path d="M140,83a2,2,0,0,1-1.008-.272l-18-10.5A2,2,0,0,1,120,70.5v-21a2,2,0,0,1,.992-1.728l18-10.5a2,2,0,0,1,2.016,0l18,10.5A2,2,0,0,1,160,49.5v21a2,2,0,0,1-.992,1.728l-18,10.5A2,2,0,0,1,140,83ZM124,69.351l16,9.333,16-9.333v-18.7l-16-9.333-16,9.333v18.7Z" fill="#fff"/>
  <path d="M173,23H107a4,4,0,0,0-4,4V89.929l4-4V29a2,2,0,0,1,2-2h62a2,2,0,0,1,2,2l0,62a2,2,0,0,1-2,2H114.071l-4,4H173a4,4,0,0,0,4-4V27A4,4,0,0,0,173,23Z" fill="#fff"/>
  <polygon points="121.295 75.877 75.133 122.039 78.705 124.123 124.867 77.961 121.295 75.877" fill="#fff"/>
</svg>
