<?xml version="1.0" encoding="utf-8"?>
<!-- Generator: Adobe Illustrator 23.0.0, SVG Export Plug-In . SVG Version: 6.00 Build 0)  -->
<svg version="1.1" id="图层_1" xmlns="http://www.w3.org/2000/svg" xmlns:xlink="http://www.w3.org/1999/xlink" x="0px" y="0px"
	 viewBox="0 0 50 50" style="enable-background:new 0 0 50 50;" xml:space="preserve">
<style type="text/css">
	.st0{fill:#6666FF;}
	.st1{fill:#FFFFFF;}
</style>
<title>Group</title>
<desc>Created with Sketch.</desc>
<g id="Page-1">
	<g id="Group">
		<g id="icon_deployment-config">
			<rect id="Rectangle" class="st0" width="50" height="50"/>
		</g>
		<g>
			<path class="st1" d="M37,15v24H13V11h20V9H13c-1.1,0-2,0.9-2,2v28c0,1.1,0.9,2,2,2h24c1.1,0,2-0.9,2-2V15H37z"/>
			<polygon class="st1" points="25.5,26.1 25.5,32.6 31,29.4 31,22.9 			"/>
			<polygon class="st1" points="25,25.3 30.5,22.1 25,18.9 19.5,22.1 			"/>
			<polygon class="st1" points="24.5,26.1 19,22.9 19,29.4 24.5,32.6 			"/>
			<path class="st1" d="M34,9v2.9c0,1.2,0.9,2.1,2.1,2.1l0,0H39L34,9z"/>
		</g>
	</g>
</g>
</svg>
