<svg xmlns="http://www.w3.org/2000/svg" viewBox="0 0 225 18">
  <defs>
    <style>
      .a {
        fill: #9aa1ad;
      }

      .b {
        fill: #c9cfd7;
      }
    </style>
  </defs>
  <title>DaoCloud Service Platform</title>
  <g>
    <path class="a" d="M35.179,4.273a4.4,4.4,0,0,1,3.406,1.261,4.783,4.783,0,0,1,1.092,3.38,4.84,4.84,0,0,1-1.117,3.394,4.442,4.442,0,0,1-3.407,1.248H31.8V4.273Zm-1.963,8.074h1.677A3.493,3.493,0,0,0,37.48,11.5a3.628,3.628,0,0,0,.807-2.587,3.662,3.662,0,0,0-.793-2.6,3.467,3.467,0,0,0-2.575-.832h-1.7Z"/>
    <path class="a" d="M46.2,7.393a2.638,2.638,0,0,1,.611,1.872v4.291H45.54v-.95a2.788,2.788,0,0,1-.975.806,3.63,3.63,0,0,1-1.56.325,2.36,2.36,0,0,1-1.638-.533,1.675,1.675,0,0,1-.637-1.365,1.975,1.975,0,0,1,.9-1.741,4.144,4.144,0,0,1,2.314-.612l1.508-.039V9.174q0-1.4-1.521-1.4A2.02,2.02,0,0,0,42.888,8a1.192,1.192,0,0,0-.585.832l-1.365-.117a2.293,2.293,0,0,1,1.079-1.612,3.745,3.745,0,0,1,2-.455A2.881,2.881,0,0,1,46.2,7.393Zm-2.171,3.094c-1.261.027-1.885.468-1.885,1.3a.763.763,0,0,0,.325.638,1.311,1.311,0,0,0,.845.26,2.24,2.24,0,0,0,1.495-.534,1.667,1.667,0,0,0,.637-1.313v-.39Z"/>
    <path class="a" d="M53.925,7.666a3.649,3.649,0,0,1,.91,2.535,3.573,3.573,0,0,1-.9,2.509,3.453,3.453,0,0,1-4.914,0,3.573,3.573,0,0,1-.9-2.509,3.59,3.59,0,0,1,.91-2.535,3.452,3.452,0,0,1,4.888,0ZM50,8.537a2.766,2.766,0,0,0-.455,1.664A2.73,2.73,0,0,0,50,11.853a1.723,1.723,0,0,0,1.482.753,1.762,1.762,0,0,0,1.495-.753,2.788,2.788,0,0,0,.468-1.652,2.77,2.77,0,0,0-.468-1.664,1.731,1.731,0,0,0-1.495-.754A1.694,1.694,0,0,0,50,8.537Z"/>
    <path class="a" d="M62.986,4.936a3.441,3.441,0,0,1,1.235,2.236H62.843a2.265,2.265,0,0,0-.9-1.391,2.885,2.885,0,0,0-1.664-.442A2.624,2.624,0,0,0,58.02,6.366a4.1,4.1,0,0,0-.715,2.561,4.172,4.172,0,0,0,.7,2.588A3.149,3.149,0,0,0,62,11.982a2.874,2.874,0,0,0,.975-1.637h1.378A4.1,4.1,0,0,1,62.9,12.879a3.992,3.992,0,0,1-2.574.858,4.133,4.133,0,0,1-3.432-1.456,5.158,5.158,0,0,1-1-3.354,5.183,5.183,0,0,1,1.04-3.367,4.031,4.031,0,0,1,3.38-1.469A4.1,4.1,0,0,1,62.986,4.936Z"/>
    <path class="a" d="M67.185,4.091v9.465H65.807V4.091Z"/>
    <path class="a" d="M74.439,7.666a3.649,3.649,0,0,1,.91,2.535,3.573,3.573,0,0,1-.9,2.509,3.453,3.453,0,0,1-4.914,0,3.569,3.569,0,0,1-.9-2.509,3.586,3.586,0,0,1,.91-2.535,3.452,3.452,0,0,1,4.888,0Zm-3.926.871a2.766,2.766,0,0,0-.455,1.664,2.73,2.73,0,0,0,.455,1.652A1.723,1.723,0,0,0,72,12.606a1.762,1.762,0,0,0,1.495-.753,2.788,2.788,0,0,0,.468-1.652,2.77,2.77,0,0,0-.468-1.664A1.731,1.731,0,0,0,72,7.783,1.694,1.694,0,0,0,70.513,8.537Z"/>
    <path class="a" d="M78.04,6.834v4.1a1.772,1.772,0,0,0,.363,1.248,1.5,1.5,0,0,0,1.158.4,1.463,1.463,0,0,0,1-.441,2.376,2.376,0,0,0,.649-1.2V6.834h1.378v6.722H81.211v-.91a2.6,2.6,0,0,1-2.119,1.091c-1.625,0-2.43-.91-2.43-2.716V6.834Z"/>
    <path class="a" d="M90.376,4.091v9.465H89.089v-.807a2.417,2.417,0,0,1-2.08.988,2.814,2.814,0,0,1-2.327-1.052,3.932,3.932,0,0,1-.78-2.523,3.8,3.8,0,0,1,.767-2.457,2.731,2.731,0,0,1,2.275-1.053A2.424,2.424,0,0,1,89,7.835V4.091ZM85.749,8.459a2.856,2.856,0,0,0-.43,1.7,3.126,3.126,0,0,0,.4,1.73,1.668,1.668,0,0,0,1.5.727,1.623,1.623,0,0,0,1.391-.715,2.9,2.9,0,0,0,.43-1.651v-.116a2.825,2.825,0,0,0-.52-1.756,1.545,1.545,0,0,0-1.262-.611A1.7,1.7,0,0,0,85.749,8.459Z"/>
    <path class="a" d="M102.011,4.806a3.036,3.036,0,0,1,1.067,2.21h-1.054a2.343,2.343,0,0,0-.78-1.495,2.713,2.713,0,0,0-1.755-.494,3.138,3.138,0,0,0-1.613.338,1.286,1.286,0,0,0,.131,2.314,10.8,10.8,0,0,0,1.7.585,12.51,12.51,0,0,1,2.418.9,2.19,2.19,0,0,1,1.157,1.963,2.256,2.256,0,0,1-.975,1.925,4.5,4.5,0,0,1-2.626.688,4.2,4.2,0,0,1-2.574-.7A3.307,3.307,0,0,1,95.9,10.487h1.053a2.55,2.55,0,0,0,.845,1.782,3,3,0,0,0,1.885.519,3.518,3.518,0,0,0,1.846-.429,1.312,1.312,0,0,0,.7-1.17,1.507,1.507,0,0,0-.923-1.365,11.153,11.153,0,0,0-1.963-.676,15.538,15.538,0,0,1-2.132-.754A1.963,1.963,0,0,1,96.148,6.6a2.117,2.117,0,0,1,1.027-1.885,4.131,4.131,0,0,1,2.366-.624A3.848,3.848,0,0,1,102.011,4.806Z"/>
    <path class="a" d="M109.72,7.744a4.645,4.645,0,0,1,.78,2.743h-5.3a2.892,2.892,0,0,0,.611,1.755,1.9,1.9,0,0,0,1.508.624,2.08,2.08,0,0,0,1.339-.416,2.343,2.343,0,0,0,.676-1.053h1.04a3.03,3.03,0,0,1-.911,1.586,3.118,3.118,0,0,1-2.144.754A3.011,3.011,0,0,1,105,12.788a3.671,3.671,0,0,1-.883-2.6,3.67,3.67,0,0,1,.844-2.483,2.825,2.825,0,0,1,2.315-1.053A2.866,2.866,0,0,1,109.72,7.744Zm-3.861.364a2.591,2.591,0,0,0-.637,1.573h4.2c-.13-1.443-.845-2.158-2.119-2.158A1.881,1.881,0,0,0,105.859,8.108Z"/>
    <path class="a" d="M115.6,6.808v1.04a3.388,3.388,0,0,0-1-.143,1.578,1.578,0,0,0-1.313.689,2.425,2.425,0,0,0-.533,1.6v3.563h-1.027V6.834h1.027V8a2.451,2.451,0,0,1,.7-.923,1.869,1.869,0,0,1,1.222-.429A2.4,2.4,0,0,1,115.6,6.808Z"/>
    <path class="a" d="M116.869,6.834l1.924,5.421,1.925-5.421h1.143l-2.548,6.722h-1.052l-2.535-6.722Z"/>
    <path class="a" d="M124.148,4.52a.669.669,0,0,1,.235.546.753.753,0,0,1-.235.559.816.816,0,0,1-1.117,0,.744.744,0,0,1-.221-.559.663.663,0,0,1,.221-.546.816.816,0,0,1,1.117,0Zm-.038,2.314v6.722h-1.041V6.834Z"/>
    <path class="a" d="M130.961,7.237a2.678,2.678,0,0,1,.949,1.833h-1.027a1.836,1.836,0,0,0-.624-1.17,2.058,2.058,0,0,0-1.3-.377,1.846,1.846,0,0,0-1.547.741,3.157,3.157,0,0,0-.546,1.95,3.088,3.088,0,0,0,.533,1.937,1.829,1.829,0,0,0,1.547.715,1.794,1.794,0,0,0,1.963-1.742h1.04a3.232,3.232,0,0,1-1,1.963,2.984,2.984,0,0,1-2,.65,2.88,2.88,0,0,1-2.353-1.013,3.76,3.76,0,0,1-.793-2.5,3.818,3.818,0,0,1,.793-2.51,2.864,2.864,0,0,1,2.366-1.066A3.187,3.187,0,0,1,130.961,7.237Z"/>
    <path class="a" d="M138.385,7.744a4.638,4.638,0,0,1,.779,2.743h-5.3a2.886,2.886,0,0,0,.612,1.755,1.9,1.9,0,0,0,1.507.624,2.08,2.08,0,0,0,1.339-.416,2.343,2.343,0,0,0,.676-1.053h1.04a3.028,3.028,0,0,1-.91,1.586,3.121,3.121,0,0,1-2.145.754,3.009,3.009,0,0,1-2.314-.949,3.667,3.667,0,0,1-.884-2.6,3.671,3.671,0,0,1,.845-2.483,2.825,2.825,0,0,1,2.314-1.053A2.867,2.867,0,0,1,138.385,7.744Zm-3.862.364a2.584,2.584,0,0,0-.636,1.573h4.2c-.13-1.443-.845-2.158-2.118-2.158A1.883,1.883,0,0,0,134.523,8.108Z"/>
    <path class="a" d="M148.642,4.273q3.2,0,3.2,2.73c0,1.833-1.079,2.756-3.212,2.756h-2.717v3.8h-1.066V4.273Zm-2.731,4.563h2.665a2.569,2.569,0,0,0,1.664-.455A1.7,1.7,0,0,0,150.773,7a1.586,1.586,0,0,0-.545-1.352,2.484,2.484,0,0,0-1.652-.455h-2.665Z"/>
    <path class="a" d="M154.3,4.091v9.465h-1.027V4.091Z"/>
    <path class="a" d="M161.173,7.406a2.685,2.685,0,0,1,.6,1.833v4.317H160.8V12.425a3.136,3.136,0,0,1-1.027.9,3.4,3.4,0,0,1-1.677.416,2.424,2.424,0,0,1-1.613-.507,1.693,1.693,0,0,1-.624-1.352,1.9,1.9,0,0,1,.923-1.729,4.31,4.31,0,0,1,2.341-.572l1.611-.026V9.2c0-1.131-.584-1.69-1.754-1.69a2.137,2.137,0,0,0-1.209.3,1.458,1.458,0,0,0-.676.962l-1.028-.078A2.311,2.311,0,0,1,157.1,7.12a3.558,3.558,0,0,1,1.937-.468A2.749,2.749,0,0,1,161.173,7.406Zm-1.989,2.951c-1.508.026-2.262.52-2.262,1.5a.924.924,0,0,0,.377.766,1.645,1.645,0,0,0,1.013.3A2.543,2.543,0,0,0,160,12.294a1.8,1.8,0,0,0,.727-1.391v-.572Z"/>
    <path class="a" d="M165.177,6.834h1.664v.871h-1.664v4.277a.753.753,0,0,0,.142.534.647.647,0,0,0,.494.169h.858v.871h-1.014a1.456,1.456,0,0,1-1.182-.43,1.711,1.711,0,0,1-.326-1.144V7.705H162.8V6.834h1.352V5.092l1.028-.429Z"/>
    <path class="a" d="M171.976,4.273v.9h-1.158a.79.79,0,0,0-.636.221,1.03,1.03,0,0,0-.2.7v.741h1.9v.871h-1.9v5.851h-1.04V7.705h-1.689V6.834h1.689V6.067a1.858,1.858,0,0,1,.43-1.313,1.7,1.7,0,0,1,1.312-.481Z"/>
    <path class="a" d="M178.254,7.692a3.7,3.7,0,0,1,.858,2.509,3.693,3.693,0,0,1-.844,2.484,3.05,3.05,0,0,1-2.418,1.052,2.987,2.987,0,0,1-2.406-1.052,3.632,3.632,0,0,1-.858-2.484,3.7,3.7,0,0,1,.858-2.509,3.3,3.3,0,0,1,4.81,0Zm-4.068.65a3.021,3.021,0,0,0-.534,1.859,3,3,0,0,0,.534,1.846,1.923,1.923,0,0,0,1.664.819,2,2,0,0,0,1.676-.819,3.124,3.124,0,0,0,.534-1.846,3.114,3.114,0,0,0-.534-1.859,2,2,0,0,0-1.676-.819A1.926,1.926,0,0,0,174.186,8.342Z"/>
    <path class="a" d="M184.339,6.808v1.04a3.4,3.4,0,0,0-1-.143,1.578,1.578,0,0,0-1.313.689,2.425,2.425,0,0,0-.533,1.6v3.563h-1.027V6.834h1.027V8a2.451,2.451,0,0,1,.7-.923,1.869,1.869,0,0,1,1.222-.429A2.407,2.407,0,0,1,184.339,6.808Z"/>
    <path class="a" d="M190.254,7.926a2.47,2.47,0,0,1,.935-.962,2.143,2.143,0,0,1,1.184-.312,2.29,2.29,0,0,1,1.7.663,2.619,2.619,0,0,1,.638,1.833v4.408h-1.04V9.317a1.993,1.993,0,0,0-.377-1.326,1.531,1.531,0,0,0-1.248-.455,1.384,1.384,0,0,0-1.106.494,1.842,1.842,0,0,0-.455,1.313v4.213h-1.04V9.317c0-1.2-.519-1.781-1.547-1.781a1.432,1.432,0,0,0-1.182.572,2.008,2.008,0,0,0-.469,1.352v4.1h-1.04V6.834h1.04v.9a2.244,2.244,0,0,1,1.9-1.079A2.086,2.086,0,0,1,190.254,7.926Z"/>
  </g>
  <rect class="b" x="202.669" y="9.244" width="20" height="1"/>
  <rect class="b" x="2.704" y="9.244" width="20" height="1"/>
</svg>
