<?xml version="1.0" encoding="UTF-8" standalone="no"?>
<svg xmlns="http://www.w3.org/2000/svg" xmlns:xlink="http://www.w3.org/1999/xlink" width="50px" height="50px"
     viewBox="0 0 50 50" version="1.1">
  <g id="surface222671">
    <path
          d="M 25 1 L 4 13 L 4 37 L 25 49 L 46 37 L 46 13 Z M 25 5.609375 L 42 15.320312 L 42 34.679688 L 25 44.390625 L 8 34.679688 L 8 15.320312 Z M 24 8.484375 L 10 16.484375 L 10 32.515625 L 15.910156 29.140625 L 16.847656 30.78125 L 11.023438 34.101562 L 25 42.089844 L 38.976562 34.101562 L 33.152344 30.78125 L 34.089844 29.140625 L 40 32.515625 L 40 16.484375 L 26 8.484375 L 26 15 L 24 15 Z M 13 18 L 37 18 L 25 39 Z M 18.171875 20 L 25.003906 23.855469 L 31.960938 20 Z M 17.5625 21.953125 L 24 33.21875 L 24 25.582031 Z M 32.378906 22.054688 L 26 25.589844 L 26 33.21875 Z M 32.378906 22.054688 "/>
  </g>
</svg>
