<svg class="icon"
     viewBox="0 0 1024 1024"
     version="1.1"
     xmlns="http://www.w3.org/2000/svg"
     width="200" height="200">
    <path d="M367.87506172 115.09866143H138.5245417a76.74764502 76.74764502 0 0 0-76.30143837 75.85523086v230.24293505a76.74764502 76.74764502 0 0 0 76.30143837 75.85522998h228.01189834a76.3014375 76.3014375 0 0 0 75.85523086-75.85522998V192.7387206a76.3014375 76.3014375 0 0 0-75.85523086-75.85522998m0 466.732771H138.5245417a76.74764502 76.74764502 0 0 0-76.30143837 75.85523086v228.01189834a77.19385253 77.19385253 0 0 0 76.30143837 74.51660918h228.01189834a76.74764502 76.74764502 0 0 0 75.85523086-76.3014375v-228.01189922a76.3014375 76.3014375 0 0 0-75.85523086-75.85523086m466.73277188 0a76.3014375 76.3014375 0 0 1 75.85522998 75.85523086v228.01189922a76.74764502 76.74764502 0 0 1-75.85522998 76.3014375h-228.45810674a76.74764502 76.74764502 0 0 1-75.85522998-76.3014375v-228.01189922a76.3014375 76.3014375 0 0 1 75.85522998-75.85523086z m105.30490781-331.97818534a78.0862667 78.0862667 0 0 1 0 108.8745662l-164.20426348 164.20426435a76.3014375 76.3014375 0 0 1-108.87456621 0L501.29102656 358.72781328a79.42488838 79.42488838 0 0 1-22.31036191-55.32969726 83.44075342 83.44075342 0 0 1 22.31036191-55.32969727L665.49529004 83.8641544a78.0862667 78.0862667 0 0 1 108.87456621 0z m-211.05602315 211.05602401l164.20426348-164.20426347-164.20426348-164.20426436-164.20426435 164.20426436z">
    </path>
</svg>
