<svg id="icon_app-center-big" data-name="icon app-center-big" xmlns="http://www.w3.org/2000/svg" viewBox="0 0 51.95 51.95"><defs><style>.cls-1{opacity:0.25;}.cls-1,.cls-2,.cls-3{isolation:isolate;}.cls-2{opacity:0.5;}.cls-3{opacity:0.9;}</style></defs><title>icon_deploymentconfigs</title><polygon class="cls-1" points="25.98 25.98 25.98 37.64 15.97 31.81 15.97 20.14 25.98 25.98"/><polygon class="cls-2" points="25.98 25.98 35.98 20.14 35.98 31.81 25.98 37.64 25.98 25.98"/><polygon class="cls-3" points="15.97 20.14 25.98 14.31 35.98 20.14 25.98 25.98 15.97 20.14"/><path class="cls-3" d="M14.05,31A18,18,0,0,1,31,14.05V6A26,26,0,0,0,6,31Z" transform="translate(-6.03 -6.03)"/><path class="cls-2" d="M33,14.05A18,18,0,0,1,50,31h8A26,26,0,0,0,33,6Z" transform="translate(-6.03 -6.03)"/><path class="cls-1" d="M50,33A18,18,0,0,1,33,50v8A26,26,0,0,0,58,33Z" transform="translate(-6.03 -6.03)"/><path class="cls-2" d="M31,50A18,18,0,0,1,14.05,33H6A26,26,0,0,0,31,58Z" transform="translate(-6.03 -6.03)"/></svg>