<svg id="icon_app-center-big" data-name="icon app-center-big" xmlns="http://www.w3.org/2000/svg" viewBox="0 0 64 64"><defs><style>.cls-1{fill:#448aff;}.cls-2,.cls-3,.cls-4{fill:#fff;isolation:isolate;}.cls-2{opacity:0.25;}.cls-3{opacity:0.5;}.cls-4{opacity:0.9;}</style></defs><title>icon_deploymentconfigs-logo</title><rect class="cls-1" width="64" height="64"/><polygon class="cls-2" points="32 32 32 43.67 22 37.83 22 26.17 32 32"/><polygon class="cls-3" points="32 32 42 26.17 42 37.83 32 43.67 32 32"/><polygon class="cls-4" points="22 26.17 32 20.33 42 26.17 32 32 22 26.17"/><path class="cls-4" d="M14.05,31A18,18,0,0,1,31,14.05V6A26,26,0,0,0,6,31Z"/><path class="cls-3" d="M33,14.05A18,18,0,0,1,50,31h8A26,26,0,0,0,33,6Z"/><path class="cls-2" d="M50,33A18,18,0,0,1,33,50v8A26,26,0,0,0,58,33Z"/><path class="cls-3" d="M31,50A18,18,0,0,1,14.05,33H6A26,26,0,0,0,31,58Z"/></svg>