<?xml version="1.0" encoding="UTF-8"?>
<svg width="178px" height="178px" viewBox="0 0 178 178" version="1.1" xmlns="http://www.w3.org/2000/svg" xmlns:xlink="http://www.w3.org/1999/xlink">
    <g id="Page-1" stroke="none" stroke-width="1" fill="none" fill-rule="evenodd">
        <g id="Group" transform="translate(1.000000, 1.000000)">
            <rect id="Rectangle" stroke="#5655BF" fill="#7167BC" x="0" y="0" width="176" height="176"></rect>
            <g id="icon_bell_copy" transform="translate(38.000000, 30.000000)" fill="#FFFFFF" fill-rule="nonzero">
                <path d="M88.4615385,73.9314516 L88.4615385,45.2016129 C88.4531734,27.6497488 75.2061129,12.9058505 57.6923077,10.9556452 L57.6923077,7.66129032 C57.6923077,3.43007651 54.2483442,0 50,0 C45.7516558,0 42.3076923,3.43007651 42.3076923,7.66129032 L42.3076923,10.9556452 C24.7938871,12.9058505 11.5468266,27.6497488 11.5384615,45.2016129 L11.5384615,73.9314516 C11.5384615,80.2782723 6.37251634,85.4233871 0,85.4233871 L0,95 L100,95 L100,85.4233871 C93.6274837,85.4233871 88.4615385,80.2782723 88.4615385,73.9314516 Z" id="Path"></path>
                <path d="M64,103 C64,110.731987 57.7319864,117 50,117 C42.2680136,117 36,110.731987 36,103 L64,103 Z" id="Path"></path>
            </g>
        </g>
    </g>
</svg>
