<svg xmlns="http://www.w3.org/2000/svg" viewBox="0 0 119 110">
<path fill-rule="evenodd"  fill="rgb(204, 209, 217)"
 d="M110.500,-0.000 L8.500,-0.000 C3.804,-0.000 -0.000,3.768 -0.000,8.420 L-0.000,79.988 C-0.000,84.640 3.804,88.407 8.500,88.407 L29.750,88.407 L29.750,110.000 L58.046,88.407 L110.500,88.407 C115.196,88.407 119.000,84.640 119.000,79.988 L119.000,8.420 C119.000,3.768 115.196,-0.000 110.500,-0.000 ZM29.750,50.519 C25.054,50.519 21.250,46.751 21.250,42.099 C21.250,37.451 25.054,33.679 29.750,33.679 C34.446,33.679 38.250,37.447 38.250,42.099 C38.250,46.751 34.446,50.519 29.750,50.519 ZM59.500,50.519 C54.804,50.519 51.000,46.751 51.000,42.099 C51.000,37.451 54.804,33.679 59.500,33.679 C64.196,33.679 68.000,37.447 68.000,42.099 C68.000,46.751 64.196,50.519 59.500,50.519 ZM89.250,50.519 C84.554,50.519 80.750,46.751 80.750,42.099 C80.750,37.451 84.554,33.679 89.250,33.679 C93.946,33.679 97.750,37.447 97.750,42.099 C97.750,46.751 93.946,50.519 89.250,50.519 Z"/>
</svg>
