<?xml version="1.0" encoding="utf-8"?>
<!-- Generator: Adobe Illustrator 23.0.0, SVG Export Plug-In . SVG Version: 6.00 Build 0)  -->
<svg version="1.1" id="图层_1" xmlns="http://www.w3.org/2000/svg" xmlns:xlink="http://www.w3.org/1999/xlink" x="0px" y="0px"
	 viewBox="0 0 50 50" style="enable-background:new 0 0 50 50;" xml:space="preserve">
<style type="text/css">
	.st0{fill:#F390B1;}
	.st1{fill:#FFFFFF;}
</style>
<title>Group</title>
<desc>Created with Sketch.</desc>
<g id="Page-1">
	<g id="Group">
		<g id="icon_deployment-config">
			<rect id="Rectangle" class="st0" width="50" height="50"/>
		</g>
		<path class="st1" d="M37.5,27.1l1.2-1.2l-2.1-2.1L35.4,25c-0.8-0.6-1.7-0.9-2.7-1.1v-1.7h-3v1.7c-0.9,0.2-1.8,0.6-2.7,1.1
			l-1.2-1.2l-2.1,2.1l1.2,1.2c-0.5,0.8-0.9,1.7-1.1,2.7H22v3h1.7c0.2,0.9,0.6,1.8,1.1,2.7l-1.2,1.1l2.1,2.1l1.2-1.2
			c0.8,0.6,1.7,0.9,2.7,1.1v1.7h3v-1.5c0.9-0.2,1.8-0.6,2.7-1.1l1.2,1.2l2.1-2.1l-1.2-1.2c0.5-0.8,0.9-1.7,1.1-2.7h1.7v-3h-1.7
			C38.4,28.8,38,27.9,37.5,27.1L37.5,27.1z M31.1,36c-2.4,0-4.6-2.1-4.6-4.6c0-2.6,2.1-4.6,4.6-4.6c2.6,0,4.6,2,4.6,4.6
			C35.7,33.8,33.7,36,31.1,36z M22,12.8l-1.5-3H9.8v30.5H22v-3h-9.1V18.9h24.4v3h3v-9.1H22z"/>
	</g>
</g>
</svg>
