<?xml version="1.0" encoding="utf-8"?>
<!-- Generator: Adobe Illustrator 23.0.0, SVG Export Plug-In . SVG Version: 6.00 Build 0)  -->
<svg version="1.1" id="图层_1" xmlns="http://www.w3.org/2000/svg" xmlns:xlink="http://www.w3.org/1999/xlink" x="0px" y="0px"
	 viewBox="0 0 50 50" style="enable-background:new 0 0 50 50;" xml:space="preserve">
<style type="text/css">
	.st0{fill:#FECB3D;}
	.st1{fill:#FFFFFF;}
	.st2{opacity:0.3;fill:#FECB3D;}
</style>
<title>Group 3</title>
<desc>Created with Sketch.</desc>
<g id="Page-1">
	<g id="Group-3">
		<g id="Group">
			<g id="icon_deployment-config">
				<rect id="Rectangle" y="0" class="st0" width="50" height="50"/>
			</g>
			<g id="Group-2" transform="translate(12.000000, 12.000000)">
				<polygon id="Path" class="st1" points="26,14.6 0,14.6 0,26 26,26 				"/>
				<path class="st2" d="M6.2,23.4c-1.7,0-3.1-1.4-3.1-3.1s1.4-3.1,3.1-3.1s3.1,1.4,3.1,3.1S8,23.4,6.2,23.4z"/>
				<polygon class="st1" points="26,0 0,0 0,11.4 26,11.4 				"/>
				<path class="st2" d="M6.2,8.8c-1.7,0-3.1-1.4-3.1-3.2s1.4-3.1,3.1-3.1s3.1,1.4,3.1,3.1S8,8.8,6.2,8.8z"/>
			</g>
		</g>
	</g>
</g>
</svg>
