<?xml version="1.0" standalone="no"?><!DOCTYPE svg PUBLIC "-//W3C//DTD SVG 1.1//EN" "http://www.w3.org/Graphics/SVG/1.1/DTD/svg11.dtd"><svg t="1557748888676" class="icon" style="" viewBox="0 0 1024 1024" version="1.1" xmlns="http://www.w3.org/2000/svg" p-id="4213" xmlns:xlink="http://www.w3.org/1999/xlink" width="200" height="200"><defs><style type="text/css"></style></defs><path d="M512.847644 14.222222c-274.665244 0-497.777778 223.112533-497.777777 497.777778s223.112533 497.777778 497.777777 497.777778 497.777778-223.112533 497.777778-497.777778S787.518578 14.222222 512.847644 14.222222z m-17.777777 923.556978c-221.331911-8.891733-399.109689-187.556978-408.001423-408.001422h142.222223c8.891733 143.109689 123.556978 256.887467 265.7792 265.7792v142.222222z m0-213.333333c-103.111111-8.891733-185.776356-91.556978-194.668089-194.668089h144.002844a69.768533 69.768533 0 0 0 50.665245 50.665244v144.002845z m0-280.888889c-24.888889 6.223644-43.554133 25.776356-50.665245 50.665244h-144.002844c8.891733-103.111111 91.556978-185.776356 194.668089-194.668089v144.002845z m0-215.113956c-143.109689 8.891733-256.887467 123.556978-265.7792 265.7792h-142.222223c8.891733-221.331911 187.556978-399.109689 408.001423-408.001422v142.222222z m35.555555 71.111111a217.042489 217.042489 0 0 1 55.113956 12.447289c5.336178-24.888889 19.5584-46.222222 39.111111-61.331911a305.174756 305.174756 0 0 0-94.225067-23.113955v-142.222223c102.223644 4.443022 195.555556 44.447289 266.666667 108.447289l-50.665245 51.5584c9.7792 6.223644 19.5584 14.222222 26.669512 24.001422l49.777777-49.777777c68.443022 71.998578 112.002844 168.891733 116.445867 274.665244h-142.222222c-1.780622-32.887467-9.7792-64.887467-22.2208-94.225067-15.109689 19.5584-36.443022 33.780622-61.331911 39.111112 6.223644 17.777778 10.666667 35.555556 12.447289 55.113955h-144.002845c-2.668089-8.891733-6.223644-16.002844-11.554133-23.113955l52.445866-52.445867c-8.891733-7.111111-16.890311-16.890311-24.001422-26.669511l-56.001422 56.001422c-4.443022-1.780622-7.998578-3.555556-13.334756-4.443022V299.554133h0.881778z m0 281.782045c24.888889-6.223644 45.334756-25.776356 51.5584-51.5584h143.109689c-8.891733 103.111111-91.556978 185.776356-194.668089 194.668089v-143.109689z m0 356.443022v-142.222222c143.109689-8.891733 256.887467-123.556978 265.7792-265.7792h142.222222c-8.886044 221.331911-186.663822 399.109689-408.001422 408.001422z m159.112534-531.5584c-39.111111 0-71.111111-32-71.111112-71.111111s32-71.111111 71.111112-71.111111 71.111111 32 71.111111 71.111111-32 71.111111-71.111111 71.111111z" fill="#5D5D5D" p-id="4214"></path></svg>