<?xml version="1.0" standalone="no"?><!DOCTYPE svg PUBLIC "-//W3C//DTD SVG 1.1//EN" "http://www.w3.org/Graphics/SVG/1.1/DTD/svg11.dtd"><svg t="1557291566973" class="icon" style="" viewBox="0 0 1024 1024" version="1.1" xmlns="http://www.w3.org/2000/svg" p-id="3204" xmlns:xlink="http://www.w3.org/1999/xlink" width="200" height="200"><defs><style type="text/css"></style></defs><path d="M952.085622 449.866894c-8.714476-8.753361-22.933315-8.753361-31.69077 0l-51.463092 51.466162c-2.27788-92.345198-39.344077-178.819688-104.906282-244.335844-67.701938-67.703985-157.77335-104.992239-253.529227-104.992239-133.282562 0-254.818593 73.262584-317.158407 191.164854-5.77861 10.94119-1.602498 24.511253 9.31925 30.283724 10.94119 5.77861 24.52865 1.665942 30.30726-9.275247 54.530964-103.199407 160.874991-167.357636 277.530874-167.357636 169.8105 0 308.544215 135.671982 313.575812 304.248376l-51.249221-51.203172c-8.709359-8.753361-22.932292-8.753361-31.685653 0-8.708336 8.708336-8.708336 22.932292 0 31.685653l89.630367 89.635483c4.420683 4.371564 10.150174 6.515391 15.888875 6.515391 5.730515 0 11.464099-2.187829 15.883759-6.515391l89.632413-89.635483c8.708336-8.753361 8.708336-22.977317 0-31.685653L952.085622 449.865871 952.085622 449.866894zM952.085622 449.866894" p-id="3205"></path><path d="M818.338479 647.596258c-10.94119-5.777587-24.511253-1.660826-30.289863 9.280364-54.524824 103.19429-160.874991 167.351496-277.55134 167.351496-169.804361 0-308.538075-135.665843-313.572742-304.249399l51.227732 51.204196c4.396123 4.420683 10.129708 6.564509 15.864316 6.564509 5.729491 0 11.464099-2.187829 15.865339-6.564509 8.727779-8.709359 8.727779-22.932292 0-31.685653l-89.636506-89.630367c-8.728802-8.709359-22.951735-8.709359-31.680537 0l-89.630367 89.630367c-8.732895 8.753361-8.732895 22.976294 0 31.685653 8.729825 8.753361 22.953781 8.753361 31.685653 0l51.486628-51.468209c2.296299 92.341105 39.346123 178.821735 104.923678 244.336868 67.709101 67.705008 157.731394 104.992239 253.508761 104.992239 133.264143 0 254.838036-73.262584 317.161477-191.164854 5.777587-10.94119 1.577938-24.505114-9.31925-30.283724L818.338479 647.595234 818.338479 647.596258zM818.338479 647.596258" p-id="3206"></path></svg>