<svg id="图层_1" data-name="图层 1" xmlns="http://www.w3.org/2000/svg" viewBox="0 0 150 150"><defs><style>.cls-1{fill:#26c6da;}.cls-2{fill:#fff;}</style></defs><title>icon_ingress-logo</title><g id="surface289826"><rect class="cls-1" width="150" height="150"/></g><path class="cls-2" d="M76,23.27,29.38,48.63V99.37L76,124.73l46.62-25.36V48.63Zm0,4.87,42.18,23V96.91L76,119.86l-42.18-23V51.09ZM76,33,38.26,53.54V94.46L76,115l37.74-20.53V53.54Zm-2.22,6.08V52.86h4.44V39.08L109.3,56V89.88L96.18,82.76,94.1,86.22l12.93,7L76,110.12,45,93.24l12.93-7-2.08-3.46L42.7,89.88V56ZM49.36,59.2,76,103.59,102.64,59.2Zm11.48,4.23H91.45L76,71.58Zm-1.36,4.12,14.3,7.68V91.37Zm32.9.22L78.22,91.37V75.25Z"/></svg>