<?xml version="1.0" encoding="utf-8"?>
<!-- Generator: Adobe Illustrator 23.0.0, SVG Export Plug-In . SVG Version: 6.00 Build 0)  -->
<svg version="1.1" id="图层_1" xmlns="http://www.w3.org/2000/svg" xmlns:xlink="http://www.w3.org/1999/xlink" x="0px" y="0px"
	 viewBox="0 0 32 32" style="enable-background:new 0 0 32 32;" xml:space="preserve">
<g>
	<path d="M0.7,21.9h26.5v-7.4H0.7V21.9z M4,19.3c-0.6,0-1.2-0.5-1.2-1.2c0-0.6,0.5-1.2,1.2-1.2c0.6,0,1.2,0.5,1.2,1.2c0,0,0,0,0,0
		C5.2,18.8,4.6,19.3,4,19.3"/>
	<path d="M0.7,24.1V29c0,1.4,1.2,2.5,2.7,2.5h23.8v-7.4H0.7z M4.1,28.9c-0.6,0-1.2-0.5-1.2-1.2c0-0.6,0.5-1.2,1.2-1.2
		c0.6,0,1.2,0.5,1.2,1.2l0,0C5.2,28.4,4.7,28.9,4.1,28.9"/>
	<path d="M11.7,6.6c0.3-0.7,0.8-1.3,1.4-1.8H0.7v7.4h12.5C11.5,11,10.8,8.7,11.7,6.6z M4.5,9.6c-0.6,0-1.2-0.5-1.2-1.2
		c0-0.6,0.5-1.2,1.2-1.2c0.6,0,1.2,0.5,1.2,1.2C5.6,9.1,5.1,9.6,4.5,9.6L4.5,9.6z"/>
	<path d="M31.1,7c-0.7-1.5-2.3-2.4-3.9-2.2c-0.1-0.4-0.2-0.9-0.4-1.3c-0.8-1.8-2.6-3.1-4.6-3.1h-0.1H22c-2,0-3.8,1.2-4.6,3.1
		C17.2,4,17.1,4.4,17,4.8C15,4.6,13.2,6,12.9,8c-0.2,1.6,0.7,3.2,2.2,3.9c0.5,0.2,1,0.3,1.5,0.3h11.2c0.5,0,1-0.1,1.5-0.3
		C31.1,11.1,32,8.9,31.1,7C31.1,7,31.1,7,31.1,7z"/>
</g>
</svg>
