<?xml version="1.0" standalone="no"?>
<!DOCTYPE svg PUBLIC "-//W3C//DTD SVG 1.1//EN" "http://www.w3.org/Graphics/SVG/1.1/DTD/svg11.dtd">
<svg t="1557295032821" class="icon" style="" viewBox="0 0 1024 1024" version="1.1" xmlns="http://www.w3.org/2000/svg"
     p-id="5720" xmlns:xlink="http://www.w3.org/1999/xlink" width="200" height="200">
  <defs>
    <style type="text/css"></style>
  </defs>
  <path
    d="M848.77328 73.152q0 149.152-60.864 263.712t-152.288 175.136q91.424 60.576 152.288 175.136t60.864 263.712l54.848 0q8 0 13.152 5.152t5.152 13.152l0 36.576q0 8-5.152 13.152t-13.152 5.152l-841.152 0q-8 0-13.152-5.152t-5.152-13.152l0-36.576q0-8 5.152-13.152t13.152-5.152l54.848 0q0-149.152 60.864-263.712t152.288-175.136q-91.424-60.576-152.288-175.136t-60.864-263.712l-54.848 0q-8 0-13.152-5.152t-5.152-13.152l0-36.576q0-8 5.152-13.152t13.152-5.152l841.152 0q8 0 13.152 5.152t5.152 13.152l0 36.576q0 8-5.152 13.152t-13.152 5.152l-54.848 0zM775.62128 73.152l-585.152 0q0 117.728 48.576 219.424l488 0q48.576-101.728 48.576-219.424zM743.04528 768q-30.848-80.576-83.136-138.016t-111.136-81.44l-131.424 0q-58.848 24-111.136 81.44t-83.136 138.016l520 0z"
    p-id="5721"></path>
</svg>
