<?xml version="1.0" encoding="utf-8"?>
<!-- Generator: Adobe Illustrator 23.0.0, SVG Export Plug-In . SVG Version: 6.00 Build 0)  -->
<svg version="1.1" id="图层_1" xmlns="http://www.w3.org/2000/svg" xmlns:xlink="http://www.w3.org/1999/xlink" x="0px" y="0px"
	 viewBox="0 0 50 50" style="enable-background:new 0 0 50 50;" xml:space="preserve">
<style type="text/css">
	.st0{fill:#67B4F3;}
	.st1{fill:#FFFFFF;}
</style>
<title>Group</title>
<desc>Created with Sketch.</desc>
<g id="Page-1">
	<g id="Group">
		<g id="icon_deployment-config">
			<rect id="Rectangle" class="st0" width="50" height="50"/>
		</g>
		<g>
			<path class="st1" d="M34.7,29.5l0.4,1.2c0.3,1-0.1,2-1,2.5l-1.8,1c-0.9,0.5-2,0.3-2.7-0.5l-0.7-0.8L28.7,34
				c-0.2,1-1.1,1.7-2.1,1.7h-2.1c-1,0-1.9-0.7-2.1-1.7l-0.2-1.1l-0.7,0.8c-0.7,0.8-1.8,1-2.7,0.5l-1.8-1c-0.9-0.5-1.3-1.6-1-2.5
				l0.4-1.2L8.6,34l17,9.7l17-9.7L34.7,29.5z"/>
			<path class="st1" d="M38.8,21.5v-2.1l-2.6-0.5c-0.1-0.8-0.3-1.6-0.6-2.4l2-1.7l-1-1.8L34,13.8c-0.5-0.7-1.1-1.2-1.8-1.8l0.9-2.5
				l-1.8-1l-1.7,2c-0.8-0.3-1.6-0.5-2.4-0.6l-0.5-2.6h-2.1L24,9.8c-0.8,0.1-1.6,0.3-2.4,0.6l-1.7-2l-1.8,1l0.9,2.5
				c-0.7,0.5-1.2,1.1-1.8,1.8l-2.5-0.9l-1,1.8l2,1.7c-0.3,0.8-0.5,1.6-0.6,2.4l-2.6,0.5v2.1L15,22c0.1,0.8,0.3,1.6,0.6,2.4l-2,1.7
				l1,1.8l2.5-0.9c0.5,0.7,1.1,1.2,1.8,1.8l-0.9,2.5l1.8,1l1.7-2c0.8,0.3,1.6,0.5,2.4,0.6l0.5,2.6h2.1l0.5-2.6
				c0.8-0.1,1.6-0.3,2.4-0.6l1.7,2l1.8-1l-0.9-2.5c0.7-0.5,1.2-1.1,1.8-1.8l2.5,0.9l1-1.8l-2-1.7c0.3-0.8,0.5-1.6,0.6-2.4L38.8,21.5
				z M25.6,12.3c4.1,0,7.6,3.1,8.1,7.1h-6.3c-0.7,0-1.4-0.4-1.8-1l-3.2-5.5C23.4,12.5,24.5,12.3,25.6,12.3z M17.4,20.4
				c0-2.6,1.2-5,3.2-6.5l3.2,5.5c0.4,0.6,0.4,1.4,0,2l-3.2,5.5C18.6,25.4,17.4,23,17.4,20.4L17.4,20.4z M25.6,28.6
				c-1.1,0-2.2-0.2-3.2-0.6l3.2-5.5c0.4-0.6,1-1,1.8-1h6.3C33.2,25.5,29.7,28.6,25.6,28.6L25.6,28.6z"/>
		</g>
	</g>
</g>
</svg>
