<?xml version="1.0" encoding="utf-8"?>
<!-- Generator: Adobe Illustrator 23.0.0, SVG Export Plug-In . SVG Version: 6.00 Build 0)  -->
<svg version="1.1" id="图层_1" xmlns="http://www.w3.org/2000/svg" xmlns:xlink="http://www.w3.org/1999/xlink" x="0px" y="0px"
	 viewBox="0 0 200 200" style="enable-background:new 0 0 200 200;" xml:space="preserve">
<path d="M181.6,113.4l8-8l-13.9-13.9l-8,8c-5-4-10.9-6-17.9-7V81.6h-19.9v10.9c-6,1-11.9,4-17.9,7l-8-8l-14,14l8,8
	c-3,5-6,10.9-7,17.9H80.1v19.9H91c1,6,4,11.9,7,17.9l-8,7l14,13.8l8-8c5,4,10.9,6,17.9,7v11h19.9v-10c6-1,11.9-4,17.9-7l8,8
	l13.9-13.9l-8-8c3-5,6-10.9,7-17.9h10.9v-19.9h-10.9C187.6,124.4,184.6,118.4,181.6,113.4L181.6,113.4z M139.8,171.1
	c-15.9,0-29.9-13.9-29.9-29.9c0-16.9,13.9-29.9,29.9-29.9c16.9,0,29.9,12.9,29.9,29.9C169.7,157.2,156.7,171.1,139.8,171.1z
	 M80.1,19.9L70.1,0H0.5v199h79.6v-19.9H20.4V59.7h159.2v19.9h19.9V19.9H80.1z"/>
</svg>
