<svg xmlns="http://www.w3.org/2000/svg" viewBox="0 0 400 120">
  <title>白底</title>
  <g>
    <rect width="400" height="120" fill="#fff" opacity="0"/>
    <g>
      <g>
        <path d="M83.33,65.768V55.034c0-7.957,6.073-12.383,13.418-12.383,6.4,0,12.805,3.578,12.805,11.063v1.036h-5.932v-.47c0-4.379-3.813-6.073-6.873-6.073-3.2,0-7.2,1.695-7.2,6.5V65.437c0,4.049,3.484,6.356,7.439,6.356,3.06,0,6.638-1.695,6.638-6.073v-.471h5.932v1.035c0,7.486-6.167,11.064-12.57,11.064C89.686,77.349,83.33,73.252,83.33,65.768Z" fill="#00c8dd"/>
        <path d="M112.894,69.016l5.65-2.213c1.271,3.249,4.331,5.084,8.1,5.084,3.39,0,6.591-1.318,6.591-4.425,0-2.5-2.025-3.626-4.614-4.379l-5.65-1.365c-4.472-1.13-8.05-3.155-8.05-9.086,0-6.308,5.508-9.981,12-9.981,5.6,0,9.651,1.836,11.817,6.873l-5.132,2.26c-1.459-2.824-3.955-3.86-7.2-3.86-2.73,0-5.367,1.224-5.367,4.237,0,2.353,2.26,3.437,4.9,4.143l5.743,1.414c4,.941,7.674,3.342,7.674,9.321,0,6.167-5.508,10.263-12.9,10.263C120.286,77.3,114.636,74.712,112.894,69.016Z" fill="#00c8dd"/>
        <path d="M144.718,43.216h13.653c6.5,0,11.393,3.672,11.393,10.545,0,5.133-3.437,10.452-11.064,10.452H150.98v12.57h-6.262Zm12.9,15.724c3.625,0,6.026-1.742,6.026-5.226,0-3.954-2.636-5.226-6.12-5.226H150.98V58.94Z" fill="#00c8dd"/>
      </g>
      <g>
        <path d="M200.777,51.733V47.122c0-3.06,2.325-4.959,5.347-4.959,2.712,0,5.037,1.55,5.037,4.282v.6h-1.8v-.387c0-1.84-1.492-2.808-3.274-2.808a3.159,3.159,0,0,0-3.41,3.215v4.514c0,1.956,1.512,3.138,3.507,3.138,1.763,0,3.177-.968,3.177-2.808v-.252h1.8v.483c0,2.771-2.267,4.282-4.979,4.282C203.218,56.421,200.777,54.774,200.777,51.733Z" fill="#25282d"/>
        <path d="M213.525,53.689V42.357h1.763V53.728a.986.986,0,0,0,1.124,1.065,9.047,9.047,0,0,0,1.065-.077v1.337a6.788,6.788,0,0,1-1.665.232C213.8,56.285,213.525,54.736,213.525,53.689Z" fill="#25282d"/>
        <path d="M218.853,52.6V50.183a3.911,3.911,0,0,1,4.184-3.991c2.4,0,4.242,1.472,4.242,3.952v2.267a3.927,3.927,0,0,1-4.184,4.01C220.713,56.421,218.853,55.1,218.853,52.6Zm6.644-.076V49.989a2.443,2.443,0,0,0-4.882.077v2.519a2.246,2.246,0,0,0,2.48,2.343A2.181,2.181,0,0,0,225.5,52.528Z" fill="#25282d"/>
        <path d="M229.431,52.973V46.386h1.763v6.025c0,1.647.775,2.422,2.034,2.422a2.5,2.5,0,0,0,2.5-2.79V46.386h1.743v9.782h-1.685v-1.53h-.038a3.476,3.476,0,0,1-3.061,1.744A3.075,3.075,0,0,1,229.431,52.973Z" fill="#25282d"/>
        <path d="M239.68,52.8v-2.79a3.592,3.592,0,0,1,3.835-3.835,3.005,3.005,0,0,1,2.712,1.588h.058v-5.4h1.744V56.169h-1.7v-1.51h-.02a3.6,3.6,0,0,1-2.964,1.763A3.426,3.426,0,0,1,239.68,52.8Zm6.605-.5v-2.17a2.41,2.41,0,0,0-2.518-2.48,2.177,2.177,0,0,0-2.325,2.248v2.866a2.15,2.15,0,0,0,2.383,2.131A2.468,2.468,0,0,0,246.285,52.294Z" fill="#25282d"/>
        <path d="M254.713,53.051l1.724-.659a3.646,3.646,0,0,0,3.662,2.344c1.685,0,3.1-.775,3.1-2.267,0-1.317-.892-1.879-2.053-2.228l-2.519-.678c-1.9-.524-3.139-1.472-3.139-3.6,0-2.383,2-3.855,4.553-3.855,2.189,0,4.087.852,4.765,2.732l-1.646.658A3.243,3.243,0,0,0,260,43.713c-1.317,0-2.654.64-2.654,2.092,0,1.047.756,1.7,2.209,2.112l2.537.7a3.525,3.525,0,0,1,2.964,3.7c0,2.422-2.053,4.088-5.037,4.088C257.5,56.4,255.372,55.278,254.713,53.051Z" fill="#25282d"/>
        <path d="M266.764,52.431V50.416a4.035,4.035,0,0,1,4.3-4.224,3.687,3.687,0,0,1,3.99,3.836v1.665h-6.47v.852a2.355,2.355,0,0,0,2.615,2.383,2.959,2.959,0,0,0,2.363-1.258l1.337.793a4.172,4.172,0,0,1-3.8,1.957C268.7,56.421,266.764,55.123,266.764,52.431Zm6.548-1.957v-.465a2.167,2.167,0,0,0-2.305-2.344,2.334,2.334,0,0,0-2.422,2.48v.33Z" fill="#25282d"/>
        <path d="M277.227,46.386h1.7v1.84h.038a3.871,3.871,0,0,1,3.41-2.015,4.434,4.434,0,0,1,.737.058V47.9a4.723,4.723,0,0,0-.892-.058,2.982,2.982,0,0,0-3.235,3.1v5.23h-1.763Z" fill="#25282d"/>
        <path d="M284.2,46.386h1.86l2.537,7.574h.019l2.577-7.574h1.782l-3.525,9.821h-1.744Z" fill="#25282d"/>
        <path d="M294.623,42.376h1.744v2.248h-1.744Zm0,4.011h1.744v9.782h-1.744Z" fill="#25282d"/>
        <path d="M298.633,52.449V50.358a3.944,3.944,0,0,1,4.2-4.166c2.209,0,4.01,1.259,4.01,3.546v.231h-1.7v-.29a2.055,2.055,0,0,0-2.285-2.015,2.285,2.285,0,0,0-2.4,2.5v2.325a2.24,2.24,0,0,0,2.44,2.44,2.012,2.012,0,0,0,2.247-2.015V52.7h1.7v.175c0,2.267-1.743,3.545-3.952,3.545C300.473,56.421,298.633,55.007,298.633,52.449Z" fill="#25282d"/>
        <path d="M308.378,52.431V50.416a4.035,4.035,0,0,1,4.3-4.224,3.687,3.687,0,0,1,3.99,3.836v1.665H310.2v.852a2.355,2.355,0,0,0,2.615,2.383,2.963,2.963,0,0,0,2.364-1.258l1.336.793a4.172,4.172,0,0,1-3.8,1.957C310.316,56.421,308.378,55.123,308.378,52.431Zm6.548-1.957v-.465a2.167,2.167,0,0,0-2.306-2.344,2.334,2.334,0,0,0-2.421,2.48v.33Z" fill="#25282d"/>
        <path d="M201.126,63.83H206.3c2.673,0,4.533,1.589,4.533,4.2,0,2.247-1.55,4.242-4.611,4.242h-3.2v5.366h-1.9Zm4.727,6.839c1.9,0,3.1-.872,3.1-2.635,0-1.744-1.22-2.6-2.905-2.6h-3.022v5.23Z" fill="#25282d"/>
        <path d="M212.885,75.163V63.83h1.763V75.2a.986.986,0,0,0,1.124,1.065,9.287,9.287,0,0,0,1.065-.077v1.337a6.787,6.787,0,0,1-1.665.231C213.157,77.759,212.885,76.209,212.885,75.163Z" fill="#25282d"/>
        <path d="M218.1,74.969c0-2.053,1.86-2.983,3.623-2.983h2.731v-1.2c0-1.278-.852-1.763-2.189-1.763-1.1,0-2.131.387-2.131,1.337v.33h-1.589v-.272c0-2.053,1.937-2.77,3.758-2.77,2.053,0,3.894.7,3.894,2.964v4.746a19.6,19.6,0,0,0,.155,2.285h-1.724c-.039-.252-.077-1.007-.1-1.22h-.038a3.305,3.305,0,0,1-3.08,1.433C219.511,77.856,218.1,76.791,218.1,74.969Zm6.354-.91v-.775h-2.46c-1.162,0-2.17.33-2.17,1.589,0,1.065.891,1.588,2.053,1.588C223.793,76.461,224.451,75.434,224.451,74.059Z" fill="#25282d"/>
        <path d="M229.354,75.513V69.274h-1.569V67.86h1.569V64.838H231.1V67.86h2.519v1.414H231.1v5.792c0,.892.465,1.162,1.22,1.162a6.173,6.173,0,0,0,1.357-.155v1.512a7.3,7.3,0,0,1-1.782.232C230.534,77.818,229.354,77.2,229.354,75.513Z" fill="#25282d"/>
        <path d="M236.173,69.235h-1.627V67.86h1.627V66.33a2.481,2.481,0,0,1,2.712-2.809,5.219,5.219,0,0,1,1.1.117v1.51a4.78,4.78,0,0,0-.93-.077,1.042,1.042,0,0,0-1.144,1.182V67.86h2.034v1.375h-2.034v8.408h-1.743Z" fill="#25282d"/>
        <path d="M241.191,74.078V71.657a3.911,3.911,0,0,1,4.184-3.99c2.4,0,4.242,1.472,4.242,3.952v2.266a3.928,3.928,0,0,1-4.184,4.011C243.051,77.9,241.191,76.578,241.191,74.078ZM247.835,74V71.463a2.443,2.443,0,0,0-4.882.077v2.518a2.246,2.246,0,0,0,2.48,2.344A2.182,2.182,0,0,0,247.835,74Z" fill="#25282d"/>
        <path d="M251.788,67.86h1.7V69.7h.038a3.871,3.871,0,0,1,3.41-2.015,4.316,4.316,0,0,1,.737.059v1.627a4.723,4.723,0,0,0-.892-.058,2.982,2.982,0,0,0-3.235,3.1v5.23h-1.763Z" fill="#25282d"/>
        <path d="M259.343,67.86h1.686v1.512h.038a3.462,3.462,0,0,1,3.08-1.724,2.824,2.824,0,0,1,2.771,1.782h.019a3.723,3.723,0,0,1,3.255-1.782,3.015,3.015,0,0,1,3.236,3.216v6.78h-1.744V71.6c0-1.55-.658-2.422-2.015-2.422a2.462,2.462,0,0,0-2.4,2.635v5.831h-1.743V71.579c-.02-1.453-.6-2.4-2.015-2.4a2.465,2.465,0,0,0-2.422,2.616v5.85h-1.744Z" fill="#25282d"/>
      </g>
      <g opacity="0.2">
        <rect x="184.06" y="42.06" width="2.497" height="35.879" fill="#25282d"/>
      </g>
    </g>
  </g>
</svg>
