<svg xmlns="http://www.w3.org/2000/svg" xmlns:xlink="http://www.w3.org/1999/xlink" viewBox="0 0 200 200"><defs><style>.cls-1{fill:none;}.cls-2{fill:#00bbe4;}.cls-3{clip-path:url(#clip-path);}.cls-4{opacity:0.1;}.cls-5{fill:#040000;}.cls-6{fill:#fff;}</style><clipPath id="clip-path"><rect class="cls-1" x="23.33" y="16.67" width="176.67" height="183.33"/></clipPath></defs><title>OSS画板 1</title><g id="图层_22_复制_2" data-name="图层 22_复制 2"><rect class="cls-2" width="200" height="200"/></g><g id="图层_6" data-name="图层 6"><g class="cls-3"><g class="cls-4"><path class="cls-5" d="M124.12,162.68a4.38,4.38,0,1,1,4.37-4.38,4.38,4.38,0,0,1-4.37,4.38m-12.25,9.73h99.48v-27.8H111.87Z"/><path class="cls-5" d="M124.42,198.87a4.38,4.38,0,1,1,4.36-4.37,4.38,4.38,0,0,1-4.36,4.37m-12.55-18v18.19c0,5.26,4.56,9.53,10.18,9.53h89.3V180.86Z"/><path class="cls-5" d="M126,126.48a4.37,4.37,0,1,1,4.37-4.37A4.37,4.37,0,0,1,126,126.48Zm27-11.29a17,17,0,0,1,5.29-6.75H111.87v27.72h47.18A17.11,17.11,0,0,1,152.94,115.19Z"/><path class="cls-5" d="M226.16,116.69a14,14,0,0,0-14.66-8.24,19.64,19.64,0,0,0-1.36-4.82,19.33,19.33,0,0,0-17.41-11.58h-.82a19.25,19.25,0,0,0-17.35,11.58,19.64,19.64,0,0,0-1.36,4.82,13.91,13.91,0,1,0-1.84,27.7h42a13.92,13.92,0,0,0,12.81-19.46Z"/><path class="cls-5" d="M123.5,162.14a4.38,4.38,0,1,1,4.37-4.38,4.38,4.38,0,0,1-4.37,4.38m-12.24,9.73h99.47v-27.8H111.26Z"/><path class="cls-5" d="M123.8,198.33a4.37,4.37,0,1,1,4.37-4.37,4.38,4.38,0,0,1-4.37,4.37m-12.54-18v18.18c0,5.27,4.55,9.53,10.17,9.53h89.3V180.33Z"/><path class="cls-5" d="M125.33,125.94a4.37,4.37,0,1,1,4.37-4.37A4.36,4.36,0,0,1,125.33,125.94Zm27-11.29a17,17,0,0,1,5.29-6.75H111.26v27.72h47.17A17.1,17.1,0,0,1,152.32,114.65Z"/><path class="cls-5" d="M225.54,116.16a14,14,0,0,0-14.66-8.25,19.15,19.15,0,0,0-18.77-16.39l-.41,0-.41,0A19.11,19.11,0,0,0,174,103.1a18.62,18.62,0,0,0-1.36,4.81,13.92,13.92,0,0,0-7.39,26.56,13.62,13.62,0,0,0,5.54,1.14h42a13.67,13.67,0,0,0,5.56-1.14A13.91,13.91,0,0,0,225.54,116.16Z"/><path class="cls-5" d="M122.88,161.6a4.38,4.38,0,1,1,4.37-4.37,4.37,4.37,0,0,1-4.37,4.37m-12.24,9.74h99.47v-27.8H110.64Z"/><path class="cls-5" d="M123.18,197.79a4.37,4.37,0,1,1,4.37-4.37,4.37,4.37,0,0,1-4.37,4.37m-12.54-18V198c0,5.27,4.55,9.54,10.17,9.54h89.3V179.79Z"/><path class="cls-5" d="M124.71,125.41a4.38,4.38,0,1,1,4.37-4.37A4.37,4.37,0,0,1,124.71,125.41Zm27-11.3a17.08,17.08,0,0,1,5.29-6.75H110.64v27.73h47.17A17.12,17.12,0,0,1,151.7,114.11Z"/><path class="cls-5" d="M224.92,115.62a14,14,0,0,0-14.66-8.25A19.15,19.15,0,0,0,191.49,91h-.82a19.11,19.11,0,0,0-17.34,11.58,18.62,18.62,0,0,0-1.36,4.81,13.92,13.92,0,1,0-1.85,27.71h42a13.92,13.92,0,0,0,12.81-19.46Z"/><path class="cls-5" d="M122.26,161.06a4.37,4.37,0,1,1,4.37-4.37,4.37,4.37,0,0,1-4.37,4.37M110,170.8h99.47V143H110Z"/><path class="cls-5" d="M122.56,197.26a4.38,4.38,0,1,1,4.37-4.37,4.37,4.37,0,0,1-4.37,4.37m-12.54-18v18.19c0,5.26,4.55,9.53,10.17,9.53h89.3V179.25Z"/><path class="cls-5" d="M124.09,124.87a4.37,4.37,0,1,1,4.37-4.37A4.37,4.37,0,0,1,124.09,124.87Zm27-11.29a17,17,0,0,1,5.29-6.75H110v27.72h47.17A17.11,17.11,0,0,1,151.08,113.58Z"/><path class="cls-5" d="M224.3,115.08a14,14,0,0,0-14.66-8.24,18.8,18.8,0,0,0-1.36-4.82,19.23,19.23,0,0,0-17.41-11.58h-.82A19.14,19.14,0,0,0,172.71,102a18.8,18.8,0,0,0-1.36,4.82A13.92,13.92,0,0,0,164,133.4a13.78,13.78,0,0,0,5.54,1.14h42a13.92,13.92,0,0,0,12.81-19.46Z"/><path class="cls-5" d="M121.64,160.53a4.38,4.38,0,1,1,4.37-4.38,4.38,4.38,0,0,1-4.37,4.38m-12.24,9.73h99.47v-27.8H109.4Z"/><path class="cls-5" d="M121.94,196.72a4.37,4.37,0,1,1,4.37-4.37,4.37,4.37,0,0,1-4.37,4.37m-12.54-18V196.9c0,5.27,4.55,9.53,10.17,9.53h89.3V178.72Z"/><path class="cls-5" d="M123.47,124.33a4.37,4.37,0,1,1,4.37-4.37A4.37,4.37,0,0,1,123.47,124.33Zm27-11.29a17.1,17.1,0,0,1,5.29-6.75H109.4V134h47.17A17.1,17.1,0,0,1,150.46,113Z"/><path class="cls-5" d="M223.68,114.55A14,14,0,0,0,209,106.3a18.62,18.62,0,0,0-1.36-4.81,19.19,19.19,0,0,0-17.41-11.58l-.4,0-.42,0a19.12,19.12,0,0,0-17.34,11.58,18.62,18.62,0,0,0-1.36,4.81,13.92,13.92,0,0,0-7.39,26.56,13.62,13.62,0,0,0,5.54,1.14h42a13.67,13.67,0,0,0,5.56-1.14A13.9,13.9,0,0,0,223.68,114.55Z"/><path class="cls-5" d="M121,160a4.38,4.38,0,1,1,4.37-4.37A4.37,4.37,0,0,1,121,160m-12.24,9.74h99.47v-27.8H108.78Z"/><path class="cls-5" d="M121.32,196.18a4.37,4.37,0,1,1,4.37-4.37,4.37,4.37,0,0,1-4.37,4.37m-12.54-18v18.18c0,5.27,4.55,9.54,10.17,9.54h89.3V178.18Z"/><path class="cls-5" d="M122.85,123.8a4.38,4.38,0,1,1,4.37-4.37A4.37,4.37,0,0,1,122.85,123.8Zm27-11.3a17.17,17.17,0,0,1,5.29-6.75H108.78v27.73H156A17.12,17.12,0,0,1,149.84,112.5Z"/><path class="cls-5" d="M223.06,114a14,14,0,0,0-14.66-8.25A18.62,18.62,0,0,0,207,101a19.19,19.19,0,0,0-17.41-11.58h-.82A19.12,19.12,0,0,0,171.47,101a18.62,18.62,0,0,0-1.36,4.81,13.92,13.92,0,0,0-7.39,26.56,13.8,13.8,0,0,0,5.54,1.15h42A13.94,13.94,0,0,0,223.06,114Z"/><path class="cls-5" d="M120.4,159.45a4.37,4.37,0,1,1,4.37-4.37,4.37,4.37,0,0,1-4.37,4.37m-12.24,9.74h99.48v-27.8H108.16Z"/><path class="cls-5" d="M120.7,195.65a4.38,4.38,0,1,1,4.37-4.37,4.37,4.37,0,0,1-4.37,4.37m-12.54-18v18.19c0,5.26,4.55,9.53,10.17,9.53h89.31V177.64Z"/><path class="cls-5" d="M122.23,123.26a4.37,4.37,0,1,1,4.37-4.37A4.37,4.37,0,0,1,122.23,123.26Zm27-11.29a17,17,0,0,1,5.3-6.75H108.16v27.72h47.17A17.11,17.11,0,0,1,149.22,112Z"/><path class="cls-5" d="M222.44,113.47a14,14,0,0,0-14.66-8.24,18.8,18.8,0,0,0-1.36-4.82A19.19,19.19,0,0,0,189,88.83h-.83a19.14,19.14,0,0,0-17.34,11.58,18.8,18.8,0,0,0-1.36,4.82,13.92,13.92,0,0,0-7.39,26.56,13.78,13.78,0,0,0,5.54,1.14h42a13.91,13.91,0,0,0,12.81-19.46Z"/><path class="cls-5" d="M119.78,158.92a4.38,4.38,0,1,1,4.37-4.38,4.38,4.38,0,0,1-4.37,4.38m-12.24,9.73H207v-27.8H107.54Z"/><path class="cls-5" d="M120.08,195.11a4.37,4.37,0,1,1,4.37-4.37,4.37,4.37,0,0,1-4.37,4.37m-12.54-18v18.18c0,5.26,4.55,9.53,10.17,9.53H207V177.11Z"/><path class="cls-5" d="M121.61,122.72a4.37,4.37,0,1,1,4.37-4.37A4.37,4.37,0,0,1,121.61,122.72Zm27-11.29a16.92,16.92,0,0,1,5.29-6.75H107.54V132.4h47.17A17.09,17.09,0,0,1,148.61,111.43Z"/><path class="cls-5" d="M221.82,112.94a14,14,0,0,0-14.66-8.25,18.62,18.62,0,0,0-1.36-4.81A19.19,19.19,0,0,0,188.4,88.3l-.41,0-.41,0a19.13,19.13,0,0,0-17.35,11.58,18.62,18.62,0,0,0-1.36,4.81,13.92,13.92,0,0,0-7.39,26.56,13.62,13.62,0,0,0,5.54,1.14h42a13.75,13.75,0,0,0,5.57-1.14A13.89,13.89,0,0,0,221.82,112.94Z"/><path class="cls-5" d="M119.16,158.38a4.38,4.38,0,1,1,4.37-4.37,4.37,4.37,0,0,1-4.37,4.37m-12.24,9.74H206.4v-27.8H106.92Z"/><path class="cls-5" d="M119.46,194.57a4.37,4.37,0,1,1,4.37-4.37,4.37,4.37,0,0,1-4.37,4.37m-12.54-18v18.18c0,5.27,4.55,9.54,10.17,9.54H206.4V176.57Z"/><path class="cls-5" d="M121,122.19a4.38,4.38,0,1,1,4.37-4.37A4.37,4.37,0,0,1,121,122.19Zm27-11.3a17,17,0,0,1,5.29-6.75H106.92v27.73h47.17A17.12,17.12,0,0,1,148,110.89Z"/><path class="cls-5" d="M221.2,112.4a14,14,0,0,0-14.66-8.25,18.62,18.62,0,0,0-1.36-4.81,19.19,19.19,0,0,0-17.4-11.58H187a19.13,19.13,0,0,0-17.35,11.58,18.62,18.62,0,0,0-1.36,4.81,13.92,13.92,0,1,0-1.84,27.71h42a13.93,13.93,0,0,0,12.8-19.46Z"/><path class="cls-5" d="M118.54,157.84a4.37,4.37,0,1,1,4.37-4.37,4.37,4.37,0,0,1-4.37,4.37m-12.24,9.74h99.48v-27.8H106.3Z"/><path class="cls-5" d="M118.84,194a4.38,4.38,0,1,1,4.37-4.37,4.37,4.37,0,0,1-4.37,4.37M106.3,176v18.19c0,5.26,4.55,9.53,10.17,9.53h89.31V176Z"/><path class="cls-5" d="M120.37,121.65a4.37,4.37,0,1,1,4.37-4.37A4.37,4.37,0,0,1,120.37,121.65Zm27-11.29a16.92,16.92,0,0,1,5.29-6.75H106.3v27.72h47.17A17.1,17.1,0,0,1,147.37,110.36Z"/><path class="cls-5" d="M220.59,111.86a14,14,0,0,0-14.67-8.24,18.8,18.8,0,0,0-1.36-4.82,19.19,19.19,0,0,0-17.4-11.58h-.82A19.14,19.14,0,0,0,169,98.8a18.8,18.8,0,0,0-1.36,4.82,13.91,13.91,0,1,0-1.84,27.7h42a13.92,13.92,0,0,0,12.81-19.46Z"/><path class="cls-5" d="M117.92,157.31a4.38,4.38,0,1,1,4.37-4.38,4.38,4.38,0,0,1-4.37,4.38M105.68,167h99.48v-27.8H105.68Z"/><path class="cls-5" d="M118.22,193.5a4.37,4.37,0,1,1,4.37-4.37,4.37,4.37,0,0,1-4.37,4.37m-12.54-18v18.18c0,5.26,4.55,9.53,10.17,9.53h89.31V175.5Z"/><path class="cls-5" d="M119.75,121.11a4.37,4.37,0,1,1,4.37-4.37A4.37,4.37,0,0,1,119.75,121.11Zm27-11.29a16.92,16.92,0,0,1,5.29-6.75H105.68v27.72h47.18A17.1,17.1,0,0,1,146.75,109.82Z"/><path class="cls-5" d="M220,111.33a14,14,0,0,0-14.66-8.25,19.2,19.2,0,0,0-18.77-16.39l-.41,0-.41,0a19.13,19.13,0,0,0-17.35,11.58,18.62,18.62,0,0,0-1.36,4.81,13.92,13.92,0,0,0-7.39,26.56,13.63,13.63,0,0,0,5.55,1.14h42a13.74,13.74,0,0,0,5.56-1.14A13.91,13.91,0,0,0,220,111.33Z"/><path class="cls-5" d="M117.31,156.77a4.38,4.38,0,1,1,4.37-4.37,4.38,4.38,0,0,1-4.37,4.37m-12.25,9.74h99.48v-27.8H105.06Z"/><path class="cls-5" d="M117.6,193a4.37,4.37,0,1,1,4.37-4.37A4.37,4.37,0,0,1,117.6,193m-12.54-18v18.18c0,5.27,4.56,9.54,10.17,9.54h89.31V175Z"/><path class="cls-5" d="M119.13,120.58a4.38,4.38,0,1,1,4.37-4.37A4.37,4.37,0,0,1,119.13,120.58Zm27-11.3a17,17,0,0,1,5.29-6.75H105.06v27.73h47.18A17.12,17.12,0,0,1,146.13,109.28Z"/><path class="cls-5" d="M219.35,110.79a14,14,0,0,0-14.66-8.25,19.2,19.2,0,0,0-18.77-16.39h-.82a19.15,19.15,0,0,0-18.71,16.39,13.92,13.92,0,1,0-1.84,27.71h42a13.94,13.94,0,0,0,12.81-19.46Z"/><path class="cls-5" d="M116.69,156.23a4.37,4.37,0,1,1,4.37-4.37,4.38,4.38,0,0,1-4.37,4.37M104.44,166h99.48v-27.8H104.44Z"/><path class="cls-5" d="M117,192.43a4.38,4.38,0,1,1,4.37-4.37,4.37,4.37,0,0,1-4.37,4.37m-12.54-18v18.19c0,5.26,4.56,9.53,10.17,9.53h89.31V174.42Z"/><path class="cls-5" d="M118.51,120a4.37,4.37,0,1,1,4.37-4.37A4.37,4.37,0,0,1,118.51,120Zm27-11.29A16.92,16.92,0,0,1,150.8,102H104.44v27.72h47.18A17.11,17.11,0,0,1,145.51,108.75Z"/><path class="cls-5" d="M218.73,110.25A14,14,0,0,0,204.07,102a19.19,19.19,0,0,0-18.77-16.4h-.82a19.15,19.15,0,0,0-17.35,11.58,19.64,19.64,0,0,0-1.36,4.82,13.91,13.91,0,1,0-1.84,27.7h42a13.92,13.92,0,0,0,12.81-19.46Z"/><path class="cls-5" d="M116.07,155.7a4.38,4.38,0,1,1,4.37-4.38,4.39,4.39,0,0,1-4.37,4.38m-12.25,9.73H203.3v-27.8H103.82Z"/><path class="cls-5" d="M116.36,191.89a4.37,4.37,0,1,1,4.37-4.37,4.37,4.37,0,0,1-4.37,4.37m-12.54-18v18.18c0,5.26,4.56,9.53,10.17,9.53H203.3V173.89Z"/><path class="cls-5" d="M117.89,119.5a4.37,4.37,0,1,1,4.37-4.37A4.37,4.37,0,0,1,117.89,119.5Zm27-11.29a16.92,16.92,0,0,1,5.29-6.75H103.82v27.72H151A17.1,17.1,0,0,1,144.89,108.21Z"/><path class="cls-5" d="M218.11,109.72a14,14,0,0,0-14.66-8.25,19.2,19.2,0,0,0-18.77-16.39l-.41,0-.41,0a19.14,19.14,0,0,0-17.35,11.58,19.44,19.44,0,0,0-1.36,4.81A13.92,13.92,0,0,0,157.76,128a13.63,13.63,0,0,0,5.55,1.14h42a13.71,13.71,0,0,0,5.56-1.14A13.91,13.91,0,0,0,218.11,109.72Z"/><path class="cls-5" d="M115.45,155.16a4.38,4.38,0,1,1,4.37-4.37,4.38,4.38,0,0,1-4.37,4.37M103.2,164.9h99.48V137.1H103.2Z"/><path class="cls-5" d="M115.74,191.35a4.37,4.37,0,1,1,4.37-4.37,4.37,4.37,0,0,1-4.37,4.37m-12.54-18v18.18c0,5.27,4.56,9.54,10.17,9.54h89.31V173.35Z"/><path class="cls-5" d="M117.27,119a4.37,4.37,0,1,1,4.37-4.36A4.36,4.36,0,0,1,117.27,119Zm27-11.29a17,17,0,0,1,5.29-6.75H103.2v27.73h47.18A17.12,17.12,0,0,1,144.27,107.67Z"/><path class="cls-5" d="M217.49,109.18a14,14,0,0,0-14.66-8.25,19.2,19.2,0,0,0-18.77-16.39h-.82a19.14,19.14,0,0,0-17.35,11.58,19.44,19.44,0,0,0-1.36,4.81,13.92,13.92,0,1,0-1.84,27.71h42a13.94,13.94,0,0,0,12.81-19.46Z"/><path class="cls-5" d="M114.83,154.62a4.37,4.37,0,1,1,4.37-4.37,4.37,4.37,0,0,1-4.37,4.37m-12.25,9.74h99.48v-27.8H102.58Z"/><path class="cls-5" d="M115.13,190.82a4.38,4.38,0,1,1,4.36-4.37,4.38,4.38,0,0,1-4.36,4.37m-12.55-18V191c0,5.26,4.56,9.53,10.18,9.53h89.3V172.81Z"/><path class="cls-5" d="M116.65,118.43a4.37,4.37,0,1,1,4.37-4.37A4.37,4.37,0,0,1,116.65,118.43Zm27-11.29a16.92,16.92,0,0,1,5.29-6.75H102.58v27.72h47.18A17.11,17.11,0,0,1,143.65,107.14Z"/><path class="cls-5" d="M216.87,108.64a14,14,0,0,0-14.66-8.24A19.19,19.19,0,0,0,183.44,84h-.82a19.15,19.15,0,0,0-17.35,11.58,19.64,19.64,0,0,0-1.36,4.82,13.91,13.91,0,1,0-1.84,27.7h42a13.92,13.92,0,0,0,12.81-19.46Z"/><path class="cls-5" d="M114.21,154.09a4.38,4.38,0,1,1,4.37-4.38,4.38,4.38,0,0,1-4.37,4.38M102,163.82h99.48V136H102Z"/><path class="cls-5" d="M114.51,190.28a4.37,4.37,0,1,1,4.36-4.37,4.38,4.38,0,0,1-4.36,4.37m-12.55-18v18.18c0,5.26,4.56,9.53,10.18,9.53h89.3V172.28Z"/><path class="cls-5" d="M116,117.89a4.37,4.37,0,1,1,4.37-4.37A4.36,4.36,0,0,1,116,117.89Zm27-11.29a17,17,0,0,1,5.29-6.75H102v27.72h47.18A17.1,17.1,0,0,1,143,106.6Z"/><path class="cls-5" d="M216.25,108.11a14,14,0,0,0-14.66-8.25,19.44,19.44,0,0,0-1.36-4.81,19.21,19.21,0,0,0-17.41-11.58l-.41,0-.41,0a19.14,19.14,0,0,0-17.35,11.58,19.44,19.44,0,0,0-1.36,4.81,13.92,13.92,0,0,0-7.39,26.56,13.66,13.66,0,0,0,5.55,1.14h42a13.67,13.67,0,0,0,5.56-1.14A13.91,13.91,0,0,0,216.25,108.11Z"/><path class="cls-5" d="M113.59,153.55a4.38,4.38,0,1,1,4.37-4.37,4.37,4.37,0,0,1-4.37,4.37m-12.25,9.74h99.48v-27.8H101.34Z"/><path class="cls-5" d="M113.89,189.74a4.37,4.37,0,1,1,4.37-4.37,4.38,4.38,0,0,1-4.37,4.37m-12.55-18v18.18c0,5.27,4.56,9.54,10.18,9.54h89.3V171.74Z"/><path class="cls-5" d="M115.42,117.35a4.37,4.37,0,1,1,4.37-4.36A4.36,4.36,0,0,1,115.42,117.35Zm27-11.29a17,17,0,0,1,5.29-6.75H101.34V127h47.18A17.12,17.12,0,0,1,142.41,106.06Z"/><path class="cls-5" d="M215.63,107.57A14,14,0,0,0,201,99.32a19.44,19.44,0,0,0-1.36-4.81A19.21,19.21,0,0,0,182.2,82.93h-.82A19.11,19.11,0,0,0,164,94.51a18.62,18.62,0,0,0-1.36,4.81A13.92,13.92,0,1,0,160.83,127h42a13.94,13.94,0,0,0,12.81-19.46Z"/><path class="cls-5" d="M113,153a4.37,4.37,0,1,1,4.37-4.37A4.37,4.37,0,0,1,113,153m-12.24,9.74H200.2V135H100.73Z"/><path class="cls-5" d="M113.27,189.21a4.38,4.38,0,1,1,4.37-4.37,4.38,4.38,0,0,1-4.37,4.37m-12.54-18v18.19c0,5.26,4.55,9.53,10.17,9.53h89.3V171.2Z"/><path class="cls-5" d="M114.8,116.82a4.37,4.37,0,1,1,4.37-4.37A4.37,4.37,0,0,1,114.8,116.82Zm27-11.29a17,17,0,0,1,5.29-6.75H100.73V126.5H147.9A17.11,17.11,0,0,1,141.79,105.53Z"/><path class="cls-5" d="M215,107a14,14,0,0,0-14.66-8.24,19.15,19.15,0,0,0-18.77-16.4h-.82A19.13,19.13,0,0,0,163.42,94a18.8,18.8,0,0,0-1.36,4.82,13.91,13.91,0,1,0-1.85,27.7h42A13.92,13.92,0,0,0,215,107Z"/><path class="cls-5" d="M112.35,152.48a4.38,4.38,0,1,1,4.37-4.38,4.38,4.38,0,0,1-4.37,4.38m-12.24,9.73h99.47v-27.8H100.11Z"/><path class="cls-5" d="M112.65,188.67A4.37,4.37,0,1,1,117,184.3a4.37,4.37,0,0,1-4.37,4.37m-12.54-18v18.18c0,5.26,4.55,9.53,10.17,9.53h89.3V170.67Z"/><path class="cls-5" d="M114.18,116.28a4.37,4.37,0,1,1,4.37-4.37A4.36,4.36,0,0,1,114.18,116.28Zm27-11.29a17,17,0,0,1,5.29-6.75H100.11V126h47.17A17.1,17.1,0,0,1,141.17,105Z"/><path class="cls-5" d="M214.39,106.5a14,14,0,0,0-14.66-8.25,18.62,18.62,0,0,0-1.36-4.81A19.21,19.21,0,0,0,181,81.86l-.4,0-.42,0A19.11,19.11,0,0,0,162.8,93.44a18.62,18.62,0,0,0-1.36,4.81,13.92,13.92,0,0,0-7.39,26.56,13.62,13.62,0,0,0,5.54,1.14h42a13.67,13.67,0,0,0,5.56-1.14A13.91,13.91,0,0,0,214.39,106.5Z"/><path class="cls-5" d="M111.73,151.94a4.38,4.38,0,1,1,4.37-4.37,4.37,4.37,0,0,1-4.37,4.37m-12.24,9.73H199V133.88H99.49Z"/><path class="cls-5" d="M112,188.13a4.37,4.37,0,1,1,4.37-4.37,4.37,4.37,0,0,1-4.37,4.37m-12.54-18v18.18c0,5.27,4.55,9.54,10.17,9.54H199V170.13Z"/><path class="cls-5" d="M113.56,115.74a4.37,4.37,0,1,1,4.37-4.36A4.37,4.37,0,0,1,113.56,115.74Zm27-11.29a17.1,17.1,0,0,1,5.29-6.75H99.49v27.73h47.17A17.12,17.12,0,0,1,140.55,104.45Z"/><path class="cls-5" d="M213.77,106a14,14,0,0,0-14.66-8.25,18.62,18.62,0,0,0-1.36-4.81,19.21,19.21,0,0,0-17.41-11.58h-.82A19.12,19.12,0,0,0,162.18,92.9a18.62,18.62,0,0,0-1.36,4.81,13.92,13.92,0,0,0-7.39,26.56,13.8,13.8,0,0,0,5.54,1.15h42A13.94,13.94,0,0,0,213.77,106Z"/><path class="cls-5" d="M111.11,151.4a4.37,4.37,0,1,1,4.37-4.37,4.37,4.37,0,0,1-4.37,4.37m-12.24,9.74h99.47v-27.8H98.87Z"/><path class="cls-5" d="M111.41,187.6a4.38,4.38,0,1,1,4.37-4.37,4.37,4.37,0,0,1-4.37,4.37m-12.54-18v18.19c0,5.26,4.55,9.53,10.17,9.53h89.3V169.59Z"/><path class="cls-5" d="M112.94,115.21a4.37,4.37,0,1,1,4.37-4.37A4.37,4.37,0,0,1,112.94,115.21Zm27-11.29a17.1,17.1,0,0,1,5.29-6.75H98.87v27.72H146A17.11,17.11,0,0,1,139.93,103.92Z"/><path class="cls-5" d="M213.15,105.42a14,14,0,0,0-14.66-8.24,18.8,18.8,0,0,0-1.36-4.82,19.19,19.19,0,0,0-17.41-11.58h-.82a19.14,19.14,0,0,0-17.34,11.58,18.8,18.8,0,0,0-1.36,4.82,13.91,13.91,0,1,0-1.85,27.7h42a13.92,13.92,0,0,0,12.81-19.46Z"/><path class="cls-5" d="M110.49,150.87a4.38,4.38,0,1,1,4.37-4.38,4.38,4.38,0,0,1-4.37,4.38M98.25,160.6h99.47V132.8H98.25Z"/><path class="cls-5" d="M110.79,187.06a4.37,4.37,0,1,1,4.37-4.37,4.37,4.37,0,0,1-4.37,4.37m-12.54-18v18.18c0,5.26,4.55,9.53,10.17,9.53h89.3V169.06Z"/><path class="cls-5" d="M112.32,114.67a4.37,4.37,0,1,1,4.37-4.37A4.37,4.37,0,0,1,112.32,114.67Zm27-11.29a17,17,0,0,1,5.3-6.75H98.25v27.72h47.17A17.1,17.1,0,0,1,139.31,103.38Z"/><path class="cls-5" d="M212.53,104.89a14,14,0,0,0-14.66-8.25,18.62,18.62,0,0,0-1.36-4.81A19.19,19.19,0,0,0,179.1,80.25l-.4,0-.42,0a19.12,19.12,0,0,0-17.34,11.58,18.62,18.62,0,0,0-1.36,4.81,13.92,13.92,0,0,0-7.39,26.56,13.78,13.78,0,0,0,5.54,1.14h42a13.91,13.91,0,0,0,12.81-19.45Z"/><path class="cls-5" d="M109.87,150.33a4.38,4.38,0,1,1,4.37-4.37,4.37,4.37,0,0,1-4.37,4.37m-12.24,9.73h99.48V132.27H97.63Z"/><path class="cls-5" d="M110.17,186.52a4.37,4.37,0,1,1,4.37-4.37,4.37,4.37,0,0,1-4.37,4.37m-12.54-18V186.7c0,5.27,4.55,9.54,10.17,9.54h89.31V168.52Z"/><path class="cls-5" d="M111.7,114.13a4.37,4.37,0,1,1,4.37-4.36A4.37,4.37,0,0,1,111.7,114.13Zm27-11.29A16.92,16.92,0,0,1,144,96.09H97.63v27.73H144.8A17.11,17.11,0,0,1,138.7,102.84Z"/><path class="cls-5" d="M211.91,104.35a14,14,0,0,0-14.66-8.25,18.62,18.62,0,0,0-1.36-4.81,19.19,19.19,0,0,0-17.4-11.58h-.83a19.12,19.12,0,0,0-17.34,11.58A18.62,18.62,0,0,0,159,96.1a13.92,13.92,0,0,0-7.39,26.56,13.8,13.8,0,0,0,5.54,1.15h42a13.93,13.93,0,0,0,12.81-19.46Z"/><path class="cls-5" d="M109.25,149.79a4.37,4.37,0,1,1,4.37-4.37,4.37,4.37,0,0,1-4.37,4.37M97,159.53h99.48v-27.8H97Z"/><path class="cls-5" d="M109.55,186a4.38,4.38,0,1,1,4.37-4.37,4.37,4.37,0,0,1-4.37,4.37M97,168v18.19c0,5.26,4.55,9.53,10.17,9.53h89.31V168Z"/><path class="cls-5" d="M111.08,113.6a4.37,4.37,0,1,1,4.37-4.37A4.37,4.37,0,0,1,111.08,113.6Zm27-11.29a16.92,16.92,0,0,1,5.29-6.75H97v27.72h47.17A17.1,17.1,0,0,1,138.08,102.31Z"/><path class="cls-5" d="M211.29,103.81a14,14,0,0,0-14.66-8.24,18.8,18.8,0,0,0-1.36-4.82,19.19,19.19,0,0,0-17.4-11.58h-.82A19.14,19.14,0,0,0,159.7,90.75a18.8,18.8,0,0,0-1.36,4.82,13.91,13.91,0,1,0-1.84,27.7h42a13.91,13.91,0,0,0,12.81-19.46Z"/><path class="cls-5" d="M108.63,149.26a4.38,4.38,0,1,1,4.37-4.38,4.38,4.38,0,0,1-4.37,4.38M96.39,159h99.48v-27.8H96.39Z"/><path class="cls-5" d="M108.93,185.45a4.37,4.37,0,1,1,4.37-4.37,4.37,4.37,0,0,1-4.37,4.37m-12.54-18v18.18c0,5.26,4.55,9.53,10.17,9.53h89.31V167.45Z"/><path class="cls-5" d="M110.46,113.06a4.37,4.37,0,1,1,4.37-4.37A4.37,4.37,0,0,1,110.46,113.06Zm27-11.29A16.92,16.92,0,0,1,142.75,95H96.39v27.72h47.17A17.1,17.1,0,0,1,137.46,101.77Z"/><path class="cls-5" d="M210.68,103.28A14,14,0,0,0,196,95a18.62,18.62,0,0,0-1.36-4.81,19.19,19.19,0,0,0-17.4-11.58l-.41,0-.41,0a19.13,19.13,0,0,0-17.35,11.58A18.62,18.62,0,0,0,157.72,95a13.91,13.91,0,1,0-1.84,27.7h42a13.91,13.91,0,0,0,12.81-19.45Z"/><path class="cls-5" d="M108,148.72a4.38,4.38,0,1,1,4.37-4.37,4.37,4.37,0,0,1-4.37,4.37m-12.24,9.73h99.48V130.66H95.77Z"/><path class="cls-5" d="M108.31,184.91a4.37,4.37,0,1,1,4.37-4.37,4.37,4.37,0,0,1-4.37,4.37m-12.54-18v18.18c0,5.27,4.55,9.54,10.17,9.54h89.31V166.91Z"/><path class="cls-5" d="M109.84,112.52a4.37,4.37,0,1,1,4.37-4.36A4.37,4.37,0,0,1,109.84,112.52Zm27-11.29a16.92,16.92,0,0,1,5.29-6.75H95.77v27.73h47.17A17.12,17.12,0,0,1,136.84,101.23Z"/><path class="cls-5" d="M210.06,102.74a14,14,0,0,0-14.67-8.25A18.62,18.62,0,0,0,194,89.68a19.19,19.19,0,0,0-17.4-11.58h-.82a19.13,19.13,0,0,0-17.35,11.58,18.62,18.62,0,0,0-1.36,4.81,13.92,13.92,0,1,0-1.84,27.71h42a13.94,13.94,0,0,0,12.81-19.46Z"/><path class="cls-5" d="M107.4,148.18a4.37,4.37,0,1,1,4.36-4.37,4.38,4.38,0,0,1-4.36,4.37m-12.25,9.74h99.48v-27.8H95.15Z"/><path class="cls-5" d="M107.69,184.38a4.38,4.38,0,1,1,4.37-4.37,4.37,4.37,0,0,1-4.37,4.37m-12.54-18v18.19c0,5.26,4.56,9.53,10.17,9.53h89.31V166.37Z"/><path class="cls-5" d="M109.22,112a4.37,4.37,0,1,1,4.37-4.37A4.37,4.37,0,0,1,109.22,112Zm27-11.29A16.92,16.92,0,0,1,141.51,94H95.15v27.72h47.18A17.11,17.11,0,0,1,136.22,100.7Z"/><path class="cls-5" d="M209.44,102.2A14,14,0,0,0,194.78,94,19.19,19.19,0,0,0,176,77.56h-.82A19.15,19.15,0,0,0,156.48,94a13.91,13.91,0,1,0-1.84,27.7h42a13.92,13.92,0,0,0,12.81-19.46Z"/><path class="cls-5" d="M106.78,147.65a4.38,4.38,0,1,1,4.37-4.38,4.39,4.39,0,0,1-4.37,4.38m-12.25,9.73H194v-27.8H94.53Z"/><path class="cls-5" d="M107.07,183.84a4.37,4.37,0,1,1,4.37-4.37,4.37,4.37,0,0,1-4.37,4.37m-12.54-18V184c0,5.26,4.56,9.53,10.17,9.53H194V165.84Z"/><path class="cls-5" d="M108.6,111.45a4.37,4.37,0,1,1,4.37-4.37A4.37,4.37,0,0,1,108.6,111.45Zm27-11.29a16.92,16.92,0,0,1,5.29-6.75H94.53v27.72h47.18A17.1,17.1,0,0,1,135.6,100.16Z"/><path class="cls-5" d="M208.82,101.67a14,14,0,0,0-14.66-8.25A19.2,19.2,0,0,0,175.39,77L175,77l-.41,0a19.13,19.13,0,0,0-17.35,11.58,19.44,19.44,0,0,0-1.36,4.81,13.91,13.91,0,1,0-1.84,27.7h42a13.91,13.91,0,0,0,12.81-19.45Z"/><path class="cls-5" d="M106.16,147.11a4.38,4.38,0,1,1,4.37-4.37,4.38,4.38,0,0,1-4.37,4.37m-12.25,9.73h99.48V129.05H93.91Z"/><path class="cls-5" d="M106.45,183.3a4.37,4.37,0,1,1,4.37-4.37,4.37,4.37,0,0,1-4.37,4.37m-12.54-18v18.18c0,5.27,4.56,9.54,10.17,9.54h89.31V165.3Z"/><path class="cls-5" d="M108,110.91a4.37,4.37,0,1,1,4.37-4.36A4.37,4.37,0,0,1,108,110.91Zm27-11.29a16.92,16.92,0,0,1,5.29-6.75H93.91V120.6h47.18A17.12,17.12,0,0,1,135,99.62Z"/><path class="cls-5" d="M208.2,101.13a14,14,0,0,0-14.66-8.25,19.2,19.2,0,0,0-18.77-16.39H174A19.14,19.14,0,0,0,156.6,88.07a19.44,19.44,0,0,0-1.36,4.81,13.92,13.92,0,1,0-1.84,27.71h42a13.94,13.94,0,0,0,12.81-19.46Z"/><path class="cls-5" d="M105.54,146.57a4.37,4.37,0,1,1,4.37-4.37,4.38,4.38,0,0,1-4.37,4.37m-12.25,9.74h99.48v-27.8H93.29Z"/><path class="cls-5" d="M105.83,182.77a4.38,4.38,0,1,1,4.37-4.37,4.37,4.37,0,0,1-4.37,4.37m-12.54-18v18.18c0,5.27,4.56,9.54,10.17,9.54h89.31V164.76Z"/><path class="cls-5" d="M107.36,110.38a4.37,4.37,0,1,1,4.37-4.37A4.37,4.37,0,0,1,107.36,110.38Zm27-11.29a16.92,16.92,0,0,1,5.29-6.75H93.29v27.72h47.18A17.11,17.11,0,0,1,134.36,99.09Z"/><path class="cls-5" d="M207.58,100.59a14,14,0,0,0-14.66-8.24A19.19,19.19,0,0,0,174.15,76h-.82A19.15,19.15,0,0,0,156,87.53a19.64,19.64,0,0,0-1.36,4.82,13.91,13.91,0,1,0-1.84,27.7h42a13.92,13.92,0,0,0,12.81-19.46Z"/><path class="cls-5" d="M104.92,146a4.38,4.38,0,1,1,4.37-4.38,4.38,4.38,0,0,1-4.37,4.38m-12.25,9.73h99.48V128H92.67Z"/><path class="cls-5" d="M105.22,182.23a4.37,4.37,0,1,1,4.36-4.37,4.38,4.38,0,0,1-4.36,4.37m-12.55-18v18.18c0,5.26,4.56,9.53,10.18,9.53h89.3V164.23Z"/><path class="cls-5" d="M106.74,109.84a4.37,4.37,0,1,1,4.37-4.37A4.36,4.36,0,0,1,106.74,109.84Zm27-11.29A16.92,16.92,0,0,1,139,91.8H92.67v27.72h47.18A17.1,17.1,0,0,1,133.74,98.55Z"/><path class="cls-5" d="M207,100.06a14,14,0,0,0-14.66-8.25,19.2,19.2,0,0,0-18.77-16.39l-.41,0-.41,0A19.14,19.14,0,0,0,155.36,87,19.44,19.44,0,0,0,154,91.81a13.91,13.91,0,1,0-1.84,27.7h42A13.91,13.91,0,0,0,207,100.06Z"/><path class="cls-5" d="M104.3,145.5a4.38,4.38,0,1,1,4.37-4.37,4.37,4.37,0,0,1-4.37,4.37m-12.25,9.73h99.48V127.44H92.05Z"/><path class="cls-5" d="M104.6,181.69a4.37,4.37,0,1,1,4.36-4.37,4.38,4.38,0,0,1-4.36,4.37m-12.55-18v18.18c0,5.27,4.56,9.54,10.18,9.54h89.3V163.69Z"/><path class="cls-5" d="M106.12,109.3a4.37,4.37,0,1,1,4.37-4.36A4.36,4.36,0,0,1,106.12,109.3Zm27-11.29a17,17,0,0,1,5.29-6.75H92.05V119h47.18A17.12,17.12,0,0,1,133.12,98Z"/><path class="cls-5" d="M206.34,99.52a14,14,0,0,0-14.66-8.25,19.2,19.2,0,0,0-18.77-16.39h-.82a19.14,19.14,0,0,0-17.35,11.58,19.44,19.44,0,0,0-1.36,4.81A13.92,13.92,0,1,0,151.54,119h42a13.94,13.94,0,0,0,12.81-19.46Z"/><path class="cls-5" d="M103.68,145a4.37,4.37,0,1,1,4.37-4.37,4.37,4.37,0,0,1-4.37,4.37M91.43,154.7h99.48V126.9H91.43Z"/><path class="cls-5" d="M104,181.16a4.38,4.38,0,1,1,4.37-4.37,4.38,4.38,0,0,1-4.37,4.37m-12.55-18v18.18c0,5.27,4.56,9.54,10.18,9.54h89.3V163.15Z"/><path class="cls-5" d="M105.51,108.77a4.37,4.37,0,1,1,4.37-4.37A4.37,4.37,0,0,1,105.51,108.77Zm27-11.29a17,17,0,0,1,5.29-6.75H91.43v27.72h47.18A17.11,17.11,0,0,1,132.5,97.48Z"/><path class="cls-5" d="M205.72,99a14,14,0,0,0-14.66-8.24,19.64,19.64,0,0,0-1.36-4.82,19.21,19.21,0,0,0-17.41-11.58h-.82a19.2,19.2,0,0,0-18.71,16.4,13.91,13.91,0,1,0-1.84,27.7h42A13.92,13.92,0,0,0,205.72,99Z"/><path class="cls-5" d="M103.06,144.43a4.38,4.38,0,1,1,4.37-4.38,4.38,4.38,0,0,1-4.37,4.38m-12.24,9.73h99.47v-27.8H90.82Z"/><path class="cls-5" d="M103.36,180.62a4.37,4.37,0,1,1,4.37-4.37,4.38,4.38,0,0,1-4.37,4.37m-12.54-18V180.8c0,5.26,4.55,9.53,10.17,9.53h89.3V162.62Z"/><path class="cls-5" d="M104.89,108.23a4.37,4.37,0,1,1,4.37-4.37A4.36,4.36,0,0,1,104.89,108.23Zm27-11.29a17,17,0,0,1,5.29-6.75H90.82v27.72H138A17.1,17.1,0,0,1,131.88,96.94Z"/><path class="cls-5" d="M205.1,98.45a14,14,0,0,0-14.66-8.25,19.15,19.15,0,0,0-18.77-16.39l-.41,0-.41,0a19.11,19.11,0,0,0-17.34,11.58,18.62,18.62,0,0,0-1.36,4.81,13.91,13.91,0,1,0-1.85,27.7h42A13.91,13.91,0,0,0,205.1,98.45Z"/><path class="cls-5" d="M102.44,143.89a4.38,4.38,0,1,1,4.37-4.37,4.37,4.37,0,0,1-4.37,4.37M90.2,153.62h99.47V125.83H90.2Z"/><path class="cls-5" d="M102.74,180.08a4.37,4.37,0,1,1,4.37-4.37,4.37,4.37,0,0,1-4.37,4.37m-12.54-18v18.18c0,5.27,4.55,9.54,10.17,9.54h89.3V162.08Z"/><path class="cls-5" d="M104.27,107.69a4.37,4.37,0,1,1,4.37-4.36A4.36,4.36,0,0,1,104.27,107.69Zm27-11.29a17,17,0,0,1,5.29-6.75H90.2v27.73h47.17A17.12,17.12,0,0,1,131.26,96.4Z"/><path class="cls-5" d="M204.48,97.91a14,14,0,0,0-14.66-8.25,19.15,19.15,0,0,0-18.77-16.39l-.4,0-.42,0a19.11,19.11,0,0,0-17.34,11.58,18.62,18.62,0,0,0-1.36,4.81,13.92,13.92,0,1,0-1.85,27.71h42a13.94,13.94,0,0,0,12.81-19.46Z"/><path class="cls-5" d="M101.82,143.35a4.37,4.37,0,1,1,4.37-4.37,4.37,4.37,0,0,1-4.37,4.37m-12.24,9.74h99.47v-27.8H89.58Z"/><path class="cls-5" d="M102.12,179.55a4.38,4.38,0,1,1,4.37-4.37,4.37,4.37,0,0,1-4.37,4.37m-12.54-18v18.18c0,5.27,4.55,9.54,10.17,9.54h89.3V161.54Z"/><path class="cls-5" d="M103.65,107.16a4.37,4.37,0,1,1,4.37-4.37A4.37,4.37,0,0,1,103.65,107.16Zm27-11.29a17.1,17.1,0,0,1,5.29-6.75H89.58v27.72h47.17A17.11,17.11,0,0,1,130.64,95.87Z"/><path class="cls-5" d="M203.86,97.37a14,14,0,0,0-14.66-8.24,18.8,18.8,0,0,0-1.36-4.82,19.21,19.21,0,0,0-17.41-11.58h-.82a19.14,19.14,0,0,0-17.34,11.58,18.8,18.8,0,0,0-1.36,4.82,13.91,13.91,0,1,0-1.85,27.7h42a13.92,13.92,0,0,0,12.81-19.46Z"/><path class="cls-5" d="M101.2,142.82a4.38,4.38,0,1,1,4.37-4.38,4.38,4.38,0,0,1-4.37,4.38M89,152.55h99.47v-27.8H89Z"/><path class="cls-5" d="M101.5,179a4.37,4.37,0,1,1,4.37-4.37A4.37,4.37,0,0,1,101.5,179M89,161v18.19c0,5.26,4.55,9.53,10.17,9.53h89.3V161Z"/><path class="cls-5" d="M103,106.62a4.37,4.37,0,1,1,4.37-4.37A4.37,4.37,0,0,1,103,106.62Zm27-11.29a17.1,17.1,0,0,1,5.29-6.75H89V116.3h47.17A17.1,17.1,0,0,1,130,95.33Z"/><path class="cls-5" d="M203.24,96.84a14,14,0,0,0-14.66-8.25,18.62,18.62,0,0,0-1.36-4.81A19.19,19.19,0,0,0,169.81,72.2l-.4,0-.42,0a19.12,19.12,0,0,0-17.34,11.58,18.62,18.62,0,0,0-1.36,4.81,13.92,13.92,0,0,0-7.39,26.56,13.78,13.78,0,0,0,5.54,1.14h42a13.91,13.91,0,0,0,12.81-19.45Z"/><path class="cls-5" d="M100.58,142.28a4.38,4.38,0,1,1,4.37-4.37,4.37,4.37,0,0,1-4.37,4.37M88.34,152h99.47V124.22H88.34Z"/><path class="cls-5" d="M100.88,178.47a4.37,4.37,0,1,1,4.37-4.37,4.37,4.37,0,0,1-4.37,4.37m-12.54-18v18.18c0,5.27,4.55,9.54,10.17,9.54h89.3V160.47Z"/><path class="cls-5" d="M102.41,106.08a4.37,4.37,0,1,1,4.37-4.36A4.37,4.37,0,0,1,102.41,106.08Zm27-11.29A17,17,0,0,1,134.7,88H88.34v27.73h47.17A17.12,17.12,0,0,1,129.4,94.79Z"/><path class="cls-5" d="M202.62,96.3A14,14,0,0,0,188,88.05a18.62,18.62,0,0,0-1.36-4.81,19.19,19.19,0,0,0-17.41-11.58l-.4,0-.42,0A19.12,19.12,0,0,0,151,83.24a18.62,18.62,0,0,0-1.36,4.81,13.92,13.92,0,1,0-1.85,27.71h42A13.94,13.94,0,0,0,202.62,96.3Z"/><path class="cls-5" d="M100,141.74a4.37,4.37,0,1,1,4.37-4.37,4.37,4.37,0,0,1-4.37,4.37m-12.24,9.74H187.2v-27.8H87.72Z"/><path class="cls-5" d="M100.26,177.94a4.38,4.38,0,1,1,4.37-4.37,4.37,4.37,0,0,1-4.37,4.37m-12.54-18v18.18c0,5.27,4.55,9.54,10.17,9.54H187.2V159.93Z"/><path class="cls-5" d="M101.79,105.55a4.37,4.37,0,1,1,4.37-4.37A4.37,4.37,0,0,1,101.79,105.55Zm27-11.29a17,17,0,0,1,5.3-6.75H87.72v27.72h47.17A17.11,17.11,0,0,1,128.78,94.26Z"/><path class="cls-5" d="M202,95.76a14,14,0,0,0-14.66-8.24A18.8,18.8,0,0,0,186,82.7a19.19,19.19,0,0,0-17.4-11.58h-.83A19.14,19.14,0,0,0,150.41,82.7a18.8,18.8,0,0,0-1.36,4.82,13.91,13.91,0,1,0-1.85,27.7h42a14.1,14.1,0,0,0,5.57-1.14A13.91,13.91,0,0,0,202,95.76Z"/><path class="cls-5" d="M99.34,141.21a4.38,4.38,0,1,1,4.37-4.38,4.38,4.38,0,0,1-4.37,4.38M87.1,150.94h99.48v-27.8H87.1Z"/><path class="cls-5" d="M99.64,177.4A4.37,4.37,0,1,1,104,173a4.37,4.37,0,0,1-4.37,4.37m-12.54-18v18.19c0,5.26,4.55,9.53,10.17,9.53h89.31V159.39Z"/><path class="cls-5" d="M101.17,105a4.37,4.37,0,1,1,4.37-4.37A4.37,4.37,0,0,1,101.17,105Zm27-11.29A16.92,16.92,0,0,1,133.46,87H87.1v27.72h47.17A17.09,17.09,0,0,1,128.17,93.72Z"/><path class="cls-5" d="M201.38,95.23A14,14,0,0,0,186.72,87a18.62,18.62,0,0,0-1.36-4.81A19.19,19.19,0,0,0,168,70.59l-.41,0-.41,0a19.13,19.13,0,0,0-17.35,11.58A18.62,18.62,0,0,0,148.43,87,13.92,13.92,0,0,0,141,113.54a13.78,13.78,0,0,0,5.54,1.14h42a13.91,13.91,0,0,0,12.81-19.45Z"/><path class="cls-5" d="M98.72,140.67a4.38,4.38,0,1,1,4.37-4.37,4.37,4.37,0,0,1-4.37,4.37M86.48,150.4H186V122.61H86.48Z"/><path class="cls-5" d="M99,176.86a4.37,4.37,0,1,1,4.37-4.37A4.37,4.37,0,0,1,99,176.86m-12.54-18V177c0,5.27,4.55,9.54,10.17,9.54H186V158.86Z"/><path class="cls-5" d="M100.55,104.47a4.37,4.37,0,1,1,4.37-4.36A4.37,4.37,0,0,1,100.55,104.47Zm27-11.29a16.92,16.92,0,0,1,5.29-6.75H86.48v27.73h47.17A17.12,17.12,0,0,1,127.55,93.18Z"/><path class="cls-5" d="M200.77,94.69a14,14,0,0,0-14.67-8.25,18.62,18.62,0,0,0-1.36-4.81,19.19,19.19,0,0,0-17.4-11.58l-.41,0-.41,0a19.13,19.13,0,0,0-17.35,11.58,18.62,18.62,0,0,0-1.36,4.81A13.92,13.92,0,1,0,146,114.15h42a13.94,13.94,0,0,0,12.81-19.46Z"/><path class="cls-5" d="M98.1,140.13a4.37,4.37,0,1,1,4.37-4.37,4.37,4.37,0,0,1-4.37,4.37m-12.24,9.74h99.48v-27.8H85.86Z"/><path class="cls-5" d="M98.4,176.33a4.38,4.38,0,1,1,4.37-4.37,4.38,4.38,0,0,1-4.37,4.37m-12.54-18V176.5c0,5.27,4.55,9.54,10.17,9.54h89.31V158.32Z"/><path class="cls-5" d="M99.93,103.94a4.37,4.37,0,1,1,4.37-4.37A4.37,4.37,0,0,1,99.93,103.94Zm27-11.3a17,17,0,0,1,5.29-6.74H85.86v27.72H133A17.12,17.12,0,0,1,126.93,92.64Z"/><path class="cls-5" d="M200.15,94.15a14,14,0,0,0-14.67-8.24,18.8,18.8,0,0,0-1.36-4.82,19.19,19.19,0,0,0-17.4-11.58h-.82a19.13,19.13,0,0,0-17.35,11.58,18.8,18.8,0,0,0-1.36,4.82,13.91,13.91,0,1,0-1.84,27.7h42a14.08,14.08,0,0,0,5.56-1.14A13.91,13.91,0,0,0,200.15,94.15Z"/><path class="cls-5" d="M97.48,139.6a4.38,4.38,0,1,1,4.37-4.38,4.38,4.38,0,0,1-4.37,4.38m-12.24,9.73h99.48v-27.8H85.24Z"/><path class="cls-5" d="M97.78,175.79a4.37,4.37,0,1,1,4.37-4.37,4.37,4.37,0,0,1-4.37,4.37m-12.54-18V176c0,5.26,4.55,9.53,10.17,9.53h89.31V157.78Z"/><path class="cls-5" d="M99.31,103.4A4.37,4.37,0,1,1,103.68,99,4.37,4.37,0,0,1,99.31,103.4Zm27-11.29a16.92,16.92,0,0,1,5.29-6.75H85.24v27.72h47.18A17.1,17.1,0,0,1,126.31,92.11Z"/><path class="cls-5" d="M199.53,93.61a14,14,0,0,0-14.66-8.24A19.2,19.2,0,0,0,166.1,69l-.41,0-.41,0a19.15,19.15,0,0,0-18.71,16.39,13.91,13.91,0,1,0-1.84,27.7h42a13.92,13.92,0,0,0,12.81-19.46Z"/><path class="cls-5" d="M96.87,139.06a4.38,4.38,0,1,1,4.37-4.37,4.38,4.38,0,0,1-4.37,4.37m-12.25,9.73H184.1V121H84.62Z"/><path class="cls-5" d="M97.16,175.25a4.37,4.37,0,1,1,4.37-4.37,4.37,4.37,0,0,1-4.37,4.37m-12.54-18v18.18c0,5.27,4.56,9.54,10.17,9.54H184.1V157.25Z"/><path class="cls-5" d="M98.69,102.86a4.37,4.37,0,1,1,4.37-4.36A4.37,4.37,0,0,1,98.69,102.86Zm27-11.29A16.92,16.92,0,0,1,131,84.82H84.62v27.73H131.8A17.12,17.12,0,0,1,125.69,91.57Z"/><path class="cls-5" d="M198.91,93.08a14,14,0,0,0-14.66-8.25,19.2,19.2,0,0,0-18.77-16.39l-.41,0-.41,0A19.15,19.15,0,0,0,146,84.83a13.92,13.92,0,1,0-1.84,27.71h42a13.94,13.94,0,0,0,12.81-19.46Z"/><path class="cls-5" d="M96.25,138.52a4.37,4.37,0,1,1,4.37-4.37,4.38,4.38,0,0,1-4.37,4.37M84,148.26h99.48v-27.8H84Z"/><path class="cls-5" d="M96.54,174.71a4.37,4.37,0,1,1,4.37-4.36,4.37,4.37,0,0,1-4.37,4.36M84,156.71v18.18c0,5.27,4.56,9.54,10.17,9.54h89.31V156.71Z"/><path class="cls-5" d="M98.07,102.33A4.37,4.37,0,1,1,102.44,98,4.37,4.37,0,0,1,98.07,102.33Zm27-11.3a17,17,0,0,1,5.29-6.74H84V112h47.18A17.12,17.12,0,0,1,125.07,91Z"/><path class="cls-5" d="M198.29,92.54a14,14,0,0,0-14.66-8.24,19.19,19.19,0,0,0-18.77-16.4H164a19.14,19.14,0,0,0-17.35,11.58,19.64,19.64,0,0,0-1.36,4.82,13.91,13.91,0,1,0-1.84,27.7h42a13.92,13.92,0,0,0,12.81-19.46Z"/><path class="cls-5" d="M95.63,138a4.38,4.38,0,1,1,4.37-4.38A4.39,4.39,0,0,1,95.63,138m-12.25,9.73h99.48v-27.8H83.38Z"/><path class="cls-5" d="M95.92,174.18a4.37,4.37,0,1,1,4.37-4.37,4.37,4.37,0,0,1-4.37,4.37m-12.54-18v18.19c0,5.26,4.56,9.53,10.17,9.53h89.31V156.17Z"/><path class="cls-5" d="M97.45,101.79a4.37,4.37,0,1,1,4.37-4.37A4.37,4.37,0,0,1,97.45,101.79Zm27-11.29a16.92,16.92,0,0,1,5.29-6.75H83.38v27.72h47.18A17.1,17.1,0,0,1,124.45,90.5Z"/><path class="cls-5" d="M197.67,92A14,14,0,0,0,183,83.76a19.2,19.2,0,0,0-18.77-16.39l-.41,0-.41,0A19.14,19.14,0,0,0,146.07,79a19.44,19.44,0,0,0-1.36,4.81,13.91,13.91,0,1,0-1.84,27.7h42A13.92,13.92,0,0,0,197.67,92Z"/><path class="cls-5" d="M95,137.45a4.38,4.38,0,1,1,4.37-4.37A4.37,4.37,0,0,1,95,137.45m-12.25,9.73h99.48V119.39H82.76Z"/><path class="cls-5" d="M95.3,173.64a4.37,4.37,0,1,1,4.37-4.37,4.37,4.37,0,0,1-4.37,4.37m-12.54-18v18.18c0,5.27,4.56,9.54,10.18,9.54h89.3V155.64Z"/><path class="cls-5" d="M96.83,101.25a4.37,4.37,0,1,1,4.37-4.36A4.36,4.36,0,0,1,96.83,101.25Zm27-11.29a16.92,16.92,0,0,1,5.29-6.75H82.76v27.73h47.18A17.12,17.12,0,0,1,123.83,90Z"/><path class="cls-5" d="M197.05,91.47a14,14,0,0,0-14.66-8.25,19.2,19.2,0,0,0-18.77-16.39l-.41,0-.41,0a19.14,19.14,0,0,0-17.35,11.58,19.44,19.44,0,0,0-1.36,4.81,13.92,13.92,0,1,0-1.84,27.71h42a13.94,13.94,0,0,0,12.81-19.46Z"/><path class="cls-5" d="M94.39,136.91a4.37,4.37,0,1,1,4.37-4.37,4.37,4.37,0,0,1-4.37,4.37m-12.25,9.74h99.48v-27.8H82.14Z"/><path class="cls-5" d="M94.69,173.1a4.37,4.37,0,1,1,4.36-4.36,4.37,4.37,0,0,1-4.36,4.36m-12.55-18v18.18c0,5.27,4.56,9.54,10.18,9.54h89.3V155.1Z"/><path class="cls-5" d="M96.21,100.72a4.37,4.37,0,1,1,4.37-4.37A4.37,4.37,0,0,1,96.21,100.72Zm27-11.3a17,17,0,0,1,5.29-6.74H82.14V110.4h47.18A17.12,17.12,0,0,1,123.21,89.42Z"/><path class="cls-5" d="M196.43,90.93a14,14,0,0,0-14.66-8.24A19.19,19.19,0,0,0,163,66.29h-.82a19.14,19.14,0,0,0-17.35,11.58,19.64,19.64,0,0,0-1.36,4.82,13.91,13.91,0,1,0-1.84,27.7h42a13.92,13.92,0,0,0,12.81-19.46Z"/><path class="cls-5" d="M93.77,136.38A4.38,4.38,0,1,1,98.14,132a4.38,4.38,0,0,1-4.37,4.38m-12.25,9.73H181v-27.8H81.52Z"/><path class="cls-5" d="M94.07,172.57a4.37,4.37,0,1,1,4.36-4.37,4.38,4.38,0,0,1-4.36,4.37m-12.55-18v18.19c0,5.26,4.56,9.53,10.18,9.53H181V154.56Z"/><path class="cls-5" d="M95.6,100.18A4.37,4.37,0,1,1,100,95.81,4.36,4.36,0,0,1,95.6,100.18Zm27-11.29a17,17,0,0,1,5.29-6.75H81.52v27.72H128.7A17.1,17.1,0,0,1,122.59,88.89Z"/><path class="cls-5" d="M195.81,90.39a14,14,0,0,0-14.66-8.24,19.44,19.44,0,0,0-1.36-4.81,19.21,19.21,0,0,0-17.41-11.58l-.41,0-.41,0a19.14,19.14,0,0,0-17.35,11.58,19.44,19.44,0,0,0-1.36,4.81,13.91,13.91,0,1,0-1.84,27.7h42a13.92,13.92,0,0,0,12.81-19.46Z"/><path class="cls-5" d="M93.15,135.84a4.38,4.38,0,1,1,4.37-4.37,4.37,4.37,0,0,1-4.37,4.37m-12.24,9.73h99.47v-27.8H80.91Z"/><path class="cls-5" d="M93.45,172a4.37,4.37,0,1,1,4.37-4.37A4.38,4.38,0,0,1,93.45,172M80.91,154v18.18c0,5.27,4.55,9.54,10.17,9.54h89.3V154Z"/><path class="cls-5" d="M95,99.64a4.37,4.37,0,1,1,4.37-4.36A4.36,4.36,0,0,1,95,99.64Zm27-11.29a17,17,0,0,1,5.29-6.75H80.91v27.73h47.17A17.12,17.12,0,0,1,122,88.35Z"/><path class="cls-5" d="M195.19,89.86a14,14,0,0,0-14.66-8.25,19.15,19.15,0,0,0-18.77-16.39l-.41,0-.41,0A19.11,19.11,0,0,0,143.6,76.8a18.62,18.62,0,0,0-1.36,4.81,13.92,13.92,0,1,0-1.85,27.71h42a13.94,13.94,0,0,0,12.81-19.46Z"/><path class="cls-5" d="M92.53,135.3a4.37,4.37,0,1,1,4.37-4.37,4.37,4.37,0,0,1-4.37,4.37M80.29,145h99.47v-27.8H80.29Z"/><path class="cls-5" d="M92.83,171.49a4.37,4.37,0,1,1,4.37-4.36,4.37,4.37,0,0,1-4.37,4.36m-12.54-18v18.18c0,5.27,4.55,9.54,10.17,9.54h89.3V153.49Z"/><path class="cls-5" d="M94.36,99.11a4.37,4.37,0,1,1,4.37-4.37A4.37,4.37,0,0,1,94.36,99.11Zm27-11.3a17,17,0,0,1,5.29-6.74H80.29v27.72h47.17A17.12,17.12,0,0,1,121.35,87.81Z"/><path class="cls-5" d="M194.57,89.32a14,14,0,0,0-14.66-8.24,19.15,19.15,0,0,0-18.77-16.4h-.82A19.11,19.11,0,0,0,143,76.26a18.8,18.8,0,0,0-1.36,4.82,13.91,13.91,0,1,0-1.85,27.7h42a13.92,13.92,0,0,0,12.81-19.46Z"/><path class="cls-5" d="M91.91,134.77a4.38,4.38,0,1,1,4.37-4.38,4.38,4.38,0,0,1-4.37,4.38M79.67,144.5h99.47V116.7H79.67Z"/><path class="cls-5" d="M92.21,171a4.37,4.37,0,1,1,4.37-4.37A4.37,4.37,0,0,1,92.21,171M79.67,153v18.19c0,5.26,4.55,9.53,10.17,9.53h89.3V153Z"/><path class="cls-5" d="M93.74,98.57a4.37,4.37,0,1,1,4.37-4.37A4.36,4.36,0,0,1,93.74,98.57Zm27-11.29A17.1,17.1,0,0,1,126,80.53H79.67v27.72h47.17A17.11,17.11,0,0,1,120.73,87.28Z"/><path class="cls-5" d="M194,88.78a14,14,0,0,0-14.66-8.24,18.62,18.62,0,0,0-1.36-4.81,19.21,19.21,0,0,0-17.41-11.58l-.4,0-.42,0a19.11,19.11,0,0,0-17.34,11.58A18.62,18.62,0,0,0,141,80.54a13.92,13.92,0,0,0-7.39,26.56,13.78,13.78,0,0,0,5.54,1.14h42A13.92,13.92,0,0,0,194,88.78Z"/><path class="cls-5" d="M91.29,134.23a4.38,4.38,0,1,1,4.37-4.37,4.37,4.37,0,0,1-4.37,4.37M79.05,144h99.47v-27.8H79.05Z"/><path class="cls-5" d="M91.59,170.42A4.37,4.37,0,1,1,96,166.05a4.37,4.37,0,0,1-4.37,4.37m-12.54-18V170.6c0,5.27,4.55,9.54,10.17,9.54h89.3V152.42Z"/><path class="cls-5" d="M93.12,98a4.37,4.37,0,1,1,4.37-4.36A4.37,4.37,0,0,1,93.12,98Zm27-11.29A17.1,17.1,0,0,1,125.4,80H79.05v27.73h47.17A17.12,17.12,0,0,1,120.11,86.74Z"/><path class="cls-5" d="M193.33,88.25A14,14,0,0,0,178.67,80a18.62,18.62,0,0,0-1.36-4.81A19.19,19.19,0,0,0,159.9,63.61l-.4,0-.42,0a19.12,19.12,0,0,0-17.34,11.58A18.62,18.62,0,0,0,140.38,80a13.92,13.92,0,1,0-1.85,27.71h42a13.94,13.94,0,0,0,12.81-19.46Z"/><path class="cls-5" d="M90.67,133.69A4.37,4.37,0,1,1,95,129.32a4.37,4.37,0,0,1-4.37,4.37m-12.24,9.74H177.9v-27.8H78.43Z"/><path class="cls-5" d="M91,169.88a4.37,4.37,0,1,1,4.37-4.36A4.37,4.37,0,0,1,91,169.88m-12.54-18v18.18c0,5.27,4.55,9.54,10.17,9.54h89.3V151.88Z"/><path class="cls-5" d="M92.5,97.5a4.38,4.38,0,1,1,4.37-4.37A4.37,4.37,0,0,1,92.5,97.5Zm27-11.3a17.07,17.07,0,0,1,5.3-6.74H78.43v27.72H125.6A17.12,17.12,0,0,1,119.49,86.2Z"/><path class="cls-5" d="M192.71,87.71a14,14,0,0,0-14.66-8.24,18.8,18.8,0,0,0-1.36-4.82,19.19,19.19,0,0,0-17.41-11.58h-.82a19.12,19.12,0,0,0-17.34,11.58,18.8,18.8,0,0,0-1.36,4.82,13.91,13.91,0,1,0-1.85,27.7h42a13.92,13.92,0,0,0,12.81-19.46Z"/><path class="cls-5" d="M90.05,133.16a4.38,4.38,0,1,1,4.37-4.38,4.38,4.38,0,0,1-4.37,4.38m-12.24,9.73h99.48v-27.8H77.81Z"/><path class="cls-5" d="M90.35,169.35A4.37,4.37,0,1,1,94.72,165a4.37,4.37,0,0,1-4.37,4.37m-12.54-18v18.19c0,5.26,4.55,9.53,10.17,9.53h89.31V151.34Z"/><path class="cls-5" d="M91.88,97a4.37,4.37,0,1,1,4.37-4.37A4.37,4.37,0,0,1,91.88,97Zm27-11.29a17,17,0,0,1,5.3-6.75H77.81v27.72H125A17.11,17.11,0,0,1,118.87,85.67Z"/><path class="cls-5" d="M192.09,87.17a14,14,0,0,0-14.66-8.24,18.62,18.62,0,0,0-1.36-4.81,19.19,19.19,0,0,0-17.4-11.58l-.41,0-.42,0A19.12,19.12,0,0,0,140.5,74.12a18.62,18.62,0,0,0-1.36,4.81,13.92,13.92,0,0,0-7.39,26.56,13.78,13.78,0,0,0,5.54,1.14h42a13.91,13.91,0,0,0,12.81-19.46Z"/><path class="cls-5" d="M89.43,132.62a4.38,4.38,0,1,1,4.37-4.37,4.37,4.37,0,0,1-4.37,4.37m-12.24,9.73h99.48v-27.8H77.19Z"/><path class="cls-5" d="M89.73,168.81a4.37,4.37,0,1,1,4.37-4.37,4.37,4.37,0,0,1-4.37,4.37m-12.54-18V169c0,5.27,4.55,9.54,10.17,9.54h89.31V150.81Z"/><path class="cls-5" d="M91.26,96.42a4.37,4.37,0,1,1,4.37-4.37A4.37,4.37,0,0,1,91.26,96.42Zm27-11.29a16.92,16.92,0,0,1,5.29-6.75H77.19v27.73h47.17A17.11,17.11,0,0,1,118.26,85.13Z"/><path class="cls-5" d="M191.47,86.64a14,14,0,0,0-14.66-8.25,18.62,18.62,0,0,0-1.36-4.81A19.19,19.19,0,0,0,158.05,62l-.41,0-.41,0a19.13,19.13,0,0,0-17.35,11.58,18.62,18.62,0,0,0-1.36,4.81,13.92,13.92,0,1,0-1.85,27.71h42a13.93,13.93,0,0,0,12.81-19.46Z"/><path class="cls-5" d="M88.81,132.08a4.37,4.37,0,1,1,4.37-4.37,4.37,4.37,0,0,1-4.37,4.37m-12.24,9.74h99.48V114H76.57Z"/><path class="cls-5" d="M89.11,168.27a4.37,4.37,0,1,1,4.37-4.36,4.37,4.37,0,0,1-4.37,4.36m-12.54-18v18.18c0,5.27,4.55,9.54,10.17,9.54h89.31V150.27Z"/><path class="cls-5" d="M90.64,95.89A4.38,4.38,0,1,1,95,91.52,4.37,4.37,0,0,1,90.64,95.89Zm27-11.3a17,17,0,0,1,5.29-6.74H76.57v27.72h47.17A17.12,17.12,0,0,1,117.64,84.59Z"/><path class="cls-5" d="M190.85,86.1a14,14,0,0,0-14.66-8.25A18.84,18.84,0,0,0,174.83,73a19.19,19.19,0,0,0-17.4-11.58h-.82A19.13,19.13,0,0,0,139.26,73a18.84,18.84,0,0,0-1.36,4.81,13.92,13.92,0,1,0-1.84,27.71h42a14.08,14.08,0,0,0,5.56-1.14A13.9,13.9,0,0,0,190.85,86.1Z"/><path class="cls-5" d="M88.19,131.55a4.38,4.38,0,1,1,4.37-4.38,4.38,4.38,0,0,1-4.37,4.38M76,141.28h99.48v-27.8H76Z"/><path class="cls-5" d="M88.49,167.74a4.37,4.37,0,1,1,4.37-4.37,4.37,4.37,0,0,1-4.37,4.37M76,149.73v18.19c0,5.26,4.55,9.53,10.17,9.53h89.31V149.73Z"/><path class="cls-5" d="M90,95.35A4.37,4.37,0,1,1,94.39,91,4.37,4.37,0,0,1,90,95.35Zm27-11.29a16.92,16.92,0,0,1,5.29-6.75H76V105h47.17A17.1,17.1,0,0,1,117,84.06Z"/><path class="cls-5" d="M190.24,85.56a14,14,0,0,0-14.67-8.24,18.62,18.62,0,0,0-1.36-4.81,19.19,19.19,0,0,0-17.4-11.58l-.41,0-.41,0a19.13,19.13,0,0,0-17.35,11.58,18.62,18.62,0,0,0-1.36,4.81,13.91,13.91,0,1,0-1.84,27.7h42a13.92,13.92,0,0,0,12.81-19.46Z"/><path class="cls-5" d="M87.57,131a4.38,4.38,0,1,1,4.37-4.37A4.38,4.38,0,0,1,87.57,131m-12.24,9.73h99.48v-27.8H75.33Z"/><path class="cls-5" d="M87.87,167.2a4.37,4.37,0,1,1,4.37-4.37,4.37,4.37,0,0,1-4.37,4.37m-12.54-18v18.18c0,5.27,4.55,9.54,10.17,9.54h89.31V149.2Z"/><path class="cls-5" d="M89.4,94.81a4.37,4.37,0,1,1,4.37-4.37A4.37,4.37,0,0,1,89.4,94.81Zm27-11.29a16.92,16.92,0,0,1,5.29-6.75H75.33V104.5h47.18A17.12,17.12,0,0,1,116.4,83.52Z"/><path class="cls-5" d="M189.62,85A14,14,0,0,0,175,76.78a19.2,19.2,0,0,0-18.77-16.39l-.41,0-.41,0A19.13,19.13,0,0,0,138,72a18.62,18.62,0,0,0-1.36,4.81,13.92,13.92,0,1,0-1.84,27.71h42A13.94,13.94,0,0,0,189.62,85Z"/><path class="cls-5" d="M87,130.47a4.37,4.37,0,1,1,4.37-4.37A4.38,4.38,0,0,1,87,130.47m-12.25,9.74h99.48v-27.8H74.71Z"/><path class="cls-5" d="M87.25,166.66a4.37,4.37,0,1,1,4.37-4.36,4.37,4.37,0,0,1-4.37,4.36m-12.54-18v18.18c0,5.27,4.56,9.54,10.17,9.54h89.31V148.66Z"/><path class="cls-5" d="M88.78,94.28a4.38,4.38,0,1,1,4.37-4.37A4.37,4.37,0,0,1,88.78,94.28Zm27-11.3a16.89,16.89,0,0,1,5.29-6.74H74.71V104h47.18A17.12,17.12,0,0,1,115.78,83Z"/><path class="cls-5" d="M189,84.49a14,14,0,0,0-14.66-8.25,19.2,19.2,0,0,0-18.77-16.39h-.82A19.15,19.15,0,0,0,136,76.24,13.92,13.92,0,1,0,134.2,104h42A13.92,13.92,0,0,0,189,84.49Z"/><path class="cls-5" d="M86.34,129.94a4.38,4.38,0,1,1,4.37-4.38,4.39,4.39,0,0,1-4.37,4.38m-12.25,9.73h99.48v-27.8H74.09Z"/><path class="cls-5" d="M86.63,166.13A4.37,4.37,0,1,1,91,161.76a4.37,4.37,0,0,1-4.37,4.37m-12.54-18v18.19c0,5.26,4.56,9.53,10.17,9.53h89.31V148.12Z"/><path class="cls-5" d="M88.16,93.74a4.37,4.37,0,1,1,4.37-4.37A4.37,4.37,0,0,1,88.16,93.74Zm27-11.29a16.92,16.92,0,0,1,5.29-6.75H74.09v27.72h47.18A17.11,17.11,0,0,1,115.16,82.45Z"/><path class="cls-5" d="M188.38,84a14,14,0,0,0-14.66-8.24A19.22,19.22,0,0,0,155,59.31h-.82A19.16,19.16,0,0,0,136.78,70.9a19.44,19.44,0,0,0-1.36,4.81,13.91,13.91,0,1,0-1.84,27.7h42A13.92,13.92,0,0,0,188.38,84Z"/><path class="cls-5" d="M85.72,129.4A4.38,4.38,0,1,1,90.09,125a4.38,4.38,0,0,1-4.37,4.37m-12.25,9.73H173v-27.8H73.47Z"/><path class="cls-5" d="M86,165.59a4.37,4.37,0,1,1,4.37-4.37A4.37,4.37,0,0,1,86,165.59m-12.54-18v18.18c0,5.27,4.56,9.54,10.17,9.54H173V147.59Z"/><path class="cls-5" d="M87.54,93.2a4.37,4.37,0,1,1,4.37-4.37A4.37,4.37,0,0,1,87.54,93.2Zm27-11.29a16.92,16.92,0,0,1,5.29-6.75H73.47v27.73h47.18A17.12,17.12,0,0,1,114.54,81.91Z"/><path class="cls-5" d="M187.76,83.42a14,14,0,0,0-14.66-8.25,19.2,19.2,0,0,0-18.77-16.39l-.41,0-.41,0a19.14,19.14,0,0,0-17.35,11.58,19.44,19.44,0,0,0-1.36,4.81A13.92,13.92,0,1,0,133,102.88h42a13.94,13.94,0,0,0,12.81-19.46Z"/><path class="cls-5" d="M85.1,128.86a4.37,4.37,0,1,1,4.37-4.37,4.37,4.37,0,0,1-4.37,4.37M72.85,138.6h99.48V110.8H72.85Z"/><path class="cls-5" d="M85.39,165.05a4.37,4.37,0,1,1,4.37-4.36,4.37,4.37,0,0,1-4.37,4.36m-12.54-18v18.18c0,5.27,4.56,9.54,10.17,9.54h89.31V147.05Z"/><path class="cls-5" d="M86.92,92.67a4.38,4.38,0,1,1,4.37-4.37A4.37,4.37,0,0,1,86.92,92.67Zm27-11.3a16.89,16.89,0,0,1,5.29-6.74H72.85v27.72H120A17.12,17.12,0,0,1,113.92,81.37Z"/><path class="cls-5" d="M187.14,82.88a14,14,0,0,0-14.66-8.25,19.2,19.2,0,0,0-18.77-16.39h-.82a19.14,19.14,0,0,0-17.35,11.58,19.57,19.57,0,0,0-1.36,4.81,13.92,13.92,0,1,0-1.84,27.71h42a13.92,13.92,0,0,0,12.81-19.46Z"/><path class="cls-5" d="M84.48,128.33A4.38,4.38,0,1,1,88.85,124a4.38,4.38,0,0,1-4.37,4.38m-12.25,9.73h99.48v-27.8H72.23Z"/><path class="cls-5" d="M84.78,164.52a4.37,4.37,0,1,1,4.36-4.37,4.38,4.38,0,0,1-4.36,4.37m-12.55-18V164.7c0,5.26,4.56,9.53,10.18,9.53h89.3V146.51Z"/><path class="cls-5" d="M86.3,92.13a4.37,4.37,0,1,1,4.37-4.37A4.37,4.37,0,0,1,86.3,92.13Zm27-11.29a16.92,16.92,0,0,1,5.29-6.75H72.23v27.72h47.18A17.11,17.11,0,0,1,113.3,80.84Z"/><path class="cls-5" d="M186.52,82.34a14,14,0,0,0-14.66-8.24,19.22,19.22,0,0,0-18.77-16.4h-.82a19.16,19.16,0,0,0-17.35,11.59,19.44,19.44,0,0,0-1.36,4.81,13.91,13.91,0,1,0-1.84,27.7h42a13.92,13.92,0,0,0,12.81-19.46Z"/><path class="cls-5" d="M83.86,127.79a4.38,4.38,0,1,1,4.37-4.37,4.37,4.37,0,0,1-4.37,4.37m-12.25,9.73h99.48v-27.8H71.61Z"/><path class="cls-5" d="M84.16,164a4.37,4.37,0,1,1,4.36-4.37A4.38,4.38,0,0,1,84.16,164M71.61,146v18.18c0,5.27,4.56,9.54,10.18,9.54h89.3V146Z"/><path class="cls-5" d="M85.68,91.59a4.37,4.37,0,1,1,4.37-4.37A4.36,4.36,0,0,1,85.68,91.59Zm27-11.29A17,17,0,0,1,118,73.55H71.61v27.73h47.18A17.12,17.12,0,0,1,112.68,80.3Z"/><path class="cls-5" d="M185.9,81.81a14,14,0,0,0-14.66-8.25,19.44,19.44,0,0,0-1.36-4.81,19.21,19.21,0,0,0-17.41-11.58l-.41,0-.41,0A19.14,19.14,0,0,0,134.3,68.75a19.44,19.44,0,0,0-1.36,4.81,13.92,13.92,0,1,0-1.84,27.71h42A13.94,13.94,0,0,0,185.9,81.81Z"/><path class="cls-5" d="M83.24,127.25a4.37,4.37,0,1,1,4.37-4.37,4.37,4.37,0,0,1-4.37,4.37M71,137h99.48v-27.8H71Z"/><path class="cls-5" d="M83.54,163.44a4.37,4.37,0,1,1,4.37-4.36,4.37,4.37,0,0,1-4.37,4.36M71,145.44v18.18c0,5.27,4.56,9.54,10.18,9.54h89.3V145.44Z"/><path class="cls-5" d="M85.07,91.06a4.38,4.38,0,1,1,4.37-4.37A4.37,4.37,0,0,1,85.07,91.06Zm27-11.3A17,17,0,0,1,117.35,73H71v27.72h47.18A17.12,17.12,0,0,1,112.06,79.76Z"/><path class="cls-5" d="M185.28,81.27A14,14,0,0,0,170.62,73a19.57,19.57,0,0,0-1.36-4.81,19.21,19.21,0,0,0-17.41-11.58H151a19.11,19.11,0,0,0-17.34,11.58A18.73,18.73,0,0,0,132.33,73a13.92,13.92,0,1,0-1.85,27.71h42a13.92,13.92,0,0,0,12.81-19.46Z"/><path class="cls-5" d="M82.62,126.72A4.38,4.38,0,1,1,87,122.34a4.38,4.38,0,0,1-4.37,4.38m-12.24,9.73h99.47v-27.8H70.38Z"/><path class="cls-5" d="M82.92,162.91a4.37,4.37,0,1,1,4.37-4.37,4.38,4.38,0,0,1-4.37,4.37m-12.54-18v18.19c0,5.26,4.55,9.53,10.17,9.53h89.3V144.9Z"/><path class="cls-5" d="M84.45,90.52a4.37,4.37,0,1,1,4.37-4.37A4.37,4.37,0,0,1,84.45,90.52Zm27-11.29a17,17,0,0,1,5.29-6.75H70.38V100.2h47.17A17.11,17.11,0,0,1,111.44,79.23Z"/><path class="cls-5" d="M184.66,80.73A14,14,0,0,0,170,72.49a19,19,0,0,0-1.36-4.81,19.24,19.24,0,0,0-17.41-11.59h-.82a19.14,19.14,0,0,0-17.34,11.59,18.62,18.62,0,0,0-1.36,4.81,13.92,13.92,0,0,0-7.39,26.56,13.78,13.78,0,0,0,5.54,1.14h42a13.92,13.92,0,0,0,12.81-19.46Z"/><path class="cls-5" d="M82,126.18a4.38,4.38,0,1,1,4.37-4.37A4.37,4.37,0,0,1,82,126.18m-12.24,9.73h99.47v-27.8H69.76Z"/><path class="cls-5" d="M82.3,162.37A4.37,4.37,0,1,1,86.67,158a4.37,4.37,0,0,1-4.37,4.37m-12.54-18v18.18c0,5.27,4.55,9.54,10.17,9.54h89.3V144.37Z"/><path class="cls-5" d="M83.83,90a4.37,4.37,0,1,1,4.37-4.37A4.36,4.36,0,0,1,83.83,90Zm27-11.29a17,17,0,0,1,5.29-6.75H69.76V99.66h47.17A17.1,17.1,0,0,1,110.82,78.69Z"/><path class="cls-5" d="M184,80.2A14,14,0,0,0,169.38,72,18.62,18.62,0,0,0,168,67.14a19.21,19.21,0,0,0-17.41-11.58l-.4,0-.42,0a19.11,19.11,0,0,0-17.34,11.58A18.62,18.62,0,0,0,131.09,72a13.92,13.92,0,1,0-1.85,27.71h42A13.94,13.94,0,0,0,184,80.2Z"/><path class="cls-5" d="M81.38,125.64a4.37,4.37,0,1,1,4.37-4.37,4.37,4.37,0,0,1-4.37,4.37m-12.24,9.74h99.47v-27.8H69.14Z"/><path class="cls-5" d="M81.68,161.83a4.37,4.37,0,1,1,4.37-4.36,4.37,4.37,0,0,1-4.37,4.36m-12.54-18V162c0,5.27,4.55,9.54,10.17,9.54h89.3V143.83Z"/><path class="cls-5" d="M83.21,89.45a4.38,4.38,0,1,1,4.37-4.37A4.37,4.37,0,0,1,83.21,89.45Zm27-11.3a17.07,17.07,0,0,1,5.29-6.74H69.14V99.13h47.17A17.12,17.12,0,0,1,110.2,78.15Z"/><path class="cls-5" d="M183.42,79.66a14,14,0,0,0-14.66-8.25,18.73,18.73,0,0,0-1.36-4.81A19.2,19.2,0,0,0,150,55h-.82A19.12,19.12,0,0,0,131.83,66.6a18.73,18.73,0,0,0-1.36,4.81,13.92,13.92,0,1,0-1.85,27.71h42a13.92,13.92,0,0,0,12.81-19.46Z"/><path class="cls-5" d="M80.76,125.11a4.38,4.38,0,1,1,4.37-4.38,4.38,4.38,0,0,1-4.37,4.38m-12.24,9.73H168V107H68.52Z"/><path class="cls-5" d="M81.06,161.3a4.37,4.37,0,1,1,4.37-4.37,4.37,4.37,0,0,1-4.37,4.37m-12.54-18v18.19c0,5.26,4.55,9.53,10.17,9.53H168V143.29Z"/><path class="cls-5" d="M82.59,88.91A4.37,4.37,0,1,1,87,84.54,4.37,4.37,0,0,1,82.59,88.91Zm27-11.29a17.1,17.1,0,0,1,5.29-6.75H68.52V98.59h47.17A17.11,17.11,0,0,1,109.58,77.62Z"/><path class="cls-5" d="M182.8,79.12a14,14,0,0,0-14.66-8.24,18.62,18.62,0,0,0-1.36-4.81,19.22,19.22,0,0,0-17.41-11.59h-.82a19.15,19.15,0,0,0-17.34,11.59,18.62,18.62,0,0,0-1.36,4.81,13.92,13.92,0,0,0-7.39,26.56A13.78,13.78,0,0,0,128,98.58h42A13.92,13.92,0,0,0,182.8,79.12Z"/><path class="cls-5" d="M80.14,124.57a4.38,4.38,0,1,1,4.37-4.37,4.38,4.38,0,0,1-4.37,4.37M67.9,134.3h99.47V106.5H67.9Z"/><path class="cls-5" d="M80.44,160.76a4.37,4.37,0,1,1,4.37-4.37,4.37,4.37,0,0,1-4.37,4.37m-12.54-18v18.18c0,5.27,4.55,9.54,10.17,9.54h89.3V142.76Z"/><path class="cls-5" d="M82,88.37A4.37,4.37,0,1,1,86.34,84,4.37,4.37,0,0,1,82,88.37Zm27-11.29a17,17,0,0,1,5.3-6.75H67.9V98.05h47.17A17.1,17.1,0,0,1,109,77.08Z"/><path class="cls-5" d="M182.18,78.59a14,14,0,0,0-14.66-8.25,18.62,18.62,0,0,0-1.36-4.81A19.19,19.19,0,0,0,148.75,54l-.4,0-.42,0a19.12,19.12,0,0,0-17.34,11.58,18.62,18.62,0,0,0-1.36,4.81,13.92,13.92,0,1,0-1.85,27.71h42a13.94,13.94,0,0,0,12.81-19.46Z"/><path class="cls-5" d="M79.52,124a4.37,4.37,0,1,1,4.37-4.37A4.37,4.37,0,0,1,79.52,124m-12.24,9.74h99.48V106H67.28Z"/><path class="cls-5" d="M79.82,160.22a4.37,4.37,0,1,1,4.37-4.36,4.37,4.37,0,0,1-4.37,4.36m-12.54-18V160.4c0,5.27,4.55,9.54,10.17,9.54h89.31V142.22Z"/><path class="cls-5" d="M81.35,87.84a4.38,4.38,0,1,1,4.37-4.37A4.37,4.37,0,0,1,81.35,87.84Zm27-11.3a17,17,0,0,1,5.29-6.75H67.28V97.52h47.17A17.11,17.11,0,0,1,108.35,76.54Z"/><path class="cls-5" d="M181.56,78.05A14,14,0,0,0,166.9,69.8,18.73,18.73,0,0,0,165.54,65a19.19,19.19,0,0,0-17.4-11.58h-.83A19.12,19.12,0,0,0,130,65a18.73,18.73,0,0,0-1.36,4.81,13.92,13.92,0,1,0-1.85,27.71h42a14.1,14.1,0,0,0,5.57-1.14A13.9,13.9,0,0,0,181.56,78.05Z"/><path class="cls-5" d="M78.9,123.5a4.38,4.38,0,1,1,4.37-4.38,4.38,4.38,0,0,1-4.37,4.38m-12.24,9.73h99.48v-27.8H66.66Z"/><path class="cls-5" d="M79.2,159.69a4.37,4.37,0,1,1,4.37-4.37,4.37,4.37,0,0,1-4.37,4.37m-12.54-18v18.19c0,5.26,4.55,9.53,10.17,9.53h89.31V141.68Z"/><path class="cls-5" d="M80.73,87.3a4.37,4.37,0,1,1,4.37-4.37A4.37,4.37,0,0,1,80.73,87.3Zm27-11.29A16.92,16.92,0,0,1,113,69.26H66.66V97h47.17A17.1,17.1,0,0,1,107.73,76Z"/><path class="cls-5" d="M180.94,77.51a14,14,0,0,0-14.66-8.24,18.62,18.62,0,0,0-1.36-4.81,19.21,19.21,0,0,0-17.4-11.59h-.82a19.15,19.15,0,0,0-17.35,11.59A18.62,18.62,0,0,0,128,69.27,13.91,13.91,0,1,0,126.15,97h42a13.91,13.91,0,0,0,12.81-19.46Z"/><path class="cls-5" d="M78.28,123a4.38,4.38,0,1,1,4.37-4.37A4.38,4.38,0,0,1,78.28,123M66,132.69h99.48v-27.8H66Z"/><path class="cls-5" d="M78.58,159.15A4.37,4.37,0,1,1,83,154.78a4.37,4.37,0,0,1-4.37,4.37M66,141.15v18.18c0,5.27,4.55,9.54,10.17,9.54h89.31V141.15Z"/><path class="cls-5" d="M80.11,86.76a4.37,4.37,0,1,1,4.37-4.37A4.37,4.37,0,0,1,80.11,86.76Zm27-11.29a16.92,16.92,0,0,1,5.29-6.75H66V96.44h47.17A17.1,17.1,0,0,1,107.11,75.47Z"/><path class="cls-5" d="M180.33,77a14,14,0,0,0-14.67-8.25,18.62,18.62,0,0,0-1.36-4.81,19.19,19.19,0,0,0-17.4-11.58l-.41,0-.41,0a19.13,19.13,0,0,0-17.35,11.58,18.62,18.62,0,0,0-1.36,4.81,13.92,13.92,0,1,0-1.84,27.71h42A13.94,13.94,0,0,0,180.33,77Z"/><path class="cls-5" d="M77.66,122.42A4.37,4.37,0,1,1,82,118.05a4.37,4.37,0,0,1-4.37,4.37m-12.24,9.74H164.9v-27.8H65.42Z"/><path class="cls-5" d="M78,158.61a4.37,4.37,0,1,1,4.37-4.36A4.37,4.37,0,0,1,78,158.61m-12.54-18v18.18c0,5.27,4.55,9.54,10.17,9.54H164.9V140.61Z"/><path class="cls-5" d="M79.49,86.23a4.38,4.38,0,1,1,4.37-4.37A4.37,4.37,0,0,1,79.49,86.23Zm27-11.3a17,17,0,0,1,5.29-6.75H65.42V95.91h47.17A17.13,17.13,0,0,1,106.49,74.93Z"/><path class="cls-5" d="M179.71,76.44A14,14,0,0,0,165,68.19a18.62,18.62,0,0,0-1.36-4.81,19.19,19.19,0,0,0-17.4-11.58h-.82a19.13,19.13,0,0,0-17.35,11.58,18.62,18.62,0,0,0-1.36,4.81,13.92,13.92,0,1,0-1.84,27.71h42a14.08,14.08,0,0,0,5.56-1.14A13.91,13.91,0,0,0,179.71,76.44Z"/><path class="cls-5" d="M77.05,121.89a4.38,4.38,0,1,1,4.36-4.38,4.39,4.39,0,0,1-4.36,4.38M64.8,131.62h99.48v-27.8H64.8Z"/><path class="cls-5" d="M77.34,158.08a4.38,4.38,0,1,1,4.37-4.37,4.37,4.37,0,0,1-4.37,4.37m-12.54-18v18.19c0,5.26,4.56,9.53,10.17,9.53h89.31V140.07Z"/><path class="cls-5" d="M78.87,85.69a4.37,4.37,0,1,1,4.37-4.37A4.37,4.37,0,0,1,78.87,85.69Zm27-11.29a16.92,16.92,0,0,1,5.29-6.75H64.8V95.37H112A17.11,17.11,0,0,1,105.87,74.4Z"/><path class="cls-5" d="M179.09,75.9a14,14,0,0,0-14.66-8.24,19.22,19.22,0,0,0-18.77-16.4h-.82a19.17,19.17,0,0,0-18.71,16.4,13.91,13.91,0,1,0-1.84,27.7h42A13.92,13.92,0,0,0,179.09,75.9Z"/><path class="cls-5" d="M76.43,121.35A4.38,4.38,0,1,1,80.8,117a4.38,4.38,0,0,1-4.37,4.37m-12.25,9.73h99.48v-27.8H64.18Z"/><path class="cls-5" d="M76.72,157.54a4.37,4.37,0,1,1,4.37-4.37,4.37,4.37,0,0,1-4.37,4.37m-12.54-18v18.18c0,5.27,4.56,9.54,10.17,9.54h89.31V139.54Z"/><path class="cls-5" d="M78.25,85.15a4.37,4.37,0,1,1,4.37-4.37A4.37,4.37,0,0,1,78.25,85.15Zm27-11.29a16.92,16.92,0,0,1,5.29-6.75H64.18V94.83h47.18A17.1,17.1,0,0,1,105.25,73.86Z"/><path class="cls-5" d="M178.47,75.37a14,14,0,0,0-14.66-8.25A19.2,19.2,0,0,0,145,50.73l-.41,0-.41,0a19.13,19.13,0,0,0-17.35,11.58,19.44,19.44,0,0,0-1.36,4.81,13.92,13.92,0,1,0-1.84,27.71h42a13.94,13.94,0,0,0,12.81-19.46Z"/><path class="cls-5" d="M75.81,120.81a4.37,4.37,0,1,1,4.37-4.37,4.38,4.38,0,0,1-4.37,4.37m-12.25,9.74H163v-27.8H63.56Z"/><path class="cls-5" d="M76.1,157a4.37,4.37,0,1,1,4.37-4.37A4.37,4.37,0,0,1,76.1,157M63.56,139v18.18c0,5.27,4.56,9.54,10.17,9.54H163V139Z"/><path class="cls-5" d="M77.63,84.62A4.38,4.38,0,1,1,82,80.25,4.37,4.37,0,0,1,77.63,84.62Zm27-11.3a17,17,0,0,1,5.29-6.75H63.56V94.3h47.18A17.12,17.12,0,0,1,104.63,73.32Z"/><path class="cls-5" d="M177.85,74.83a14,14,0,0,0-14.66-8.25,19.2,19.2,0,0,0-18.77-16.39h-.82a19.14,19.14,0,0,0-17.35,11.58,19.44,19.44,0,0,0-1.36,4.81,13.92,13.92,0,1,0-1.84,27.71h42a13.92,13.92,0,0,0,12.81-19.46Z"/><path class="cls-5" d="M75.19,120.28a4.38,4.38,0,1,1,4.37-4.38,4.39,4.39,0,0,1-4.37,4.38M62.94,130h99.48v-27.8H62.94Z"/><path class="cls-5" d="M75.48,156.47a4.38,4.38,0,1,1,4.37-4.37,4.37,4.37,0,0,1-4.37,4.37m-12.54-18v18.19c0,5.26,4.56,9.53,10.17,9.53h89.31V138.46Z"/><path class="cls-5" d="M77,84.08a4.37,4.37,0,1,1,4.37-4.37A4.37,4.37,0,0,1,77,84.08Zm27-11.29A16.92,16.92,0,0,1,109.3,66H62.94V93.76h47.18A17.11,17.11,0,0,1,104,72.79Z"/><path class="cls-5" d="M177.23,74.29a14,14,0,0,0-14.66-8.24,19.19,19.19,0,0,0-18.77-16.4H143a19.15,19.15,0,0,0-17.35,11.58,19.64,19.64,0,0,0-1.36,4.82,13.91,13.91,0,1,0-1.84,27.7h42a13.92,13.92,0,0,0,12.81-19.46Z"/><path class="cls-5" d="M74.57,119.74a4.38,4.38,0,1,1,4.37-4.37,4.37,4.37,0,0,1-4.37,4.37m-12.25,9.73H161.8v-27.8H62.32Z"/><path class="cls-5" d="M74.87,155.93a4.37,4.37,0,1,1,4.36-4.37,4.38,4.38,0,0,1-4.36,4.37m-12.55-18v18.18c0,5.27,4.56,9.54,10.18,9.54h89.3V137.93Z"/><path class="cls-5" d="M76.39,83.54a4.37,4.37,0,1,1,4.37-4.37A4.36,4.36,0,0,1,76.39,83.54Zm27-11.29a16.92,16.92,0,0,1,5.29-6.75H62.32V93.22H109.5A17.1,17.1,0,0,1,103.39,72.25Z"/><path class="cls-5" d="M176.61,73.76A14,14,0,0,0,162,65.51a19.2,19.2,0,0,0-18.77-16.39l-.41,0-.41,0A19.14,19.14,0,0,0,125,60.7a19.44,19.44,0,0,0-1.36,4.81,13.92,13.92,0,1,0-1.84,27.71h42a13.94,13.94,0,0,0,12.81-19.46Z"/><path class="cls-5" d="M74,119.2a4.37,4.37,0,1,1,4.37-4.37A4.37,4.37,0,0,1,74,119.2M61.7,128.94h99.48v-27.8H61.7Z"/><path class="cls-5" d="M74.25,155.39A4.37,4.37,0,1,1,78.61,151a4.38,4.38,0,0,1-4.36,4.37m-12.55-18v18.18c0,5.27,4.56,9.54,10.18,9.54h89.3V137.39Z"/><path class="cls-5" d="M75.77,83a4.38,4.38,0,1,1,4.37-4.37A4.37,4.37,0,0,1,75.77,83Zm27-11.3A17.08,17.08,0,0,1,108.06,65H61.7V92.69h47.18A17.12,17.12,0,0,1,102.77,71.71Z"/><path class="cls-5" d="M176,73.22A14,14,0,0,0,161.33,65a19.2,19.2,0,0,0-18.77-16.39h-.82a19.14,19.14,0,0,0-17.35,11.58A19.44,19.44,0,0,0,123,65a13.92,13.92,0,1,0-1.84,27.71h42A13.92,13.92,0,0,0,176,73.22Z"/><path class="cls-5" d="M73.33,118.67a4.38,4.38,0,1,1,4.37-4.38,4.38,4.38,0,0,1-4.37,4.38M61.08,128.4h99.48V100.6H61.08Z"/><path class="cls-5" d="M73.63,154.86A4.38,4.38,0,1,1,78,150.49a4.38,4.38,0,0,1-4.37,4.37m-12.55-18V155c0,5.26,4.56,9.53,10.18,9.53h89.3V136.85Z"/><path class="cls-5" d="M75.16,82.47a4.37,4.37,0,1,1,4.37-4.37A4.37,4.37,0,0,1,75.16,82.47Zm27-11.29a17,17,0,0,1,5.29-6.75H61.08V92.15h47.18A17.11,17.11,0,0,1,102.15,71.18Z"/><path class="cls-5" d="M175.37,72.68a14,14,0,0,0-14.66-8.24,19.64,19.64,0,0,0-1.36-4.82A19.23,19.23,0,0,0,141.94,48h-.82a19.2,19.2,0,0,0-18.71,16.4,13.91,13.91,0,1,0-1.84,27.7h42a13.92,13.92,0,0,0,12.81-19.46Z"/><path class="cls-5" d="M72.71,118.13a4.38,4.38,0,1,1,4.37-4.37,4.37,4.37,0,0,1-4.37,4.37m-12.24,9.73h99.47v-27.8H60.47Z"/><path class="cls-5" d="M73,154.32A4.37,4.37,0,1,1,77.38,150,4.38,4.38,0,0,1,73,154.32m-12.54-18V154.5c0,5.27,4.55,9.54,10.17,9.54h89.3V136.32Z"/><path class="cls-5" d="M74.54,81.93a4.37,4.37,0,1,1,4.37-4.37A4.36,4.36,0,0,1,74.54,81.93Zm27-11.29a17,17,0,0,1,5.29-6.75H60.47V91.61h47.17A17.1,17.1,0,0,1,101.53,70.64Z"/><path class="cls-5" d="M174.75,72.15a14,14,0,0,0-14.66-8.25,19.15,19.15,0,0,0-18.77-16.39l-.41,0-.41,0a19.11,19.11,0,0,0-17.34,11.58,18.62,18.62,0,0,0-1.36,4.81A13.92,13.92,0,1,0,120,91.61h42a13.94,13.94,0,0,0,12.81-19.46Z"/><path class="cls-5" d="M72.09,117.59a4.37,4.37,0,1,1,4.37-4.37,4.37,4.37,0,0,1-4.37,4.37m-12.24,9.74h99.47V99.53H59.85Z"/><path class="cls-5" d="M72.39,153.78a4.37,4.37,0,1,1,4.37-4.37,4.37,4.37,0,0,1-4.37,4.37m-12.54-18V154c0,5.27,4.55,9.54,10.17,9.54h89.3V135.78Z"/><path class="cls-5" d="M73.92,81.4A4.38,4.38,0,1,1,78.29,77,4.37,4.37,0,0,1,73.92,81.4Zm27-11.3a17.08,17.08,0,0,1,5.29-6.75H59.85V91.08H107A17.12,17.12,0,0,1,100.91,70.1Z"/><path class="cls-5" d="M174.13,71.61a14,14,0,0,0-14.66-8.25,18.62,18.62,0,0,0-1.36-4.81A19.21,19.21,0,0,0,140.7,47h-.82a19.11,19.11,0,0,0-17.34,11.58,18.62,18.62,0,0,0-1.36,4.81,13.92,13.92,0,1,0-1.85,27.71h42a13.92,13.92,0,0,0,12.81-19.46Z"/><path class="cls-5" d="M71.47,117.06a4.38,4.38,0,1,1,4.37-4.38,4.38,4.38,0,0,1-4.37,4.38m-12.24,9.73H158.7V99H59.23Z"/><path class="cls-5" d="M71.77,153.25a4.38,4.38,0,1,1,4.37-4.37,4.37,4.37,0,0,1-4.37,4.37m-12.54-18v18.19c0,5.26,4.55,9.53,10.17,9.53h89.3V135.24Z"/><path class="cls-5" d="M73.3,80.86a4.37,4.37,0,1,1,4.37-4.37A4.37,4.37,0,0,1,73.3,80.86Zm27-11.29a17.1,17.1,0,0,1,5.29-6.75H59.23V90.54H106.4A17.11,17.11,0,0,1,100.29,69.57Z"/><path class="cls-5" d="M173.51,71.07a14,14,0,0,0-14.66-8.24A18.8,18.8,0,0,0,157.49,58a19.23,19.23,0,0,0-17.41-11.58h-.82A19.14,19.14,0,0,0,121.92,58a18.8,18.8,0,0,0-1.36,4.82,13.92,13.92,0,0,0-7.39,26.56,13.78,13.78,0,0,0,5.54,1.14h42a13.92,13.92,0,0,0,12.81-19.46Z"/><path class="cls-5" d="M70.85,116.52a4.38,4.38,0,1,1,4.37-4.37,4.38,4.38,0,0,1-4.37,4.37m-12.24,9.73h99.47V98.45H58.61Z"/><path class="cls-5" d="M71.15,152.71a4.37,4.37,0,1,1,4.37-4.37,4.37,4.37,0,0,1-4.37,4.37m-12.54-18v18.18c0,5.27,4.55,9.54,10.17,9.54h89.3V134.71Z"/><path class="cls-5" d="M72.68,80.32A4.37,4.37,0,1,1,77.05,76,4.37,4.37,0,0,1,72.68,80.32ZM99.67,69A17.1,17.1,0,0,1,105,62.28H58.61V90h47.17A17.1,17.1,0,0,1,99.67,69Z"/><path class="cls-5" d="M172.89,70.54a14,14,0,0,0-14.66-8.25,18.62,18.62,0,0,0-1.36-4.81A19.19,19.19,0,0,0,139.46,45.9l-.4,0-.42,0A19.12,19.12,0,0,0,121.3,57.48a18.62,18.62,0,0,0-1.36,4.81,13.92,13.92,0,0,0-7.39,26.56A13.62,13.62,0,0,0,118.09,90h42a13.67,13.67,0,0,0,5.56-1.14A13.9,13.9,0,0,0,172.89,70.54Z"/><path class="cls-5" d="M70.23,116a4.37,4.37,0,1,1,4.37-4.37A4.37,4.37,0,0,1,70.23,116M58,125.72h99.47V97.92H58Z"/><path class="cls-5" d="M70.53,152.17a4.37,4.37,0,1,1,4.37-4.37,4.37,4.37,0,0,1-4.37,4.37M58,134.17v18.18c0,5.27,4.55,9.54,10.17,9.54h89.3V134.17Z"/><path class="cls-5" d="M72.06,79.79a4.38,4.38,0,1,1,4.37-4.37A4.37,4.37,0,0,1,72.06,79.79Zm27-11.3a17.1,17.1,0,0,1,5.3-6.75H58V89.47h47.17A17.12,17.12,0,0,1,99.05,68.49Z"/><path class="cls-5" d="M172.27,70a14,14,0,0,0-14.66-8.25,18.62,18.62,0,0,0-1.36-4.81,19.19,19.19,0,0,0-17.41-11.58H138a19.12,19.12,0,0,0-17.34,11.58,18.62,18.62,0,0,0-1.36,4.81,13.92,13.92,0,1,0-1.85,27.71h42A13.92,13.92,0,0,0,172.27,70Z"/><path class="cls-5" d="M69.61,115.45A4.38,4.38,0,1,1,74,111.07a4.38,4.38,0,0,1-4.37,4.38m-12.24,9.73h99.48V97.38H57.37Z"/><path class="cls-5" d="M69.91,151.64a4.38,4.38,0,1,1,4.37-4.37,4.37,4.37,0,0,1-4.37,4.37m-12.54-18v18.19c0,5.26,4.55,9.53,10.17,9.53h89.31V133.63Z"/><path class="cls-5" d="M71.44,79.25a4.37,4.37,0,1,1,4.37-4.37A4.37,4.37,0,0,1,71.44,79.25ZM98.44,68a16.92,16.92,0,0,1,5.29-6.75H57.37V88.93h47.17A17.09,17.09,0,0,1,98.44,68Z"/><path class="cls-5" d="M171.65,69.46A14,14,0,0,0,157,61.22a18.8,18.8,0,0,0-1.36-4.82,19.2,19.2,0,0,0-17.4-11.58h-.83A19.14,19.14,0,0,0,120.06,56.4a18.8,18.8,0,0,0-1.36,4.82,13.92,13.92,0,0,0-7.39,26.56,13.78,13.78,0,0,0,5.54,1.14h42a13.91,13.91,0,0,0,12.81-19.46Z"/><path class="cls-5" d="M69,114.91a4.38,4.38,0,1,1,4.37-4.37A4.38,4.38,0,0,1,69,114.91m-12.24,9.73h99.48V96.84H56.75Z"/><path class="cls-5" d="M69.29,151.1a4.37,4.37,0,1,1,4.37-4.37,4.37,4.37,0,0,1-4.37,4.37m-12.54-18v18.18c0,5.27,4.55,9.54,10.17,9.54h89.31V133.1Z"/><path class="cls-5" d="M70.82,78.71a4.37,4.37,0,1,1,4.37-4.37A4.37,4.37,0,0,1,70.82,78.71Zm27-11.29a16.92,16.92,0,0,1,5.29-6.75H56.75V88.39h47.17A17.09,17.09,0,0,1,97.82,67.42Z"/><path class="cls-5" d="M171,68.93a14,14,0,0,0-14.66-8.25A18.62,18.62,0,0,0,155,55.87a19.19,19.19,0,0,0-17.4-11.58l-.41,0-.41,0a19.13,19.13,0,0,0-17.35,11.58,18.62,18.62,0,0,0-1.36,4.81,13.92,13.92,0,0,0-7.39,26.56,13.62,13.62,0,0,0,5.54,1.14h42a13.75,13.75,0,0,0,5.57-1.14A13.89,13.89,0,0,0,171,68.93Z"/><path class="cls-5" d="M68.37,114.37A4.37,4.37,0,1,1,72.74,110a4.37,4.37,0,0,1-4.37,4.37m-12.24,9.74h99.48V96.31H56.13Z"/><path class="cls-5" d="M68.67,150.56A4.37,4.37,0,1,1,73,146.19a4.37,4.37,0,0,1-4.37,4.37m-12.54-18v18.18c0,5.27,4.55,9.54,10.17,9.54h89.31V132.56Z"/><path class="cls-5" d="M70.2,78.18a4.38,4.38,0,1,1,4.37-4.37A4.37,4.37,0,0,1,70.2,78.18Zm27-11.3a17,17,0,0,1,5.29-6.75H56.13V87.86H103.3A17.12,17.12,0,0,1,97.2,66.88Z"/><path class="cls-5" d="M170.42,68.39a14,14,0,0,0-14.67-8.25,18.62,18.62,0,0,0-1.36-4.81A19.19,19.19,0,0,0,137,43.75h-.82a19.13,19.13,0,0,0-17.35,11.58,18.62,18.62,0,0,0-1.36,4.81,13.92,13.92,0,1,0-1.84,27.71h42a14.08,14.08,0,0,0,5.56-1.14A13.92,13.92,0,0,0,170.42,68.39Z"/><path class="cls-5" d="M67.75,113.84a4.38,4.38,0,1,1,4.37-4.38,4.38,4.38,0,0,1-4.37,4.38m-12.24,9.73H155V95.77H55.51Z"/><path class="cls-5" d="M68.05,150a4.38,4.38,0,1,1,4.37-4.37A4.37,4.37,0,0,1,68.05,150M55.51,132v18.19c0,5.26,4.55,9.53,10.17,9.53H155V132Z"/><path class="cls-5" d="M69.58,77.64A4.37,4.37,0,1,1,74,73.27,4.37,4.37,0,0,1,69.58,77.64Zm27-11.29a16.92,16.92,0,0,1,5.29-6.75H55.51V87.32h47.17A17.1,17.1,0,0,1,96.58,66.35Z"/><path class="cls-5" d="M169.8,67.85a14,14,0,0,0-14.67-8.24,18.8,18.8,0,0,0-1.36-4.82,19.2,19.2,0,0,0-17.4-11.58h-.82A19.14,19.14,0,0,0,118.2,54.79a18.8,18.8,0,0,0-1.36,4.82A13.91,13.91,0,1,0,115,87.31h42A13.92,13.92,0,0,0,169.8,67.85Z"/><path class="cls-5" d="M67.13,113.3a4.38,4.38,0,1,1,4.37-4.37,4.38,4.38,0,0,1-4.37,4.37M54.89,123h99.48V95.23H54.89Z"/><path class="cls-5" d="M67.43,149.49a4.37,4.37,0,1,1,4.37-4.37,4.37,4.37,0,0,1-4.37,4.37m-12.54-18v18.18c0,5.27,4.55,9.53,10.17,9.53h89.31V131.49Z"/><path class="cls-5" d="M69,77.1a4.37,4.37,0,1,1,4.37-4.37A4.37,4.37,0,0,1,69,77.1ZM96,65.81a16.92,16.92,0,0,1,5.29-6.75H54.89V86.78h47.18A17.1,17.1,0,0,1,96,65.81Z"/><path class="cls-5" d="M169.18,67.32a14,14,0,0,0-14.66-8.25,19.2,19.2,0,0,0-18.77-16.39l-.41,0-.41,0a19.15,19.15,0,0,0-18.71,16.39,13.92,13.92,0,0,0-7.39,26.56,13.63,13.63,0,0,0,5.55,1.14h42a13.71,13.71,0,0,0,5.56-1.14A13.91,13.91,0,0,0,169.18,67.32Z"/><path class="cls-5" d="M66.52,112.76a4.37,4.37,0,1,1,4.37-4.37,4.38,4.38,0,0,1-4.37,4.37M54.27,122.5h99.48V94.7H54.27Z"/><path class="cls-5" d="M66.81,149a4.37,4.37,0,1,1,4.37-4.37A4.37,4.37,0,0,1,66.81,149M54.27,131v18.18c0,5.27,4.56,9.54,10.17,9.54h89.31V131Z"/><path class="cls-5" d="M68.34,76.57a4.38,4.38,0,1,1,4.37-4.37A4.37,4.37,0,0,1,68.34,76.57Zm27-11.3a17,17,0,0,1,5.29-6.75H54.27V86.25h47.18A17.12,17.12,0,0,1,95.34,65.27Z"/><path class="cls-5" d="M168.56,66.78a14,14,0,0,0-14.66-8.25,19.2,19.2,0,0,0-18.77-16.39h-.82A19.15,19.15,0,0,0,115.6,58.53a13.92,13.92,0,1,0-1.84,27.71h42a13.92,13.92,0,0,0,12.81-19.46Z"/><path class="cls-5" d="M65.9,112.23a4.38,4.38,0,1,1,4.37-4.38,4.39,4.39,0,0,1-4.37,4.38M53.65,122h99.48V94.16H53.65Z"/><path class="cls-5" d="M66.19,148.42a4.38,4.38,0,1,1,4.37-4.37,4.37,4.37,0,0,1-4.37,4.37m-12.54-18V148.6c0,5.26,4.56,9.53,10.17,9.53h89.31V130.41Z"/><path class="cls-5" d="M67.72,76a4.37,4.37,0,1,1,4.37-4.37A4.37,4.37,0,0,1,67.72,76Zm27-11.29A16.92,16.92,0,0,1,100,58H53.65V85.71h47.18A17.11,17.11,0,0,1,94.72,64.74Z"/><path class="cls-5" d="M167.94,66.24A14,14,0,0,0,153.28,58a19.19,19.19,0,0,0-18.77-16.4h-.82a19.15,19.15,0,0,0-17.35,11.58A19.64,19.64,0,0,0,115,58a13.91,13.91,0,1,0-1.84,27.7h42a13.92,13.92,0,0,0,12.81-19.46Z"/><path class="cls-5" d="M65.28,111.69a4.38,4.38,0,1,1,4.37-4.37,4.38,4.38,0,0,1-4.37,4.37M53,121.42h99.48V93.62H53Z"/><path class="cls-5" d="M65.57,147.88a4.37,4.37,0,1,1,4.37-4.37,4.37,4.37,0,0,1-4.37,4.37M53,129.88v18.18c0,5.27,4.56,9.53,10.17,9.53h89.31V129.88Z"/><path class="cls-5" d="M67.1,75.49a4.37,4.37,0,1,1,4.37-4.37A4.37,4.37,0,0,1,67.1,75.49Zm27-11.29a16.92,16.92,0,0,1,5.29-6.75H53V85.17h47.18A17.1,17.1,0,0,1,94.1,64.2Z"/><path class="cls-5" d="M167.32,65.71a14,14,0,0,0-14.66-8.25,19.2,19.2,0,0,0-18.77-16.39l-.41,0-.41,0a19.14,19.14,0,0,0-17.35,11.58,19.44,19.44,0,0,0-1.36,4.81A13.92,13.92,0,0,0,107,84a13.63,13.63,0,0,0,5.55,1.14h42A13.71,13.71,0,0,0,160.07,84,13.91,13.91,0,0,0,167.32,65.71Z"/><path class="cls-5" d="M64.66,111.15A4.38,4.38,0,1,1,69,106.78a4.37,4.37,0,0,1-4.37,4.37m-12.25,9.74h99.48V93.09H52.41Z"/><path class="cls-5" d="M65,147.34A4.37,4.37,0,1,1,69.32,143,4.37,4.37,0,0,1,65,147.34m-12.54-18v18.18c0,5.27,4.56,9.54,10.18,9.54h89.3V129.34Z"/><path class="cls-5" d="M66.48,75a4.38,4.38,0,1,1,4.37-4.37A4.37,4.37,0,0,1,66.48,75Zm27-11.3a17,17,0,0,1,5.29-6.75H52.41V84.64H99.59A17.12,17.12,0,0,1,93.48,63.66Z"/><path class="cls-5" d="M166.7,65.17A14,14,0,0,0,152,56.92a19.2,19.2,0,0,0-18.77-16.39h-.82A19.14,19.14,0,0,0,115.1,52.11a19.44,19.44,0,0,0-1.36,4.81,13.92,13.92,0,1,0-1.84,27.71h42A13.92,13.92,0,0,0,166.7,65.17Z"/><path class="cls-5" d="M64,110.62a4.38,4.38,0,1,1,4.37-4.38A4.38,4.38,0,0,1,64,110.62m-12.25,9.73h99.48V92.55H51.79Z"/><path class="cls-5" d="M64.34,146.81a4.38,4.38,0,1,1,4.36-4.37,4.38,4.38,0,0,1-4.36,4.37m-12.55-18V147c0,5.26,4.56,9.53,10.18,9.53h89.3V128.8Z"/><path class="cls-5" d="M65.86,74.42a4.37,4.37,0,1,1,4.37-4.37A4.37,4.37,0,0,1,65.86,74.42Zm27-11.29a17,17,0,0,1,5.29-6.75H51.79V84.1H99A17.11,17.11,0,0,1,92.86,63.13Z"/><path class="cls-5" d="M166.08,64.63a14,14,0,0,0-14.66-8.24A19.19,19.19,0,0,0,132.65,40h-.82a19.15,19.15,0,0,0-17.35,11.58,19.64,19.64,0,0,0-1.36,4.82,13.91,13.91,0,1,0-1.84,27.7h42a13.92,13.92,0,0,0,12.81-19.46Z"/><path class="cls-5" d="M63.42,110.08a4.38,4.38,0,1,1,4.37-4.38,4.38,4.38,0,0,1-4.37,4.38m-12.25,9.73h99.48V92H51.17Z"/><path class="cls-5" d="M63.72,146.27a4.37,4.37,0,1,1,4.36-4.37,4.38,4.38,0,0,1-4.36,4.37m-12.55-18v18.18c0,5.27,4.56,9.53,10.18,9.53h89.3V128.27Z"/><path class="cls-5" d="M65.25,73.88a4.37,4.37,0,1,1,4.37-4.37A4.36,4.36,0,0,1,65.25,73.88Zm27-11.29a17,17,0,0,1,5.29-6.75H51.17V83.56H98.35A17.1,17.1,0,0,1,92.24,62.59Z"/><path class="cls-5" d="M165.46,64.1a14,14,0,0,0-14.66-8.25A19.44,19.44,0,0,0,149.44,51,19.21,19.21,0,0,0,132,39.46l-.41,0-.41,0A19.14,19.14,0,0,0,113.86,51a19.44,19.44,0,0,0-1.36,4.81,13.92,13.92,0,0,0-7.39,26.56,13.66,13.66,0,0,0,5.55,1.14h42a13.67,13.67,0,0,0,5.56-1.14A13.91,13.91,0,0,0,165.46,64.1Z"/><path class="cls-5" d="M62.8,109.54a4.38,4.38,0,1,1,4.37-4.37,4.37,4.37,0,0,1-4.37,4.37m-12.24,9.74H150V91.48H50.56Z"/><path class="cls-5" d="M63.1,145.73a4.37,4.37,0,1,1,4.37-4.37,4.38,4.38,0,0,1-4.37,4.37m-12.54-18v18.18c0,5.27,4.55,9.54,10.17,9.54H150V127.73Z"/><path class="cls-5" d="M64.63,73.35A4.38,4.38,0,1,1,69,69,4.37,4.37,0,0,1,64.63,73.35Zm27-11.3a17.08,17.08,0,0,1,5.29-6.75H50.56V83H97.73A17.12,17.12,0,0,1,91.62,62.05Z"/><path class="cls-5" d="M164.84,63.56a14,14,0,0,0-14.66-8.25,19.15,19.15,0,0,0-18.77-16.39h-.82A19.11,19.11,0,0,0,113.25,50.5a18.62,18.62,0,0,0-1.36,4.81A13.92,13.92,0,1,0,110,83h42a13.94,13.94,0,0,0,12.81-19.46Z"/><path class="cls-5" d="M62.18,109a4.37,4.37,0,1,1,4.37-4.37A4.37,4.37,0,0,1,62.18,109m-12.24,9.74h99.47V90.94H49.94Z"/><path class="cls-5" d="M62.48,145.2a4.38,4.38,0,1,1,4.37-4.37,4.37,4.37,0,0,1-4.37,4.37m-12.54-18v18.19c0,5.26,4.55,9.53,10.17,9.53h89.3V127.19Z"/><path class="cls-5" d="M64,72.81a4.37,4.37,0,1,1,4.37-4.37A4.37,4.37,0,0,1,64,72.81ZM91,61.52a17,17,0,0,1,5.29-6.75H49.94V82.49H97.11A17.11,17.11,0,0,1,91,61.52Z"/><path class="cls-5" d="M164.22,63a14,14,0,0,0-14.66-8.24,19.15,19.15,0,0,0-18.77-16.4H130A19.13,19.13,0,0,0,112.63,50a18.8,18.8,0,0,0-1.36,4.82,13.92,13.92,0,0,0-7.39,26.56,13.78,13.78,0,0,0,5.54,1.14h42A13.92,13.92,0,0,0,164.22,63Z"/><path class="cls-5" d="M61.56,108.47a4.38,4.38,0,1,1,4.37-4.38,4.38,4.38,0,0,1-4.37,4.38M49.32,118.2h99.47V90.4H49.32Z"/><path class="cls-5" d="M61.86,144.66a4.37,4.37,0,1,1,4.37-4.37,4.37,4.37,0,0,1-4.37,4.37m-12.54-18v18.18c0,5.27,4.55,9.53,10.17,9.53h89.3V126.66Z"/><path class="cls-5" d="M63.39,72.27a4.37,4.37,0,1,1,4.37-4.37A4.36,4.36,0,0,1,63.39,72.27ZM90.38,61a17.1,17.1,0,0,1,5.29-6.75H49.32V82H96.49A17.1,17.1,0,0,1,90.38,61Z"/><path class="cls-5" d="M163.6,62.49a14,14,0,0,0-14.66-8.25,18.62,18.62,0,0,0-1.36-4.81,19.31,19.31,0,0,0-17.41-11.58l-.4,0-.42,0A19.22,19.22,0,0,0,112,49.43a18.62,18.62,0,0,0-1.36,4.81,13.92,13.92,0,0,0-7.39,26.56,13.62,13.62,0,0,0,5.54,1.14h42a13.67,13.67,0,0,0,5.56-1.14A13.91,13.91,0,0,0,163.6,62.49Z"/></g></g><path class="cls-6" d="M48.86,118.2h99.48V90.4H48.86Zm12.25-9.73a4.38,4.38,0,1,1,4.37-4.38,4.39,4.39,0,0,1-4.37,4.38"/><path class="cls-6" d="M48.86,126.66v18.18c0,5.27,4.56,9.53,10.17,9.53h89.31V126.66Zm12.54,18a4.37,4.37,0,1,1,4.37-4.37,4.37,4.37,0,0,1-4.37,4.37"/><path class="cls-6" d="M89.93,61a16.92,16.92,0,0,1,5.29-6.75H48.86V82H96A17.1,17.1,0,0,1,89.93,61Zm-27,11.29A4.37,4.37,0,1,1,67.3,67.9,4.37,4.37,0,0,1,62.93,72.27Z"/><path class="cls-6" d="M163.15,62.49a14,14,0,0,0-14.66-8.25,19,19,0,0,0-1.37-4.81,19.28,19.28,0,0,0-17.4-11.58l-.41,0-.41,0a19.24,19.24,0,0,0-17.35,11.58,19.44,19.44,0,0,0-1.36,4.81A13.92,13.92,0,0,0,102.8,80.8a13.63,13.63,0,0,0,5.55,1.14h42a13.71,13.71,0,0,0,5.56-1.14A13.91,13.91,0,0,0,163.15,62.49Z"/></g></svg>