<?xml version="1.0" encoding="utf-8"?>
<!-- Generator: Adobe Illustrator 23.0.0, SVG Export Plug-In . SVG Version: 6.00 Build 0)  -->
<svg version="1.1" id="图层_1" xmlns="http://www.w3.org/2000/svg" xmlns:xlink="http://www.w3.org/1999/xlink" x="0px" y="0px"
	 viewBox="0 0 50 50" style="enable-background:new 0 0 50 50;" xml:space="preserve">
<style type="text/css">
	.st0{fill:#B968C6;}
	.st1{fill:#FFFFFF;}
</style>
<title>Group</title>
<desc>Created with Sketch.</desc>
<rect id="Rectangle" class="st0" width="50" height="50"/>
<path class="st1" d="M38.83,21.88L38.83,21.88c0-5.69-4.6-10.29-10.28-10.29c-3.03,0-5.9,1.33-7.85,3.64
	c-3.24-1.25-6.87,0.36-8.12,3.6c-0.28,0.73-0.42,1.5-0.42,2.28c0,0.18,0.01,0.36,0.03,0.53c-4.05,0.7-6.76,4.56-6.06,8.61
	c0.62,3.56,3.71,6.17,7.33,6.17h9.13v-7.26h-4.84L25,21.9l7.26,7.26h-4.84v7.26h9.13c4.11,0,7.45-3.33,7.45-7.45
	C43.99,25.74,41.91,22.87,38.83,21.88z"/>
</svg>
