<?xml version="1.0" standalone="no"?><!DOCTYPE svg PUBLIC "-//W3C//DTD SVG 1.1//EN" "http://www.w3.org/Graphics/SVG/1.1/DTD/svg11.dtd"><svg t="1557291775078" class="icon" style="" viewBox="0 0 1024 1024" version="1.1" xmlns="http://www.w3.org/2000/svg" p-id="4015" xmlns:xlink="http://www.w3.org/1999/xlink" width="200" height="200"><defs><style type="text/css"></style></defs><path d="M877.714286 73.142857q0 149.142857-60.857143 263.714286T664.571429 512q91.428571 60.571429 152.285714 175.142857T877.714286 950.857143h54.857143q8 0 13.142857 5.142857t5.142857 13.142857v36.571429q0 8-5.142857 13.142857t-13.142857 5.142857H91.428571q-8 0-13.142857-5.142857t-5.142857-13.142857v-36.571429q0-8 5.142857-13.142857t13.142857-5.142857h54.857143q0-149.142857 60.857143-263.714286T359.428571 512Q268 451.428571 207.142857 336.857143T146.285714 73.142857h-54.857143q-8 0-13.142857-5.142857t-5.142857-13.142857V18.285714q0-8 5.142857-13.142857t13.142857-5.142857h841.142858q8 0 13.142857 5.142857t5.142857 13.142857v36.571429q0 8-5.142857 13.142857t-13.142857 5.142857h-54.857143z m-305.142857 404.571429q44-16.571429 85.142857-52.857143T731.714286 337.714286t52.857143-120 20-144.571429H219.428571q0 75.428571 20 144.571429t52.857143 120T366.285714 424.857143 451.428571 477.714286q10.857143 4 17.428572 13.428571T475.428571 512t-6.571428 20.857143T451.428571 546.285714q-44 16.571429-85.142857 52.857143T292.285714 686.285714 239.428571 806.285714t-20 144.571429h585.142858q0-75.428571-20-144.571429t-52.857143-120-74-87.142857-85.142857-52.857143q-10.857143-4-17.428572-13.428571T548.571429 512t6.571428-20.857143T572.571429 477.714286z" p-id="4016"></path></svg>