<?xml version="1.0" encoding="utf-8"?>
<!-- Generator: Adobe Illustrator 23.0.0, SVG Export Plug-In . SVG Version: 6.00 Build 0)  -->
<svg version="1.1" id="图层_1" xmlns="http://www.w3.org/2000/svg" xmlns:xlink="http://www.w3.org/1999/xlink" x="0px" y="0px"
	 viewBox="0 0 200 200" style="enable-background:new 0 0 200 200;" xml:space="preserve">
<path d="M100,195.1c-52.5,0-95-42.6-95-95.1C5,47.5,47.5,4.9,100,4.9c52.5,0,95,42.6,95,95.1C195,152.5,152.5,195.1,100,195.1z
	 M91.8,160.2h15.5v-16.1H91.8V160.2z M125.7,52.3c-6.5-6.1-15.1-9.2-26-9.2c-10.3,0-18.5,2.9-24.8,8.6c-6.2,5.7-10,13.9-11.3,24.7
	l14,1.7c1.2-8,3.8-13.9,7.7-17.7c3.9-3.8,8.7-5.7,14.6-5.7c6,0,11.1,2.1,15.2,6.2c4.1,4.2,6.2,9,6.2,14.5c0,3-0.7,5.8-2.1,8.4
	c-1.4,2.6-4.5,6-9.2,10.3c-4.7,4.3-8,7.6-9.8,9.9c-2.5,3.1-4.3,6.2-5.4,9.2c-1.5,4-2.3,8.8-2.3,14.4c0,0.9,0,2.4,0.1,4.2h13.1
	c0.1-5.7,0.5-9.7,1.1-12.3c0.7-2.5,1.7-4.7,3-6.7c1.4-1.9,4.3-4.9,8.7-9c6.6-6.1,11.1-11.2,13.3-15.5c2.3-4.2,3.4-8.9,3.4-13.9
	C135.4,65.8,132.1,58.4,125.7,52.3L125.7,52.3z"/>
</svg>
