<svg width="28" height="26" viewBox="0 0 28 26" fill="none" xmlns="http://www.w3.org/2000/svg">
<path d="M0.833333 21H4.16667C4.71667 21 5 21.2833 5 21.8333V25.1667C5 25.7167 4.71667 26 4.16667 26H0.833333C0.283333 26 0 25.7167 0 25.1667V21.8333C0 21.2833 0.283333 21 0.833333 21Z" fill="#4D70FF"/>
<path d="M0.833333 11H4.16667C4.71667 11 5 11.2833 5 11.8333V15.1667C5 15.7167 4.71667 16 4.16667 16H0.833333C0.283333 16 0 15.7167 0 15.1667V11.8333C0 11.2833 0.283333 11 0.833333 11Z" fill="#4D70FF"/>
<path d="M0.833333 0H4.16667C4.71667 0 5 0.283333 5 0.833333V4.16667C5 4.71667 4.71667 5 4.16667 5H0.833333C0.283333 5 0 4.71667 0 4.16667V0.833333C0 0.283333 0.283333 0 0.833333 0Z" fill="#4D70FF"/>
<path d="M10.9 0H27.1C27.694 0 28 0.283333 28 0.833333V4.16667C28 4.71667 27.694 5 27.1 5H10.9C10.306 5 10 4.71667 10 4.16667V0.833333C10 0.283333 10.306 0 10.9 0Z" fill="#4D70FF"/>
<path d="M10.9 11H27.1C27.694 11 28 11.2833 28 11.8333V15.1667C28 15.7167 27.694 16 27.1 16H10.9C10.306 16 10 15.7167 10 15.1667V11.8333C10 11.2833 10.306 11 10.9 11Z" fill="#4D70FF"/>
<path d="M10.9 21H27.1C27.694 21 28 21.2833 28 21.8333V25.1667C28 25.7167 27.694 26 27.1 26H10.9C10.306 26 10 25.7167 10 25.1667V21.8333C10 21.2833 10.306 21 10.9 21Z" fill="#4D70FF"/>
</g>
</svg>
