<svg width="28" height="28" viewBox="0 0 28 28" fill="none" xmlns="http://www.w3.org/2000/svg">
<path d="M10.7 0.599976H2.29998C1.39998 0.599976 0.599976 1.29998 0.599976 2.29998V14C0.599976 14.9 1.29998 15.7 2.29998 15.7H10.7C11.6 15.7 12.4 15 12.4 14V2.29998C12.3 1.39998 11.6 0.599976 10.7 0.599976Z" fill="#4D70FF"/>
<path d="M10.7 19H2.29998C1.39998 19 0.599976 19.7 0.599976 20.7V25.7C0.599976 26.6 1.29998 27.4 2.29998 27.4H10.7C11.6 27.4 12.4 26.7 12.4 25.7V20.7C12.3 19.8 11.6 19 10.7 19Z" fill="#4D70FF"/>
<path d="M25.7 0.599976H17.3C16.4 0.599976 15.6 1.29998 15.6 2.29998V7.29998C15.6 8.19998 16.3 8.99998 17.3 8.99998H25.7C26.6 8.99998 27.4 8.29998 27.4 7.29998V2.29998C27.4 1.39998 26.6 0.599976 25.7 0.599976Z" fill="#4D70FF"/>
<path d="M25.7 12.3H17.3C16.4 12.3 15.6 13 15.6 14V25.7C15.6 26.6 16.3 27.4 17.3 27.4H25.7C26.6 27.4 27.4 26.7 27.4 25.7V14C27.4 13.1 26.6 12.3 25.7 12.3Z" fill="#4D70FF"/>
</g>
</svg>
