<svg width="29" height="25" viewBox="0 0 29 25" fill="none" xmlns="http://www.w3.org/2000/svg">
<path fill-rule="evenodd" clip-rule="evenodd" d="M0 1.38889V19.4444H29V1.38889C29 0.625 28.3475 0 27.55 0H1.45C0.6525 0 0 0.625 0 1.38889ZM6.525 4.16667C6.931 4.16667 7.25 4.47222 7.25 4.86111V14.5833C7.25 14.9722 6.931 15.2778 6.525 15.2778C6.119 15.2778 5.8 14.9722 5.8 14.5833V4.86111C5.8 4.47222 6.119 4.16667 6.525 4.16667ZM13.05 7.63889C13.05 7.25 12.731 6.94444 12.325 6.94444C11.919 6.94444 11.6 7.25 11.6 7.63889V14.5833C11.6 14.9722 11.919 15.2778 12.325 15.2778C12.731 15.2778 13.05 14.9722 13.05 14.5833V7.63889ZM16.675 11.1111C17.081 11.1111 17.4 11.4167 17.4 11.8056V14.5833C17.4 14.9722 17.081 15.2778 16.675 15.2778C16.269 15.2778 15.95 14.9722 15.95 14.5833V11.8056C15.95 11.4167 16.269 11.1111 16.675 11.1111ZM23.2 7.63889C23.2 7.25 22.881 6.94444 22.475 6.94444C22.069 6.94444 21.75 7.25 21.75 7.63889V14.5833C21.75 14.9722 22.069 15.2778 22.475 15.2778C22.881 15.2778 23.2 14.9722 23.2 14.5833V7.63889ZM24.65 22.2222H4.35C3.5525 22.2222 2.9 22.8472 2.9 23.6111C2.9 24.375 3.5525 25 4.35 25H24.65C25.4475 25 26.1 24.375 26.1 23.6111C26.1 22.8472 25.4475 22.2222 24.65 22.2222Z" fill="#4D70FF"/>
</g>
</svg>
