<svg width="28" height="32" viewBox="0 0 28 32" fill="none" xmlns="http://www.w3.org/2000/svg">
<path d="M26 6V30H2V2H22V0H2C0.89543 0 0 0.89543 0 2V30C0 31.1046 0.89543 32 2 32H26C27.1046 32 28 31.1046 28 30V6H26Z" fill="#4D70FF"/>
<path d="M14.5 17.141V23.563L20 20.354V13.933L14.5 17.141Z" fill="#4D70FF"/>
<path d="M14 16.275L19.504 13.065L14 9.854L8.49597 13.065L14 16.275Z" fill="#4D70FF"/>
<path d="M13.5 17.141L8 13.933V20.354L13.5 23.563V17.141Z" fill="#4D70FF"/>
<path d="M23 0V2.9C23 4.0598 23.9402 5 25.1 5H28L23 0Z" fill="#4D70FF"/>
</g>
</svg>
